<svg width="20" height="20" viewBox="0 0 20 20" fill="none" xmlns="http://www.w3.org/2000/svg">
<path d="M10.0001 18.6213C10.1905 18.6213 10.3449 18.4669 10.3449 18.2765C10.3449 18.086 10.1905 17.9316 10.0001 17.9316C9.80966 17.9316 9.65527 18.086 9.65527 18.2765C9.65527 18.4669 9.80966 18.6213 10.0001 18.6213Z" fill="white"/>
<path d="M13.4484 0H6.55188C6.00332 0.000547734 5.47739 0.218703 5.0895 0.606591C4.70161 0.994479 4.48346 1.52041 4.48291 2.06897H15.5174C15.5168 1.52041 15.2987 0.994479 14.9108 0.606591C14.5229 0.218703 13.997 0.000547734 13.4484 0V0ZM11.0346 1.37931H8.96567C8.87421 1.37931 8.78651 1.34298 8.72184 1.27831C8.65717 1.21364 8.62084 1.12594 8.62084 1.03448C8.62084 0.943029 8.65717 0.855321 8.72184 0.790653C8.78651 0.725985 8.87421 0.689655 8.96567 0.689655H11.0346C11.1261 0.689655 11.2138 0.725985 11.2785 0.790653C11.3431 0.855321 11.3795 0.943029 11.3795 1.03448C11.3795 1.12594 11.3431 1.21364 11.2785 1.27831C11.2138 1.34298 11.1261 1.37931 11.0346 1.37931Z" fill="white"/>
<path d="M4.48291 2.75781H15.5174V15.8613H4.48291V2.75781Z" fill="white"/>
<path d="M4.48291 17.9301C4.48346 18.4786 4.70161 19.0046 5.0895 19.3925C5.47739 19.7804 6.00332 19.9985 6.55188 19.9991H13.4484C13.997 19.9985 14.5229 19.7804 14.9108 19.3925C15.2987 19.0046 15.5168 18.4786 15.5174 17.9301V16.5508H4.48291V17.9301ZM10.0002 17.2404C10.2048 17.2404 10.4048 17.3011 10.5749 17.4148C10.745 17.5284 10.8776 17.69 10.9559 17.879C11.0342 18.0681 11.0547 18.2761 11.0148 18.4767C10.9748 18.6774 10.8763 18.8617 10.7316 19.0064C10.587 19.1511 10.4026 19.2496 10.202 19.2895C10.0013 19.3294 9.7933 19.309 9.60427 19.2307C9.41525 19.1524 9.25368 19.0198 9.14001 18.8496C9.02634 18.6795 8.96567 18.4795 8.96567 18.2749C8.96567 18.0006 9.07466 17.7374 9.26866 17.5434C9.46266 17.3494 9.72579 17.2404 10.0002 17.2404V17.2404Z" fill="white"/>
</svg>
