<svg width="20" height="20" viewBox="0 0 20 20" fill="none" xmlns="http://www.w3.org/2000/svg">
<path d="M6.33301 10.834H7.66634L6.99967 9.08398L6.33301 10.834Z" fill="#787878"/>
<path d="M13.2501 10C12.8334 10.0833 12.5834 10.3333 12.5001 10.75C12.4167 11.1667 12.7501 11.5833 13.2501 11.6667H13.3334H14.1667V10H13.3334H13.2501Z" fill="#787878"/>
<path d="M17.4998 2.5H2.49984C1.99984 2.5 1.6665 2.83333 1.6665 3.33333V16.6667C1.6665 17.1667 1.99984 17.5 2.49984 17.5H17.4998C17.9998 17.5 18.3332 17.1667 18.3332 16.6667V3.33333C18.3332 2.83333 17.9998 2.5 17.4998 2.5ZM8.6665 13.3333L8.33317 12.5H5.6665L5.33317 13.3333H3.49984L6.1665 6.66667H7.83317L10.4998 13.3333H8.6665ZM15.8332 13.3333H13.3332H13.1665C11.8332 13.25 10.8332 12.1667 10.8332 10.8333C10.8332 9.41667 11.9165 8.33333 13.3332 8.33333H14.1665V6.66667H15.8332V13.3333Z" fill="#787878"/>
</svg>
