<svg width="84" height="21" viewBox="0 0 84 21" fill="none" xmlns="http://www.w3.org/2000/svg">
<path d="M6.33301 10.834H7.66634L6.99967 9.08398L6.33301 10.834Z" fill="#787878"/>
<path d="M13.2501 10C12.8334 10.0833 12.5834 10.3333 12.5001 10.75C12.4167 11.1667 12.7501 11.5833 13.2501 11.6667H13.3334H14.1667V10H13.3334H13.2501Z" fill="#787878"/>
<path d="M17.4998 2.5H2.49984C1.99984 2.5 1.6665 2.83333 1.6665 3.33333V16.6667C1.6665 17.1667 1.99984 17.5 2.49984 17.5H17.4998C17.9998 17.5 18.3332 17.1667 18.3332 16.6667V3.33333C18.3332 2.83333 17.9998 2.5 17.4998 2.5ZM8.6665 13.3333L8.33317 12.5H5.6665L5.33317 13.3333H3.49984L6.1665 6.66667H7.83317L10.4998 13.3333H8.6665ZM15.8332 13.3333H13.3332H13.1665C11.8332 13.25 10.8332 12.1667 10.8332 10.8333C10.8332 9.41667 11.9165 8.33333 13.3332 8.33333H14.1665V6.66667H15.8332V13.3333Z" fill="#787878"/>
<path d="M38.51 9.988C39.0607 10.0907 39.5133 10.366 39.868 10.814C40.2227 11.262 40.4 11.7753 40.4 12.354C40.4 12.8767 40.2693 13.3387 40.008 13.74C39.756 14.132 39.3873 14.44 38.902 14.664C38.4167 14.888 37.8427 15 37.18 15H32.966V5.228H36.998C37.6607 5.228 38.23 5.33533 38.706 5.55C39.1913 5.76467 39.5553 6.06333 39.798 6.446C40.05 6.82867 40.176 7.26267 40.176 7.748C40.176 8.31733 40.022 8.79333 39.714 9.176C39.4153 9.55867 39.014 9.82933 38.51 9.988ZM34.926 9.26H36.718C37.1847 9.26 37.544 9.15733 37.796 8.952C38.048 8.73733 38.174 8.434 38.174 8.042C38.174 7.65 38.048 7.34667 37.796 7.132C37.544 6.91733 37.1847 6.81 36.718 6.81H34.926V9.26ZM36.9 13.404C37.376 13.404 37.7447 13.292 38.006 13.068C38.2767 12.844 38.412 12.5267 38.412 12.116C38.412 11.696 38.272 11.3693 37.992 11.136C37.712 10.8933 37.334 10.772 36.858 10.772H34.926V13.404H36.9ZM41.4581 11.094C41.4581 10.31 41.6121 9.61467 41.9201 9.008C42.2374 8.40133 42.6621 7.93467 43.1941 7.608C43.7354 7.28133 44.3374 7.118 45.0001 7.118C45.5788 7.118 46.0828 7.23467 46.5121 7.468C46.9508 7.70133 47.3008 7.99533 47.5621 8.35V7.244H49.5361V15H47.5621V13.866C47.3101 14.23 46.9601 14.5333 46.5121 14.776C46.0734 15.0093 45.5648 15.126 44.9861 15.126C44.3328 15.126 43.7354 14.958 43.1941 14.622C42.6621 14.286 42.2374 13.8147 41.9201 13.208C41.6121 12.592 41.4581 11.8873 41.4581 11.094ZM47.5621 11.122C47.5621 10.646 47.4688 10.24 47.2821 9.904C47.0954 9.55867 46.8434 9.29733 46.5261 9.12C46.2088 8.93333 45.8681 8.84 45.5041 8.84C45.1401 8.84 44.8041 8.92867 44.4961 9.106C44.1881 9.28333 43.9361 9.54467 43.7401 9.89C43.5534 10.226 43.4601 10.6273 43.4601 11.094C43.4601 11.5607 43.5534 11.9713 43.7401 12.326C43.9361 12.6713 44.1881 12.9373 44.4961 13.124C44.8134 13.3107 45.1494 13.404 45.5041 13.404C45.8681 13.404 46.2088 13.3153 46.5261 13.138C46.8434 12.9513 47.0954 12.69 47.2821 12.354C47.4688 12.0087 47.5621 11.598 47.5621 11.122ZM55.7484 7.132C56.6724 7.132 57.419 7.426 57.9884 8.014C58.5577 8.59267 58.8424 9.40467 58.8424 10.45V15H56.8824V10.716C56.8824 10.1 56.7284 9.62867 56.4204 9.302C56.1124 8.966 55.6924 8.798 55.1604 8.798C54.619 8.798 54.1897 8.966 53.8724 9.302C53.5644 9.62867 53.4104 10.1 53.4104 10.716V15H51.4504V7.244H53.4104V8.21C53.6717 7.874 54.003 7.61267 54.4044 7.426C54.815 7.23 55.263 7.132 55.7484 7.132ZM65.0042 7.132C65.9282 7.132 66.6749 7.426 67.2442 8.014C67.8136 8.59267 68.0982 9.40467 68.0982 10.45V15H66.1382V10.716C66.1382 10.1 65.9842 9.62867 65.6762 9.302C65.3682 8.966 64.9482 8.798 64.4162 8.798C63.8749 8.798 63.4456 8.966 63.1282 9.302C62.8202 9.62867 62.6662 10.1 62.6662 10.716V15H60.7062V7.244H62.6662V8.21C62.9276 7.874 63.2589 7.61267 63.6602 7.426C64.0709 7.23 64.5189 7.132 65.0042 7.132ZM77.1721 10.954C77.1721 11.234 77.1534 11.486 77.1161 11.71H71.4461C71.4928 12.27 71.6888 12.7087 72.0341 13.026C72.3794 13.3433 72.8041 13.502 73.3081 13.502C74.0361 13.502 74.5541 13.1893 74.8621 12.564H76.9761C76.7521 13.3107 76.3228 13.9267 75.6881 14.412C75.0534 14.888 74.2741 15.126 73.3501 15.126C72.6034 15.126 71.9314 14.9627 71.3341 14.636C70.7461 14.3 70.2841 13.8287 69.9481 13.222C69.6214 12.6153 69.4581 11.9153 69.4581 11.122C69.4581 10.3193 69.6214 9.61467 69.9481 9.008C70.2748 8.40133 70.7321 7.93467 71.3201 7.608C71.9081 7.28133 72.5848 7.118 73.3501 7.118C74.0874 7.118 74.7454 7.27667 75.3241 7.594C75.9121 7.91133 76.3648 8.364 76.6821 8.952C77.0088 9.53067 77.1721 10.198 77.1721 10.954ZM75.1421 10.394C75.1328 9.89 74.9508 9.48867 74.5961 9.19C74.2414 8.882 73.8074 8.728 73.2941 8.728C72.8088 8.728 72.3981 8.87733 72.0621 9.176C71.7354 9.46533 71.5348 9.87133 71.4601 10.394H75.1421ZM80.5627 8.448C80.8147 8.03733 81.1414 7.71533 81.5427 7.482C81.9534 7.24867 82.4201 7.132 82.9427 7.132V9.19H82.4247C81.8087 9.19 81.3421 9.33467 81.0247 9.624C80.7167 9.91333 80.5627 10.4173 80.5627 11.136V15H78.6027V7.244H80.5627V8.448Z" fill="white"/>
</svg>
