<svg width="18" height="16" viewBox="0 0 18 16" fill="none" xmlns="http://www.w3.org/2000/svg">
<path d="M5.33301 8.83398H6.66634L5.99967 7.08398L5.33301 8.83398Z" fill="white"/>
<path d="M12.2501 8C11.8334 8.08333 11.5834 8.33333 11.5001 8.75C11.4167 9.16667 11.7501 9.58333 12.2501 9.66667H12.3334H13.1667V8H12.3334H12.2501Z" fill="white"/>
<path d="M16.4998 0.5H1.49984C0.999837 0.5 0.666504 0.833333 0.666504 1.33333V14.6667C0.666504 15.1667 0.999837 15.5 1.49984 15.5H16.4998C16.9998 15.5 17.3332 15.1667 17.3332 14.6667V1.33333C17.3332 0.833333 16.9998 0.5 16.4998 0.5ZM7.6665 11.3333L7.33317 10.5H4.6665L4.33317 11.3333H2.49984L5.1665 4.66667H6.83317L9.49984 11.3333H7.6665ZM14.8332 11.3333H12.3332H12.1665C10.8332 11.25 9.83317 10.1667 9.83317 8.83333C9.83317 7.41667 10.9165 6.33333 12.3332 6.33333H13.1665V4.66667H14.8332V11.3333Z" fill="white"/>
</svg>
