<svg width="20" height="18" viewBox="0 0 20 18" fill="none" xmlns="http://www.w3.org/2000/svg">
<path d="M14.1668 3.16602C14.1668 2.67156 14.3135 2.18821 14.5882 1.77709C14.8629 1.36597 15.2533 1.04554 15.7101 0.856318C16.1669 0.667099 16.6696 0.61759 17.1546 0.714054C17.6395 0.810517 18.085 1.04862 18.4346 1.39825C18.7842 1.74788 19.0223 2.19334 19.1188 2.67829C19.2153 3.16324 19.1657 3.66591 18.9765 4.12273C18.7873 4.57954 18.4669 4.96999 18.0558 5.24469C17.6446 5.51939 17.1613 5.66602 16.6668 5.66602C16.0038 5.66602 15.3679 5.40263 14.8991 4.93378C14.4302 4.46494 14.1668 3.82906 14.1668 3.16602ZM1.66683 3.99935H11.6668C11.8878 3.99935 12.0998 3.91155 12.2561 3.75527C12.4124 3.59899 12.5002 3.38703 12.5002 3.16602C12.5002 2.945 12.4124 2.73304 12.2561 2.57676C12.0998 2.42048 11.8878 2.33268 11.6668 2.33268H1.66683C1.44582 2.33268 1.23385 2.42048 1.07757 2.57676C0.921293 2.73304 0.833496 2.945 0.833496 3.16602C0.833496 3.38703 0.921293 3.59899 1.07757 3.75527C1.23385 3.91155 1.44582 3.99935 1.66683 3.99935ZM6.66683 6.49935C6.15104 6.5008 5.64833 6.66175 5.22761 6.96013C4.80689 7.25852 4.48876 7.67973 4.31683 8.16602H1.66683C1.44582 8.16602 1.23385 8.25381 1.07757 8.41009C0.921293 8.56637 0.833496 8.77834 0.833496 8.99935C0.833496 9.22036 0.921293 9.43233 1.07757 9.58861C1.23385 9.74489 1.44582 9.83268 1.66683 9.83268H4.31683C4.46971 10.2651 4.73858 10.6471 5.09403 10.9369C5.44948 11.2267 5.87781 11.4132 6.33213 11.4759C6.78645 11.5386 7.24927 11.4751 7.66992 11.2923C8.09057 11.1096 8.45285 10.8147 8.71712 10.4398C8.98138 10.065 9.13744 9.62469 9.16821 9.1671C9.19899 8.70951 9.1033 8.25226 8.89161 7.84541C8.67992 7.43856 8.36039 7.09778 7.96799 6.86037C7.5756 6.62296 7.12546 6.49806 6.66683 6.49935ZM18.3335 8.16602H11.6668C11.4458 8.16602 11.2339 8.25381 11.0776 8.41009C10.9213 8.56637 10.8335 8.77834 10.8335 8.99935C10.8335 9.22036 10.9213 9.43233 11.0776 9.58861C11.2339 9.74489 11.4458 9.83268 11.6668 9.83268H18.3335C18.5545 9.83268 18.7665 9.74489 18.9228 9.58861C19.079 9.43233 19.1668 9.22036 19.1668 8.99935C19.1668 8.77834 19.079 8.56637 18.9228 8.41009C18.7665 8.25381 18.5545 8.16602 18.3335 8.16602ZM8.3335 13.9994H1.66683C1.44582 13.9994 1.23385 14.0871 1.07757 14.2434C0.921293 14.3997 0.833496 14.6117 0.833496 14.8327C0.833496 15.0537 0.921293 15.2657 1.07757 15.4219C1.23385 15.5782 1.44582 15.666 1.66683 15.666H8.3335C8.55451 15.666 8.76647 15.5782 8.92275 15.4219C9.07903 15.2657 9.16683 15.0537 9.16683 14.8327C9.16683 14.6117 9.07903 14.3997 8.92275 14.2434C8.76647 14.0871 8.55451 13.9994 8.3335 13.9994ZM18.3335 13.9994H15.6835C15.4869 13.4433 15.1001 12.9747 14.5914 12.6763C14.0828 12.3779 13.485 12.269 12.9037 12.3687C12.3225 12.4684 11.7952 12.7704 11.4151 13.2213C11.035 13.6722 10.8265 14.2429 10.8265 14.8327C10.8265 15.4224 11.035 15.9932 11.4151 16.4441C11.7952 16.895 12.3225 17.197 12.9037 17.2967C13.485 17.3964 14.0828 17.2874 14.5914 16.989C15.1001 16.6906 15.4869 16.222 15.6835 15.666H18.3335C18.5545 15.666 18.7665 15.5782 18.9228 15.4219C19.079 15.2657 19.1668 15.0537 19.1668 14.8327C19.1668 14.6117 19.079 14.3997 18.9228 14.2434C18.7665 14.0871 18.5545 13.9994 18.3335 13.9994Z" fill="#2257AA"/>
</svg>
