<svg width="36" height="36" viewBox="0 0 36 36" fill="none" xmlns="http://www.w3.org/2000/svg">
<path d="M9.6 3.59961H4.8C4.1376 3.59961 3.6 4.13721 3.6 4.79961V9.59961C3.6 10.262 4.1376 10.7996 4.8 10.7996H9.6C10.2624 10.7996 10.8 10.262 10.8 9.59961V4.79961C10.8 4.13721 10.2624 3.59961 9.6 3.59961Z" fill="#2257AA"/>
<path d="M31.1625 3.59961H13.8375C13.1544 3.59961 12.6 4.13721 12.6 4.79961V9.59961C12.6 10.262 13.1544 10.7996 13.8375 10.7996H31.1625C31.8456 10.7996 32.4 10.262 32.4 9.59961V4.79961C32.4 4.13721 31.8456 3.59961 31.1625 3.59961Z" fill="#2257AA"/>
<path d="M9.6 14.4004H4.8C4.1376 14.4004 3.6 14.938 3.6 15.6004V20.4004C3.6 21.0628 4.1376 21.6004 4.8 21.6004H9.6C10.2624 21.6004 10.8 21.0628 10.8 20.4004V15.6004C10.8 14.938 10.2624 14.4004 9.6 14.4004Z" fill="#2257AA"/>
<path d="M31.1625 14.4004H13.8375C13.1544 14.4004 12.6 14.938 12.6 15.6004V20.4004C12.6 21.0628 13.1544 21.6004 13.8375 21.6004H31.1625C31.8456 21.6004 32.4 21.0628 32.4 20.4004V15.6004C32.4 14.938 31.8456 14.4004 31.1625 14.4004Z" fill="#2257AA"/>
<path d="M9.6 25.1992H4.8C4.1376 25.1992 3.6 25.7368 3.6 26.3992V31.1992C3.6 31.8616 4.1376 32.3992 4.8 32.3992H9.6C10.2624 32.3992 10.8 31.8616 10.8 31.1992V26.3992C10.8 25.7368 10.2624 25.1992 9.6 25.1992Z" fill="#2257AA"/>
<path d="M31.1625 25.1992H13.8375C13.1544 25.1992 12.6 25.7368 12.6 26.3992V31.1992C12.6 31.8616 13.1544 32.3992 13.8375 32.3992H31.1625C31.8456 32.3992 32.4 31.8616 32.4 31.1992V26.3992C32.4 25.7368 31.8456 25.1992 31.1625 25.1992Z" fill="#2257AA"/>
</svg>
