<svg width="50" height="50" viewBox="0 0 50 50" fill="none" xmlns="http://www.w3.org/2000/svg">
<circle cx="25" cy="25" r="25" fill="white"/>
<rect width="30" height="30.0014" transform="translate(10 10)" fill="white"/>
<path d="M17.1092 13.7426C18.144 13.7426 18.9829 12.9048 18.9829 11.8713C18.9829 10.8378 18.144 10 17.1092 10C16.0743 10 15.2354 10.8378 15.2354 11.8713C15.2354 12.9048 16.0743 13.7426 17.1092 13.7426Z" fill="#2257AA"/>
<path d="M14.8369 26.916C13.7416 26.916 12.8536 27.8028 12.8536 28.8968C12.8536 29.9858 13.7364 30.8776 14.8369 30.8776C15.9245 30.8776 16.8204 29.9977 16.8204 28.8968C16.8204 27.8028 15.9323 26.916 14.8369 26.916Z" fill="#2257AA"/>
<path d="M37.3988 10.9814H22.9734C22.6139 10.9814 22.3224 11.2725 22.3224 11.6316V16.6974L23.0444 16.2497C23.2281 16.1358 23.4244 16.0589 23.6244 16.0166V12.2817H36.7477V21.6583H23.6244V20.1412L22.3224 20.9486V22.3085C22.3224 22.6676 22.6139 22.9586 22.9734 22.9586H37.3988C37.7583 22.9586 38.0498 22.6676 38.0498 22.3085V11.6316C38.0498 11.2725 37.7583 10.9814 37.3988 10.9814Z" fill="#2257AA"/>
<path d="M27.9343 14.5879C27.763 14.371 27.4482 14.3339 27.231 14.5048L24.9886 16.2706C25.2027 16.4103 25.3906 16.5975 25.5344 16.8288C25.5752 16.8943 25.6105 16.9616 25.642 17.0299L27.8511 15.2903C28.0683 15.1193 28.1055 14.8048 27.9343 14.5879Z" fill="#2257AA"/>
<path d="M24.7667 17.3076C24.5033 16.884 23.946 16.7538 23.5218 17.0168L21.6908 18.1521C21.6831 16.6357 21.6872 17.4405 21.6823 16.4639C21.6764 15.2916 20.7167 14.3379 19.5428 14.3379H18.6534C17.8935 16.3061 18.1383 15.5755 17.4933 17.2461L17.7645 16.0665C17.7833 15.9781 17.7697 15.886 17.7261 15.8069L17.3586 15.1393L17.6847 14.5469C17.7334 14.4585 17.6692 14.3503 17.5683 14.3503H16.6722C16.5713 14.3503 16.5071 14.4585 16.5558 14.5469L16.8826 15.1405L16.5144 15.8093C16.4716 15.887 16.4577 15.9772 16.4749 16.0641L16.7099 17.2461C16.5832 16.918 15.7075 14.6499 15.5871 14.3379H14.6796C13.5058 14.3379 12.546 15.2916 12.5401 16.4639L12.5067 23.0971C12.5043 23.5958 12.9069 24.0021 13.4063 24.0046C13.4078 24.0046 13.4093 24.0046 13.4109 24.0046C13.908 24.0046 14.3124 23.6033 14.3148 23.1062L14.3482 16.473C14.3482 16.4719 14.3482 16.4708 14.3482 16.4699C14.3496 16.3714 14.4303 16.2925 14.5289 16.2933C14.6274 16.294 14.7069 16.374 14.7069 16.4725L14.7073 25.8705C15.535 25.8353 16.3018 26.1334 16.8771 26.657V22.9907H17.3455V27.1964C17.6755 27.6809 17.8686 28.2654 17.8686 28.8942C17.8686 29.4671 17.7083 30.0034 17.4303 30.4606C17.7158 30.4619 17.9931 30.4998 18.2576 30.5696C18.6141 30.2608 19.0429 30.0334 19.5154 29.9171C19.5154 13.5483 19.4957 23.669 19.4957 16.4737C19.4957 16.3695 19.5801 16.285 19.6845 16.2848C19.7889 16.2846 19.8737 16.3687 19.8742 16.473C19.8773 17.1062 19.8873 19.0858 19.8908 19.775C19.8924 20.1019 20.0709 20.4025 20.3574 20.5606C20.6434 20.7185 20.9931 20.7103 21.2717 20.5375L24.4756 18.5509C24.8997 18.288 25.0301 17.7312 24.7667 17.3076Z" fill="#2257AA"/>
<path d="M35.1619 30.8942C36.2573 30.8942 37.1453 30.0074 37.1453 28.9134C37.1453 27.8194 36.2573 26.9326 35.1619 26.9326C34.0665 26.9326 33.1785 27.8194 33.1785 28.9134C33.1785 30.0074 34.0665 30.8942 35.1619 30.8942Z" fill="#2257AA"/>
<path d="M39.9888 33.7777C39.9825 32.5369 38.9666 31.5273 37.7241 31.5273C37.188 31.5273 33.2306 31.5273 32.7496 31.5273C32.963 31.9415 33.0843 32.4104 33.0843 32.9073C33.0843 33.435 32.9432 33.9863 32.6442 34.4767C33.7534 34.5215 34.7253 35.116 35.2933 35.9942H37.6743V33.8009C37.6743 33.6929 37.7599 33.6045 37.8679 33.6008C37.976 33.5971 38.0675 33.6796 38.0748 33.7872C38.0748 33.7872 38.0748 33.7873 38.0748 33.7873L38.086 35.9942H40L39.9888 33.7777Z" fill="#2257AA"/>
<path d="M27.0234 32.9075C27.0234 32.4019 27.1488 31.9252 27.3692 31.5059C26.0778 31.5059 24.5615 31.5059 22.953 31.5059C23.1567 31.9125 23.272 32.3705 23.272 32.8553C23.272 33.4249 23.1118 33.9643 22.8337 34.4217C23.7466 34.426 24.5888 34.8048 25.1973 35.4335C25.7872 34.8579 26.5914 34.501 27.476 34.4962C27.1688 34.001 27.0234 33.4449 27.0234 32.9075Z" fill="#2257AA"/>
<path d="M25.516 26.9131C24.4207 26.9131 23.5326 27.7998 23.5326 28.8939C23.5326 29.9854 24.419 30.8746 25.516 30.8746C26.6025 30.8746 27.4994 29.9977 27.4994 28.8939C27.4994 27.801 26.6131 26.9131 25.516 26.9131Z" fill="#2257AA"/>
<path d="M17.209 32.8526C17.209 32.369 17.3237 31.9119 17.5264 31.506C17.441 31.5018 17.8006 31.5031 12.276 31.5031C11.0398 31.5031 10.0175 32.5074 10.0113 33.7535L10 35.9917C10.8747 35.9917 11.0506 35.9917 11.914 35.9917L11.9252 33.7632C11.9258 33.6528 12.0156 33.5638 12.1261 33.5641C12.2365 33.5645 12.3258 33.6539 12.3258 33.7642V35.9917H15.0088C15.587 35.0686 16.5813 34.4889 17.6634 34.4444C17.3697 33.972 17.209 33.4268 17.209 32.8526Z" fill="#2257AA"/>
<path d="M34.77 37.7637C34.7639 36.5227 33.7479 35.5131 32.5054 35.5131C32.3736 35.5131 27.6372 35.5131 27.4883 35.5131C26.2458 35.5131 25.1648 36.5226 25.1585 37.7635L25.1423 37.7113C25.1362 36.4754 24.1249 35.4609 22.8777 35.4609C21.4376 35.4609 19.3693 35.4609 17.8606 35.4609C16.6181 35.4609 15.5371 36.4704 15.5308 37.7113L15.5195 40.0017H17.4335L17.4448 37.7209C17.4452 37.6259 17.5226 37.5492 17.6177 37.5495C17.7128 37.5497 17.7898 37.6268 17.7898 37.7218V40.0017C18.9117 40.0017 21.8079 40.0017 22.8587 40.0017V37.7218C22.8587 37.6201 22.9412 37.5376 23.043 37.5373C23.1448 37.5371 23.2278 37.6192 23.2283 37.7209L23.2395 40.0017C23.6308 40.0017 26.6566 40.0017 27.0612 40.0017L27.0724 37.7731C27.0724 37.7731 27.0724 37.7731 27.0724 37.773C27.073 37.678 27.1503 37.6015 27.2455 37.6017C27.3406 37.6019 27.4174 37.679 27.4174 37.774V40.0017C28.5393 40.0017 31.4356 40.0017 32.4864 40.0017V37.774C32.4864 37.6723 32.5689 37.5898 32.6707 37.5895C32.7725 37.5893 32.8555 37.6714 32.856 37.7731L32.8672 40.0016H34.7812L34.77 37.7637Z" fill="#2257AA"/>
<path d="M20.3038 34.8516C21.412 34.8516 22.3103 33.9544 22.3103 32.8477C22.3103 31.7409 21.412 30.8438 20.3038 30.8438C19.1956 30.8438 18.2972 31.7409 18.2972 32.8477C18.2972 33.9544 19.1956 34.8516 20.3038 34.8516Z" fill="#2257AA"/>
<path d="M30.0494 34.9053C31.1576 34.9053 32.056 34.0081 32.056 32.9014C32.056 31.7947 31.1576 30.8975 30.0494 30.8975C28.9413 30.8975 28.0429 31.7947 28.0429 32.9014C28.0429 34.0081 28.9413 34.9053 30.0494 34.9053Z" fill="#2257AA"/>
</svg>
