<svg width="46" height="46" viewBox="0 0 46 46" fill="none" xmlns="http://www.w3.org/2000/svg">
<circle cx="23" cy="23" r="23" fill="#EDF1F8"/>
<path d="M17.7394 15.495C18.4293 15.495 18.9885 14.9365 18.9885 14.2475C18.9885 13.5585 18.4293 13 17.7394 13C17.0495 13 16.4902 13.5585 16.4902 14.2475C16.4902 14.9365 17.0495 15.495 17.7394 15.495Z" fill="#2257AA"/>
<path d="M16.2246 24.2773C15.4944 24.2773 14.9023 24.8685 14.9023 25.5978C14.9023 26.3238 15.4909 26.9183 16.2246 26.9183C16.9496 26.9183 17.5468 26.3318 17.5468 25.5978C17.5468 24.8685 16.9548 24.2773 16.2246 24.2773Z" fill="#2257AA"/>
<path d="M31.2655 13.6543H21.6488C21.4091 13.6543 21.2148 13.8483 21.2148 14.0877V17.4649L21.6962 17.1664C21.8186 17.0904 21.9494 17.0392 22.0828 17.011V14.5211H30.8315V20.7721H22.0828V19.7607L21.2148 20.2989V21.2055C21.2148 21.4449 21.4091 21.6389 21.6488 21.6389H31.2655C31.5052 21.6389 31.6995 21.4449 31.6995 21.2055V14.0877C31.6995 13.8483 31.5052 13.6543 31.2655 13.6543Z" fill="#2257AA"/>
<path d="M24.9559 16.0586C24.8417 15.914 24.6318 15.8893 24.4871 16.0032L22.9922 17.1804C23.1349 17.2735 23.2601 17.3983 23.356 17.5525C23.3832 17.5962 23.4068 17.641 23.4277 17.6865L24.9005 16.5268C25.0453 16.4129 25.0701 16.2032 24.9559 16.0586Z" fill="#2257AA"/>
<path d="M22.8443 17.8714C22.6687 17.589 22.2972 17.5022 22.0144 17.6775L20.7937 18.4344C20.7886 17.4234 20.7913 17.9599 20.7881 17.3089C20.7841 16.5274 20.1443 15.8916 19.3618 15.8916H18.7688C18.2623 17.2037 18.4254 16.7166 17.9954 17.8304L18.1763 17.044C18.1888 16.9851 18.1797 16.9236 18.1507 16.8709L17.9056 16.4258L18.1231 16.0309C18.1555 15.972 18.1128 15.8998 18.0454 15.8998H17.4481C17.3808 15.8998 17.338 15.972 17.3705 16.0309L17.5883 16.4267L17.3428 16.8725C17.3144 16.9243 17.3051 16.9845 17.3166 17.0424L17.4732 17.8304C17.3888 17.6116 16.805 16.0996 16.7247 15.8916H16.1197C15.3372 15.8916 14.6974 16.5274 14.6934 17.3089L14.6712 21.731C14.6695 22.0634 14.938 22.3343 15.2708 22.3359C15.2719 22.3359 15.2729 22.3359 15.2739 22.3359C15.6053 22.3359 15.8749 22.0684 15.8765 21.737L15.8988 17.315C15.8988 17.3142 15.8988 17.3135 15.8988 17.3129C15.8997 17.2473 15.9535 17.1947 16.0192 17.1952C16.0849 17.1956 16.1379 17.249 16.1379 17.3146L16.1382 23.5798C16.6899 23.5564 17.2012 23.7551 17.5847 24.1042V21.66H17.897V24.4638C18.1169 24.7868 18.2456 25.1764 18.2456 25.5956C18.2456 25.9776 18.1388 26.335 17.9535 26.6398C18.1438 26.6407 18.3287 26.666 18.505 26.7125C18.7426 26.5066 19.0285 26.3551 19.3435 26.2775C19.3435 15.3652 19.3304 22.1122 19.3304 17.3155C19.3304 17.246 19.3867 17.1896 19.4563 17.1895C19.5258 17.1894 19.5824 17.2455 19.5827 17.315C19.5848 17.7371 19.5914 19.0568 19.5937 19.5163C19.5948 19.7342 19.7138 19.9346 19.9048 20.04C20.0955 20.1452 20.3286 20.1398 20.5144 20.0246L22.6502 18.7002C22.9329 18.5249 23.0199 18.1538 22.8443 17.8714Z" fill="#2257AA"/>
<path d="M29.7742 26.9291C30.5045 26.9291 31.0965 26.3379 31.0965 25.6086C31.0965 24.8793 30.5045 24.2881 29.7742 24.2881C29.044 24.2881 28.452 24.8793 28.452 25.6086C28.452 26.3379 29.044 26.9291 29.7742 26.9291Z" fill="#2257AA"/>
<path d="M32.9921 28.8518C32.9879 28.0246 32.3107 27.3516 31.4823 27.3516C31.1249 27.3516 28.4867 27.3516 28.1661 27.3516C28.3083 27.6277 28.3892 27.9402 28.3892 28.2715C28.3892 28.6233 28.2951 28.9908 28.0958 29.3177C28.8353 29.3476 29.4832 29.7439 29.8618 30.3294H31.4491V28.8672C31.4491 28.7953 31.5062 28.7363 31.5782 28.7338C31.6502 28.7314 31.7113 28.7864 31.7161 28.8581C31.7161 28.8581 31.7161 28.8582 31.7161 28.8582L31.7236 30.3294H32.9996L32.9921 28.8518Z" fill="#2257AA"/>
<path d="M24.3487 28.2713C24.3487 27.9342 24.4323 27.6165 24.5792 27.3369C23.7184 27.3369 22.7075 27.3369 21.6351 27.3369C21.771 27.608 21.8478 27.9133 21.8478 28.2365C21.8478 28.6163 21.741 28.9759 21.5557 29.2808C22.1642 29.2836 22.7257 29.5362 23.1313 29.9553C23.5246 29.5716 24.0607 29.3336 24.6504 29.3304C24.4457 29.0003 24.3487 28.6296 24.3487 28.2713Z" fill="#2257AA"/>
<path d="M23.3437 24.2754C22.6135 24.2754 22.0215 24.8665 22.0215 25.5959C22.0215 26.3236 22.6124 26.9164 23.3437 26.9164C24.0681 26.9164 24.666 26.3318 24.666 25.5959C24.666 24.8673 24.0751 24.2754 23.3437 24.2754Z" fill="#2257AA"/>
<path d="M17.8059 28.2347C17.8059 27.9124 17.8824 27.6076 18.0175 27.337C17.9605 27.3342 18.2003 27.3351 14.5173 27.3351C13.6932 27.3351 13.0117 28.0046 13.0075 28.8353L13 30.3274C13.5831 30.3274 13.7004 30.3274 14.276 30.3274L14.2835 28.8418C14.2838 28.7682 14.3437 28.7089 14.4173 28.7091C14.491 28.7093 14.5505 28.7689 14.5505 28.8424V30.3274H16.3391C16.7246 29.712 17.3874 29.3256 18.1088 29.2959C17.913 28.981 17.8059 28.6175 17.8059 28.2347Z" fill="#2257AA"/>
<path d="M29.513 31.5087C29.5089 30.6814 28.8316 30.0084 28.0032 30.0084C27.9154 30.0084 24.7579 30.0084 24.6586 30.0084C23.8303 30.0084 23.1096 30.6814 23.1054 31.5087L23.0946 31.4739C23.0905 30.6499 22.4163 29.9736 21.5849 29.9736C20.6249 29.9736 19.246 29.9736 18.2403 29.9736C17.412 29.9736 16.6913 30.6466 16.6871 31.4739L16.6796 33.0007H17.9555L17.963 31.4803C17.9633 31.4169 18.0149 31.3658 18.0783 31.366C18.1417 31.3661 18.193 31.4175 18.193 31.4809V33.0008C18.9409 33.0008 20.8718 33.0008 21.5723 33.0008V31.4809C21.5723 31.413 21.6272 31.358 21.6951 31.3578C21.763 31.3577 21.8183 31.4124 21.8187 31.4802L21.8261 33.0007C22.087 33.0007 24.1041 33.0007 24.3739 33.0007L24.3813 31.5151C24.3813 31.5151 24.3813 31.515 24.3813 31.515C24.3817 31.4517 24.4333 31.4006 24.4967 31.4008C24.5601 31.4009 24.6113 31.4523 24.6113 31.5157V33.0007C25.3593 33.0007 27.2901 33.0007 27.9906 33.0007V31.5157C27.9906 31.4478 28.0456 31.3928 28.1135 31.3926C28.1813 31.3925 28.2366 31.4472 28.237 31.515L28.2445 33.0007H29.5204L29.513 31.5087Z" fill="#2257AA"/>
<path d="M19.869 29.5674C20.6078 29.5674 21.2067 28.9692 21.2067 28.2314C21.2067 27.4936 20.6078 26.8955 19.869 26.8955C19.1303 26.8955 18.5314 27.4936 18.5314 28.2314C18.5314 28.9692 19.1303 29.5674 19.869 29.5674Z" fill="#2257AA"/>
<path d="M26.366 29.6035C27.1048 29.6035 27.7037 29.0054 27.7037 28.2676C27.7037 27.5298 27.1048 26.9316 26.366 26.9316C25.6272 26.9316 25.0283 27.5298 25.0283 28.2676C25.0283 29.0054 25.6272 29.6035 26.366 29.6035Z" fill="#2257AA"/>
</svg>
