<svg width="20" height="20" viewBox="0 0 20 20" fill="none" xmlns="http://www.w3.org/2000/svg">
<path d="M6.50013 8.74935H12.6668C13.3335 8.74935 13.7501 7.99935 13.3335 7.49935L10.2501 2.41602C9.9168 1.91602 9.1668 1.91602 8.83346 2.41602L5.75013 7.49935C5.4168 8.08268 5.83346 8.74935 6.50013 8.74935Z" fill="#787878"/>
<path d="M14.167 17.916C16.2381 17.916 17.917 16.2371 17.917 14.166C17.917 12.0949 16.2381 10.416 14.167 10.416C12.0959 10.416 10.417 12.0949 10.417 14.166C10.417 16.2371 12.0959 17.916 14.167 17.916Z" fill="#787878"/>
<path d="M7.91683 10.832H2.91683C2.50016 10.832 2.0835 11.2487 2.0835 11.6654V16.6654C2.0835 17.082 2.50016 17.4987 2.91683 17.4987H7.91683C8.3335 17.4987 8.75016 17.082 8.75016 16.6654V11.6654C8.75016 11.2487 8.3335 10.832 7.91683 10.832Z" fill="#787878"/>
</svg>
