<svg width="20" height="20" viewBox="0 0 20 20" fill="none" xmlns="http://www.w3.org/2000/svg">
<path d="M11.8323 10.0164L19.6199 2.22222C20.1267 1.71524 20.1267 0.895518 19.6199 0.388537C19.1133 -0.118445 18.2943 -0.118445 17.7877 0.388537L9.99989 8.18275L2.21228 0.388537C1.70548 -0.118445 0.88667 -0.118445 0.380103 0.388537C-0.126701 0.895518 -0.126701 1.71524 0.380103 2.22222L8.16771 10.0164L0.380103 17.8107C-0.126701 18.3176 -0.126701 19.1374 0.380103 19.6443C0.632556 19.8972 0.964493 20.0243 1.29619 20.0243C1.62789 20.0243 1.95959 19.8972 2.21228 19.6443L9.99989 11.8501L17.7877 19.6443C18.0404 19.8972 18.3721 20.0243 18.7038 20.0243C19.0355 20.0243 19.3672 19.8972 19.6199 19.6443C20.1267 19.1374 20.1267 18.3176 19.6199 17.8107L11.8323 10.0164Z" fill="black"/>
</svg>
