<svg width="30" height="30" viewBox="0 0 30 30" fill="none" xmlns="http://www.w3.org/2000/svg">
<circle cx="15" cy="15" r="15" fill="#FF6368"/>
<g clip-path="url(#clip0_8588_35181)">
<path d="M16.4658 15.0133L22.6959 8.77797C23.1014 8.37239 23.1014 7.71661 22.6959 7.31102C22.2907 6.90544 21.6354 6.90544 21.2302 7.31102L14.9999 13.5464L8.76983 7.31102C8.36438 6.90544 7.70934 6.90544 7.30408 7.31102C6.89864 7.71661 6.89864 8.37239 7.30408 8.77797L13.5342 15.0133L7.30408 21.2487C6.89864 21.6543 6.89864 22.3101 7.30408 22.7157C7.50604 22.918 7.77159 23.0196 8.03695 23.0196C8.30232 23.0196 8.56768 22.918 8.76983 22.7157L14.9999 16.4803L21.2302 22.7157C21.4323 22.918 21.6977 23.0196 21.9631 23.0196C22.2284 23.0196 22.4938 22.918 22.6959 22.7157C23.1014 22.3101 23.1014 21.6543 22.6959 21.2487L16.4658 15.0133Z" fill="white"/>
</g>
<defs>
<clipPath id="clip0_8588_35181">
<rect width="16" height="16" fill="white" transform="translate(7 7)"/>
</clipPath>
</defs>
</svg>
