<svg width="20" height="20" viewBox="0 0 20 20" fill="none" xmlns="http://www.w3.org/2000/svg">
<path d="M15.7195 13.6172L13.6949 12.2027C13.4303 12.0184 13.1206 11.9209 12.7998 11.9209C12.2896 11.9209 11.8108 12.1711 11.519 12.5898L11.049 13.2632C10.2614 12.7351 9.38217 11.9975 8.54446 11.1599C7.70706 10.3222 6.96945 9.44318 6.44119 8.65552L7.11441 8.18585C7.45773 7.94675 7.68661 7.58893 7.75955 7.17786C7.83218 6.76755 7.74063 6.35266 7.50137 6.00919L6.08719 3.9848C5.68893 3.41504 4.93576 3.16571 4.3016 3.40024C4.11667 3.46875 3.94455 3.55252 3.77518 3.65857L3.49533 3.85571C3.42575 3.91004 3.36105 3.96924 3.2988 4.03134C2.95761 4.37253 2.7153 4.80405 2.57919 5.3143C1.99631 7.49906 3.44009 10.802 6.17142 13.5331C8.46512 15.8268 11.2206 17.2519 13.3629 17.252H13.3632C13.7297 17.252 14.0755 17.2093 14.3907 17.1252C14.9004 16.989 15.3319 16.7469 15.6731 16.4058C15.7353 16.3437 15.7948 16.2788 15.8583 16.1964L16.0551 15.9152C16.1522 15.76 16.2361 15.5876 16.3042 15.4028C16.5425 14.759 16.3023 14.0248 15.7195 13.6172Z" fill="#787878"/>
<path d="M17.2363 2.74805H9.73633C9.5636 2.74805 9.42383 2.88797 9.42383 3.06055V7.43555C9.42383 7.60812 9.5636 7.74805 9.73633 7.74805H10.8456L11.5912 9.33603C11.6428 9.44574 11.7529 9.51578 11.8741 9.51578C11.9952 9.51578 12.1054 9.44574 12.157 9.33618L12.9028 7.74805H17.2363C17.4091 7.74805 17.5488 7.60812 17.5488 7.43555V3.06055C17.5488 2.88797 17.4091 2.74805 17.2363 2.74805ZM15.6543 6.18555H11.3184C11.1456 6.18555 11.0059 6.04562 11.0059 5.87305C11.0059 5.70047 11.1456 5.56055 11.3184 5.56055H15.6543C15.827 5.56055 15.9668 5.70047 15.9668 5.87305C15.9668 6.04562 15.827 6.18555 15.6543 6.18555ZM15.6543 4.93555H11.3184C11.1456 4.93555 11.0059 4.79562 11.0059 4.62305C11.0059 4.45047 11.1456 4.31055 11.3184 4.31055H15.6543C15.827 4.31055 15.9668 4.45047 15.9668 4.62305C15.9668 4.79562 15.827 4.93555 15.6543 4.93555Z" fill="#787878"/>
</svg>
