<svg width="20" height="20" viewBox="0 0 20 20" fill="none" xmlns="http://www.w3.org/2000/svg">
<path d="M7.70828 0H1.45828C0.654144 0 0 0.654144 0 1.45828V5.20828C0 6.01257 0.654144 6.66672 1.45828 6.66672H7.70828C8.51257 6.66672 9.16672 6.01257 9.16672 5.20828V1.45828C9.16672 0.654144 8.51257 0 7.70828 0Z" fill="white"/>
<path d="M7.70828 8.33398H1.45828C0.654144 8.33398 0 8.98813 0 9.79242V18.5424C0 19.3466 0.654144 20.0007 1.45828 20.0007H7.70828C8.51257 20.0007 9.16672 19.3466 9.16672 18.5424V9.79242C9.16672 8.98813 8.51257 8.33398 7.70828 8.33398Z" fill="white"/>
<path d="M18.5419 13.334H12.2919C11.4876 13.334 10.8335 13.9881 10.8335 14.7924V18.5424C10.8335 19.3466 11.4876 20.0007 12.2919 20.0007H18.5419C19.3461 20.0007 20.0002 19.3466 20.0002 18.5424V14.7924C20.0002 13.9881 19.3461 13.334 18.5419 13.334Z" fill="white"/>
<path d="M18.5419 0H12.2919C11.4876 0 10.8335 0.654144 10.8335 1.45828V10.2083C10.8335 11.0126 11.4876 11.6667 12.2919 11.6667H18.5419C19.3461 11.6667 20.0002 11.0126 20.0002 10.2083V1.45828C20.0002 0.654144 19.3461 0 18.5419 0V0Z" fill="white"/>
</svg>
