<svg width="50" height="50" viewBox="0 0 50 50" fill="none" xmlns="http://www.w3.org/2000/svg">
<circle cx="25" cy="25" r="25" fill="white"/>
<g clip-path="url(#clip0_2605_30195)">
<path d="M24.1056 8.71964C26.7587 8.57455 29.4477 9.07953 31.8563 10.2043C35.3404 11.81 38.2168 14.6905 39.8128 18.1796C41.2325 21.2361 41.6488 24.7406 41.0185 28.0493C40.4923 30.8559 39.2034 33.5139 37.3294 35.6676C35.606 37.6656 33.3889 39.2326 30.9316 40.1933C27.8453 41.399 24.3894 41.6315 21.1701 40.8496C17.6902 40.0249 14.5187 37.9974 12.2847 35.2083C10.5451 33.0476 9.36824 30.4368 8.91891 27.6987C8.46604 24.9892 8.70338 22.1651 9.62038 19.5754C10.3951 17.371 11.6551 15.3406 13.2827 13.6644C16.0957 10.7297 20.0439 8.92177 24.1056 8.71964ZM20.9757 12.3234C18.5036 13.1059 16.2802 14.6398 14.6561 16.6597C13.1207 18.5584 12.1248 20.8861 11.8157 23.3088C12.8446 23.3447 13.8609 23.1398 14.8709 22.9715C17.0154 22.5806 19.1607 22.1714 21.3328 21.9587C23.3668 21.7495 25.4192 21.701 27.4595 21.8531C29.9688 22.0221 32.4459 22.475 34.915 22.9334C35.9927 23.1159 37.0737 23.3412 38.1717 23.3152C37.8436 20.4917 36.5258 17.8056 34.5545 15.7653C32.8768 14.0208 30.7147 12.7453 28.3723 12.1333C25.9551 11.4973 23.3562 11.5614 20.9757 12.3234ZM24.6662 23.6483C23.2787 23.7652 22.0427 24.8301 21.7018 26.1766C21.4321 27.1858 21.6574 28.3149 22.3096 29.1333C22.9829 30.0122 24.1077 30.5264 25.2141 30.4433C26.0614 30.3989 26.8812 30.0108 27.465 29.3973C28.0426 28.7981 28.3898 27.9818 28.4096 27.1493C28.4526 26.0929 27.961 25.0337 27.1306 24.3801C26.448 23.823 25.5417 23.5567 24.6662 23.6483ZM11.7325 25.6597C11.8783 28.9798 13.3405 32.2172 15.7329 34.5231C16.6978 33.5441 17.0739 32.0658 16.8091 30.7305C16.6837 30.0607 16.2992 29.4867 16.0118 28.8805C15.6815 28.2804 15.4449 27.6156 14.98 27.0993C14.1652 26.1922 12.9531 25.6506 11.7325 25.6597ZM34.6137 27.6641C34.272 28.317 33.9446 28.9777 33.6058 29.6327C32.7339 31.1707 33.0326 33.2688 34.2692 34.5246C36.6574 32.2146 38.1225 28.9803 38.2695 25.6597C36.8245 25.6527 35.3545 26.4055 34.6137 27.6641ZM21.4877 32.9272C20.9278 33.0025 20.3806 33.2822 20.0566 33.7555C19.6537 34.3287 19.634 35.0944 19.8566 35.7416C20.0425 36.3994 20.2615 37.0852 20.7517 37.5846C23.3302 38.496 26.2016 38.5299 28.8151 37.7354C28.9984 37.6669 29.2285 37.655 29.3484 37.4811C29.6153 37.1402 29.8314 36.757 29.9589 36.3423C30.1006 35.8675 30.2899 35.3936 30.2857 34.8908C30.2922 34.3062 30.0321 33.7125 29.5624 33.3562C29.1511 33.0314 28.6194 32.8962 28.101 32.8983C26.2233 32.8977 24.3457 32.8983 22.4681 32.8983C22.1413 32.9004 21.8124 32.8813 21.4877 32.9272Z" fill="#2257AA"/>
<path d="M24.7754 25.1629C25.2987 25.085 25.8558 25.2884 26.2012 25.691C26.5501 26.0761 26.6828 26.6393 26.5543 27.1408C26.4118 27.7106 25.9349 28.1784 25.3621 28.3082C24.8545 28.4254 24.2907 28.2798 23.9135 27.9177C23.4548 27.5049 23.2797 26.8095 23.4892 26.2289C23.6751 25.6698 24.1923 25.2425 24.7754 25.1629Z" fill="#2257AA"/>
</g>
<defs>
<clipPath id="clip0_2605_30195">
<rect width="32.6087" height="32.6087" fill="white" transform="translate(8.69568 8.69531)"/>
</clipPath>
</defs>
</svg>
