<svg width="160" height="48" viewBox="0 0 160 48" fill="none" xmlns="http://www.w3.org/2000/svg">
<rect x="0.5" y="0.5" width="47" height="47" rx="9.5" fill="white" stroke="#2257AA"/>
<path d="M12.6917 12.6723C13.8114 12.6723 14.719 11.7659 14.719 10.6477C14.719 9.52951 13.8114 8.62305 12.6917 8.62305C11.5721 8.62305 10.6644 9.52951 10.6644 10.6477C10.6644 11.7659 11.5721 12.6723 12.6917 12.6723Z" fill="#2257AA"/>
<path d="M10.2332 26.9258C9.04814 26.9258 8.08734 27.8853 8.08734 29.0689C8.08734 30.2471 9.04249 31.2119 10.2332 31.2119C11.4099 31.2119 12.3792 30.26 12.3792 29.0689C12.3792 27.8852 11.4184 26.9258 10.2332 26.9258Z" fill="#2257AA"/>
<path d="M34.6439 9.68359H19.0365C18.6475 9.68359 18.3322 9.9985 18.3322 10.387V15.8679L19.1134 15.3836C19.3121 15.2602 19.5244 15.1771 19.7408 15.1314V11.0904H33.9395V21.2353H19.7409V19.5939L18.3322 20.4674V21.9388C18.3322 22.3273 18.6475 22.6422 19.0365 22.6422H34.6439C35.0329 22.6422 35.3482 22.3273 35.3482 21.9388V10.387C35.3482 9.9985 35.0329 9.68359 34.6439 9.68359Z" fill="#2257AA"/>
<path d="M24.4037 13.5869C24.2184 13.3522 23.8778 13.3121 23.6428 13.497L21.2167 15.4074C21.4484 15.5587 21.6516 15.7612 21.8072 16.0114C21.8513 16.0823 21.8896 16.1551 21.9236 16.229L24.3138 14.3468C24.5488 14.1618 24.589 13.8216 24.4037 13.5869Z" fill="#2257AA"/>
<path d="M20.9767 16.5295C20.6917 16.0712 20.0888 15.9303 19.6298 16.2148L17.6487 17.4432C17.6405 15.8025 17.6449 16.6732 17.6396 15.6166C17.6332 14.3483 16.5948 13.3164 15.3248 13.3164H14.3625C13.5403 15.4459 13.8052 14.6554 13.1073 16.4629L13.4008 15.1866C13.4211 15.091 13.4064 14.9913 13.3592 14.9058L12.9616 14.1835L13.3145 13.5426C13.3671 13.4469 13.2977 13.3298 13.1884 13.3298H12.219C12.1098 13.3298 12.0403 13.4469 12.093 13.5426L12.4466 14.1848L12.0482 14.9084C12.002 14.9924 11.9869 15.0901 12.0055 15.184L12.2598 16.4629C12.1227 16.1079 11.1752 13.6539 11.0449 13.3164H10.0631C8.79314 13.3164 7.7547 14.3482 7.74829 15.6166L7.71217 22.7934C7.7095 23.3329 8.14518 23.7724 8.68541 23.7752C8.68713 23.7752 8.68871 23.7752 8.69043 23.7752C9.22831 23.7752 9.66576 23.341 9.66843 22.8032L9.70455 15.6264C9.70455 15.6253 9.70455 15.6241 9.70455 15.6231C9.70607 15.5165 9.79336 15.4312 9.90001 15.432C10.0067 15.4328 10.0926 15.5194 10.0926 15.6259L10.0931 25.7939C10.9885 25.7559 11.8182 26.0785 12.4407 26.6449V22.6782H12.9475V27.2285C13.3044 27.7527 13.5133 28.3851 13.5133 29.0655C13.5133 29.6853 13.3399 30.2655 13.0392 30.7602C13.3481 30.7616 13.6481 30.8026 13.9342 30.8782C14.3199 30.544 14.7839 30.298 15.2951 30.1721C15.2951 12.4621 15.2738 23.4121 15.2738 15.6272C15.2738 15.5145 15.3652 15.423 15.4781 15.4228C15.591 15.4226 15.6828 15.5136 15.6833 15.6264C15.6867 16.3116 15.6975 18.4534 15.7012 19.199C15.703 19.5527 15.8961 19.8779 16.2061 20.049C16.5155 20.2198 16.8939 20.2109 17.1954 20.024L20.6617 17.8746C21.1206 17.5901 21.2617 16.9878 20.9767 16.5295Z" fill="#2257AA"/>
<path d="M32.2236 31.2276C33.4087 31.2276 34.3695 30.2681 34.3695 29.0845C34.3695 27.9009 33.4087 26.9414 32.2236 26.9414C31.0384 26.9414 30.0777 27.9009 30.0777 29.0845C30.0777 30.2681 31.0384 31.2276 32.2236 31.2276Z" fill="#2257AA"/>
<path d="M37.446 34.3508C37.4393 33.0083 36.3401 31.916 34.9958 31.916C34.4157 31.916 30.1341 31.916 29.6137 31.916C29.8446 32.3641 29.9758 32.8714 29.9758 33.4091C29.9758 33.98 29.8231 34.5764 29.4997 35.107C30.6998 35.1555 31.7513 35.7987 32.3658 36.7489H34.9419V34.3758C34.9419 34.2591 35.0346 34.1633 35.1514 34.1593C35.2683 34.1553 35.3674 34.2446 35.3753 34.3611C35.3753 34.3611 35.3753 34.3611 35.3753 34.3612L35.3873 36.7489H37.4582L37.446 34.3508Z" fill="#2257AA"/>
<path d="M23.4182 33.4091C23.4182 32.862 23.554 32.3463 23.7924 31.8926C22.3952 31.8926 20.7547 31.8926 19.0143 31.8926C19.2347 32.3325 19.3595 32.8281 19.3595 33.3526C19.3595 33.9689 19.1862 34.5525 18.8853 35.0473C19.873 35.052 20.7842 35.4618 21.4426 36.142C22.0808 35.5193 22.9508 35.1331 23.9079 35.128C23.5756 34.5921 23.4182 33.9905 23.4182 33.4091Z" fill="#2257AA"/>
<path d="M21.7874 26.9238C20.6023 26.9238 19.6415 27.8832 19.6415 29.0669C19.6415 30.2479 20.6005 31.21 21.7874 31.21C22.963 31.21 23.9333 30.2612 23.9333 29.0669C23.9333 27.8845 22.9744 26.9238 21.7874 26.9238Z" fill="#2257AA"/>
<path d="M12.7996 33.345C12.7996 32.8218 12.9238 32.3273 13.1431 31.8881C13.0507 31.8835 13.4397 31.885 7.46246 31.885C6.12503 31.885 5.01898 32.9715 5.01219 34.3198L5 36.7414C5.94633 36.7414 6.13671 36.7414 7.07084 36.7414L7.08297 34.3302C7.0836 34.2108 7.18079 34.1145 7.30027 34.1149C7.41974 34.1152 7.51636 34.212 7.51636 34.3313V36.7414H10.4192C11.0448 35.7426 12.1205 35.1154 13.2913 35.0672C12.9735 34.5561 12.7996 33.9663 12.7996 33.345Z" fill="#2257AA"/>
<path d="M31.7996 38.6633C31.793 37.3206 30.6938 36.2284 29.3494 36.2284C29.2069 36.2284 24.0824 36.2284 23.9213 36.2284C22.577 36.2284 21.4073 37.3205 21.4005 38.6631L21.3831 38.6067C21.3764 37.2694 20.2823 36.1719 18.9329 36.1719C17.3748 36.1719 15.137 36.1719 13.5047 36.1719C12.1604 36.1719 10.9908 37.2641 10.984 38.6067L10.9718 41.0847H13.0426L13.0548 38.6171C13.0553 38.5142 13.139 38.4313 13.2419 38.4315C13.3448 38.4318 13.428 38.5152 13.428 38.618V41.0847C14.6419 41.0847 17.7755 41.0847 18.9124 41.0847V38.618C18.9124 38.5079 19.0016 38.4187 19.1118 38.4184C19.2219 38.4181 19.3117 38.5069 19.3122 38.617L19.3244 41.0847C19.7477 41.0847 23.0214 41.0847 23.4592 41.0847L23.4713 38.6735C23.4713 38.6735 23.4713 38.6735 23.4713 38.6734C23.4719 38.5706 23.5556 38.4878 23.6585 38.488C23.7614 38.4883 23.8446 38.5717 23.8446 38.6745V41.0847C25.0584 41.0847 28.192 41.0847 29.3289 41.0847V38.6745C29.3289 38.5644 29.4181 38.4752 29.5283 38.4748C29.6385 38.4746 29.7282 38.5634 29.7288 38.6735L29.7409 41.0846H31.8118L31.7996 38.6633Z" fill="#2257AA"/>
<path d="M16.148 35.514C17.347 35.514 18.319 34.5433 18.319 33.3459C18.319 32.1484 17.347 31.1777 16.148 31.1777C14.949 31.1777 13.9771 32.1484 13.9771 33.3459C13.9771 34.5433 14.949 35.514 16.148 35.514Z" fill="#2257AA"/>
<path d="M26.6923 35.5706C27.8912 35.5706 28.8632 34.5999 28.8632 33.4025C28.8632 32.2051 27.8912 31.2344 26.6923 31.2344C25.4933 31.2344 24.5213 32.2051 24.5213 33.4025C24.5213 34.5999 25.4933 35.5706 26.6923 35.5706Z" fill="#2257AA"/>
<circle cx="35.8373" cy="13.4918" r="6.49176" fill="white"/>
<g clip-path="url(#clip0_327_37412)">
<path d="M35.8373 7C32.2579 7 29.3455 9.91234 29.3455 13.4918C29.3455 17.0712 32.2579 19.9835 35.8373 19.9835C39.4167 19.9835 42.329 17.0712 42.329 13.4918C42.329 9.91234 39.4167 7 35.8373 7ZM39.4655 11.7834L35.3166 15.8997C35.0726 16.1438 34.6821 16.1601 34.4218 15.916L32.2253 13.9148C31.965 13.6707 31.9487 13.264 32.1765 13.0037C32.4206 12.7433 32.8273 12.7271 33.0876 12.9711L34.8285 14.5656L38.5381 10.856C38.7984 10.5957 39.2052 10.5957 39.4655 10.856C39.7258 11.1163 39.7258 11.5231 39.4655 11.7834Z" fill="#2DBB55"/>
</g>
<rect x="56.5" y="0.5" width="47" height="47" rx="9.5" fill="white" stroke="#2257AA"/>
<g clip-path="url(#clip1_327_37412)">
<path d="M77.3391 8.64727C79.9799 8.50284 82.6566 9.0055 85.0542 10.1251C88.5223 11.7234 91.3855 14.5907 92.9741 18.0637C94.3873 21.1062 94.8016 24.5946 94.1743 27.8881C93.6505 30.6818 92.3675 33.3275 90.5021 35.4713C88.7866 37.4602 86.5797 39.02 84.1337 39.9763C81.0616 41.1764 77.6216 41.4078 74.4171 40.6296C70.9532 39.8087 67.7963 37.7904 65.5725 35.0142C63.8409 32.8634 62.6695 30.2646 62.2222 27.5391C61.7714 24.8421 62.0077 22.0309 62.9205 19.4532C63.6916 17.2589 64.9458 15.2378 66.5659 13.5693C69.366 10.648 73.2961 8.84846 77.3391 8.64727ZM74.2236 12.2345C71.7629 13.0134 69.5496 14.5402 67.933 16.5508C66.4047 18.4408 65.4134 20.7578 65.1056 23.1694C66.1299 23.2051 67.1415 23.0011 68.1468 22.8336C70.2815 22.4445 72.417 22.0372 74.579 21.8255C76.6037 21.6173 78.6466 21.5689 80.6776 21.7203C83.1753 21.8886 85.641 22.3394 88.0988 22.7957C89.1716 22.9773 90.2476 23.2016 91.3406 23.1757C91.0139 20.3652 89.7022 17.6914 87.74 15.6605C86.07 13.924 83.9178 12.6544 81.5862 12.0452C79.1801 11.4122 76.5931 11.476 74.2236 12.2345ZM77.8971 23.5073C76.516 23.6237 75.2857 24.6836 74.9464 26.024C74.6779 27.0286 74.9022 28.1524 75.5514 28.9671C76.2216 29.8419 77.3412 30.3538 78.4425 30.271C79.2859 30.2269 80.1019 29.8406 80.6831 29.2299C81.258 28.6334 81.6036 27.8209 81.6233 26.9922C81.6661 25.9407 81.1767 24.8863 80.3502 24.2357C79.6707 23.6812 78.7686 23.4162 77.8971 23.5073ZM65.0229 25.5095C65.168 28.8143 66.6234 32.0368 69.0049 34.3321C69.9654 33.3576 70.3397 31.8861 70.0761 30.557C69.9513 29.8902 69.5686 29.3189 69.2825 28.7154C68.9537 28.1182 68.7182 27.4563 68.2555 26.9424C67.4444 26.0395 66.2378 25.5004 65.0229 25.5095ZM87.7989 27.5046C87.4588 28.1545 87.1329 28.8122 86.7956 29.4642C85.9277 30.9952 86.2251 33.0836 87.4559 34.3336C89.8332 32.0342 91.2915 28.8148 91.4379 25.5095C89.9995 25.5025 88.5363 26.2518 87.7989 27.5046ZM74.7332 32.7435C74.1759 32.8185 73.6312 33.0969 73.3087 33.568C72.9077 34.1386 72.8881 34.9008 73.1096 35.545C73.2947 36.1998 73.5127 36.8824 74.0006 37.3795C76.5672 38.2868 79.4255 38.3205 82.027 37.5297C82.2094 37.4615 82.4385 37.4496 82.5578 37.2765C82.8235 36.9372 83.0386 36.5558 83.1655 36.143C83.3065 35.6703 83.495 35.1986 83.4908 34.6981C83.4972 34.1162 83.2384 33.5252 82.7708 33.1706C82.3614 32.8473 81.8321 32.7127 81.3161 32.7148C79.4471 32.7142 77.5781 32.7148 75.7091 32.7148C75.3838 32.7168 75.0564 32.6979 74.7332 32.7435Z" fill="#2257AA"/>
<path d="M78.0059 25.0144C78.5267 24.9368 79.0813 25.1394 79.425 25.5401C79.7724 25.9234 79.9045 26.484 79.7766 26.9832C79.6347 27.5504 79.16 28.016 78.5899 28.1452C78.0846 28.2619 77.5234 28.117 77.1479 27.7565C76.6913 27.3456 76.517 26.6534 76.7255 26.0755C76.9106 25.519 77.4255 25.0936 78.0059 25.0144Z" fill="#2257AA"/>
</g>
<circle cx="91.2113" cy="13.4918" r="6.49176" fill="white"/>
<g clip-path="url(#clip2_327_37412)">
<path d="M91.2035 7C87.6241 7 84.7117 9.91234 84.7117 13.4918C84.7117 17.0712 87.6241 19.9835 91.2035 19.9835C94.7829 19.9835 97.6953 17.0712 97.6953 13.4918C97.6953 9.91234 94.7829 7 91.2035 7ZM94.8317 11.7834L90.6829 15.8997C90.4388 16.1438 90.0483 16.1601 89.788 15.916L87.5915 13.9148C87.3312 13.6707 87.3149 13.264 87.5427 13.0037C87.7868 12.7433 88.1935 12.7271 88.4538 12.9711L90.1947 14.5656L93.9043 10.856C94.1646 10.5957 94.5714 10.5957 94.8317 10.856C95.092 11.1163 95.092 11.5231 94.8317 11.7834Z" fill="#2DBB55"/>
</g>
<rect x="112.5" y="0.5" width="47" height="47" rx="9.5" fill="white" stroke="#D1D0E2"/>
<g clip-path="url(#clip3_327_37412)">
<path fill-rule="evenodd" clip-rule="evenodd" d="M146.941 33.9659H149.051V34.6151H146.941V33.9659ZM146.941 32.6676H149.862V33.3168H146.941V32.6676ZM146.941 31.3692H149.862V32.0184H146.941V31.3692ZM145.642 30.2332V36.7249C145.642 37.2118 146.129 37.6987 146.616 37.6987H150.349C150.836 37.6987 151.323 37.2118 151.323 36.7249V30.2332C151.323 29.7463 150.836 29.2594 150.349 29.2594H146.616C145.967 29.2594 145.642 29.7463 145.642 30.2332ZM139.151 30.2332V36.7249C139.151 37.2118 139.638 37.6987 140.124 37.6987H143.857C144.344 37.6987 144.831 37.2118 144.831 36.7249V30.2332C144.831 29.7463 144.344 29.2594 143.857 29.2594H140.124C139.638 29.2594 139.151 29.7463 139.151 30.2332ZM138.826 27.9611H151.485C151.972 27.9611 152.459 28.4479 152.459 28.9348V37.861C152.459 38.3479 151.972 38.8348 151.485 38.8348H147.428C147.103 38.8348 146.779 38.9971 146.616 39.3216C146.454 39.4839 146.292 39.4839 146.129 39.4839H144.02C143.857 39.4839 143.695 39.3216 143.533 39.3216C143.37 39.1594 143.046 38.8348 142.721 38.8348H138.664C138.177 38.8348 137.69 38.3479 137.69 37.861V28.9348C137.852 28.4479 138.339 27.9611 138.826 27.9611ZM138.339 23.2545C140.124 23.2545 141.91 23.5791 143.533 24.066C145.642 24.5529 147.59 25.5267 149.375 26.825H137.528C137.041 26.825 136.554 27.3119 136.554 27.7988V35.102C136.554 35.5889 136.067 36.0758 135.58 36.0758H128.764C128.115 36.0758 127.628 35.2643 127.952 34.6151C128.277 33.9659 128.439 32.9922 128.277 32.1807C127.952 30.8824 126.816 29.9086 125.518 29.7463V29.584C125.518 28.6102 126.005 27.6365 126.816 26.9873C128.764 25.6889 130.874 24.5529 132.984 23.9037C134.769 23.5791 136.554 23.2545 138.339 23.2545ZM120.325 19.3595C120.487 19.3595 120.811 19.3595 120.811 19.6841L124.22 29.9086C124.382 30.2332 124.707 30.5578 125.031 30.5578C126.167 30.5578 127.303 31.3692 127.466 32.5053C127.79 33.9659 126.979 35.2643 125.518 35.5889H125.356C123.895 35.9135 123.084 36.2381 122.434 33.6414C121.948 31.8561 122.272 31.3692 122.921 30.8824C123.246 30.7201 123.408 30.2332 123.246 29.7463L120 19.8464C120 19.6841 120 19.3595 120.325 19.3595ZM138.339 8.97266C141.91 8.97266 144.669 11.8939 144.669 15.3021C144.669 18.7103 141.747 21.6316 138.339 21.6316C134.931 21.6316 131.847 18.7103 131.847 15.3021C131.847 11.8939 134.769 8.97266 138.339 8.97266Z" fill="#7A7A7A"/>
</g>
<defs>
<clipPath id="clip0_327_37412">
<rect width="12.9835" height="12.9835" fill="white" transform="translate(29.3455 7)"/>
</clipPath>
<clipPath id="clip1_327_37412">
<rect width="32.4588" height="32.4588" fill="white" transform="translate(62 8.62305)"/>
</clipPath>
<clipPath id="clip2_327_37412">
<rect width="12.9835" height="12.9835" fill="white" transform="translate(84.7195 7)"/>
</clipPath>
<clipPath id="clip3_327_37412">
<rect width="32.4588" height="32.4588" fill="white" transform="translate(120 8)"/>
</clipPath>
</defs>
</svg>
