<svg width="20" height="20" viewBox="0 0 20 20" fill="none" xmlns="http://www.w3.org/2000/svg">
<g clip-path="url(#clip0_327_34716)">
<path d="M19.5844 14.9977L12.5194 2.01036C11.3843 0.09938 8.61722 0.096841 7.48058 2.01036L0.415894 14.9977C-0.744497 16.9504 0.660386 19.4231 2.93472 19.4231H17.065C19.3375 19.4231 20.7448 16.9524 19.5844 14.9977ZM10 17.0794C9.35398 17.0794 8.82812 16.5535 8.82812 15.9075C8.82812 15.2615 9.35398 14.7356 10 14.7356C10.646 14.7356 11.1719 15.2615 11.1719 15.9075C11.1719 16.5535 10.646 17.0794 10 17.0794ZM11.1719 12.3919C11.1719 13.0379 10.646 13.5638 10 13.5638C9.35398 13.5638 8.82812 13.0379 8.82812 12.3919V6.53251C8.82812 5.88649 9.35398 5.36063 10 5.36063C10.646 5.36063 11.1719 5.88649 11.1719 6.53251V12.3919Z" fill="#F64242"/>
</g>
<defs>
<clipPath id="clip0_327_34716">
<rect width="20" height="20" fill="white"/>
</clipPath>
</defs>
</svg>
