<svg width="50" height="50" viewBox="0 0 50 50" fill="none" xmlns="http://www.w3.org/2000/svg">
<circle cx="25" cy="25" r="25" fill="white"/>
<rect width="32.6087" height="32.6087" transform="translate(8.69568 8.69531)" fill="white"/>
<g clip-path="url(#clip0_2605_30207)">
<path fill-rule="evenodd" clip-rule="evenodd" d="M35.7609 34.7815H37.8805V35.4337H35.7609V34.7815ZM35.7609 33.4772H38.6957V34.1294H35.7609V33.4772ZM35.7609 32.1728H38.6957V32.825H35.7609V32.1728ZM34.4565 31.0315V37.5533C34.4565 38.0424 34.9457 38.5315 35.4348 38.5315H39.1848C39.6739 38.5315 40.1631 38.0424 40.1631 37.5533V31.0315C40.1631 30.5424 39.6739 30.0533 39.1848 30.0533H35.4348C34.7826 30.0533 34.4565 30.5424 34.4565 31.0315ZM27.9348 31.0315V37.5533C27.9348 38.0424 28.4239 38.5315 28.9131 38.5315H32.6631C33.1522 38.5315 33.6413 38.0424 33.6413 37.5533V31.0315C33.6413 30.5424 33.1522 30.0533 32.6631 30.0533H28.9131C28.4239 30.0533 27.9348 30.5424 27.9348 31.0315ZM27.6087 28.7489H40.3261C40.8152 28.7489 41.3044 29.2381 41.3044 29.7272V38.6946C41.3044 39.1837 40.8152 39.6728 40.3261 39.6728H36.25C35.9239 39.6728 35.5979 39.8359 35.4348 40.162C35.2718 40.325 35.1087 40.325 34.9457 40.325H32.8261C32.6631 40.325 32.5 40.162 32.337 40.162C32.1739 39.9989 31.8479 39.6728 31.5218 39.6728H27.4457C26.9565 39.6728 26.4674 39.1837 26.4674 38.6946V29.7272C26.6305 29.2381 27.1196 28.7489 27.6087 28.7489ZM27.1196 24.0207C28.9131 24.0207 30.7065 24.3468 32.337 24.8359C34.4565 25.325 36.4131 26.3033 38.2065 27.6076H26.3044C25.8152 27.6076 25.3261 28.0968 25.3261 28.5859V35.9229C25.3261 36.412 24.837 36.9011 24.3479 36.9011H17.5C16.8479 36.9011 16.3587 36.0859 16.6848 35.4337C17.0109 34.7815 17.1739 33.8033 17.0109 32.9881C16.6848 31.6837 15.5435 30.7055 14.2392 30.5424V30.3794C14.2392 29.4011 14.7283 28.4228 15.5435 27.7707C17.5 26.4663 19.6196 25.325 21.7392 24.6729C23.5326 24.3468 25.3261 24.0207 27.1196 24.0207ZM9.02177 20.1076C9.18481 20.1076 9.5109 20.1076 9.5109 20.4337L12.9348 30.7055C13.0979 31.0315 13.4239 31.3576 13.75 31.3576C14.8913 31.3576 16.0326 32.1729 16.1957 33.3142C16.5218 34.7815 15.7065 36.0859 14.2392 36.412H14.0761C12.6087 36.7381 11.7935 37.0642 11.1413 34.4555C10.6522 32.662 10.9783 32.1729 11.6305 31.6837C11.9565 31.5207 12.1196 31.0315 11.9565 30.5424L8.69568 20.5968C8.69568 20.4337 8.69568 20.1076 9.02177 20.1076ZM27.1196 9.67285C30.7065 9.67285 33.4783 12.6076 33.4783 16.0315C33.4783 19.4555 30.5435 22.3902 27.1196 22.3902C23.6957 22.3902 20.5979 19.4555 20.5979 16.0315C20.5979 12.6076 23.5326 9.67285 27.1196 9.67285Z" fill="#2257AA"/>
</g>
<defs>
<clipPath id="clip0_2605_30207">
<rect width="32.6087" height="32.6087" fill="white" transform="translate(8.69568 8.69531)"/>
</clipPath>
</defs>
</svg>
