<svg width="20" height="20" viewBox="0 0 20 20" fill="none" xmlns="http://www.w3.org/2000/svg">
<path d="M14.1667 4.16602C14.1667 3.67156 14.3133 3.18821 14.588 2.77709C14.8627 2.36597 15.2532 2.04554 15.71 1.85632C16.1668 1.6671 16.6695 1.61759 17.1544 1.71405C17.6394 1.81052 18.0848 2.04862 18.4345 2.39825C18.7841 2.74788 19.0222 3.19334 19.1187 3.67829C19.2151 4.16324 19.1656 4.66591 18.9764 5.12273C18.7872 5.57954 18.4668 5.96999 18.0556 6.24469C17.6445 6.51939 17.1612 6.66602 16.6667 6.66602C16.0037 6.66602 15.3678 6.40263 14.8989 5.93378C14.4301 5.46494 14.1667 4.82906 14.1667 4.16602ZM1.66671 4.99935H11.6667C11.8877 4.99935 12.0997 4.91155 12.256 4.75527C12.4122 4.59899 12.5 4.38703 12.5 4.16602C12.5 3.945 12.4122 3.73304 12.256 3.57676C12.0997 3.42048 11.8877 3.33268 11.6667 3.33268H1.66671C1.44569 3.33268 1.23373 3.42048 1.07745 3.57676C0.921171 3.73304 0.833374 3.945 0.833374 4.16602C0.833374 4.38703 0.921171 4.59899 1.07745 4.75527C1.23373 4.91155 1.44569 4.99935 1.66671 4.99935ZM6.66671 7.49935C6.15092 7.5008 5.64821 7.66175 5.22749 7.96013C4.80677 8.25852 4.48863 8.67973 4.31671 9.16602H1.66671C1.44569 9.16602 1.23373 9.25381 1.07745 9.41009C0.921171 9.56637 0.833374 9.77834 0.833374 9.99935C0.833374 10.2204 0.921171 10.4323 1.07745 10.5886C1.23373 10.7449 1.44569 10.8327 1.66671 10.8327H4.31671C4.46958 11.2651 4.73846 11.6471 5.09391 11.9369C5.44936 12.2267 5.87769 12.4132 6.33201 12.4759C6.78633 12.5386 7.24915 12.4751 7.6698 12.2923C8.09045 12.1096 8.45273 11.8147 8.71699 11.4398C8.98126 11.065 9.13732 10.6247 9.16809 10.1671C9.19887 9.70951 9.10317 9.25226 8.89148 8.84541C8.6798 8.43856 8.36027 8.09778 7.96787 7.86037C7.57548 7.62296 7.12533 7.49806 6.66671 7.49935ZM18.3334 9.16602H11.6667C11.4457 9.16602 11.2337 9.25381 11.0775 9.41009C10.9212 9.56637 10.8334 9.77834 10.8334 9.99935C10.8334 10.2204 10.9212 10.4323 11.0775 10.5886C11.2337 10.7449 11.4457 10.8327 11.6667 10.8327H18.3334C18.5544 10.8327 18.7663 10.7449 18.9226 10.5886C19.0789 10.4323 19.1667 10.2204 19.1667 9.99935C19.1667 9.77834 19.0789 9.56637 18.9226 9.41009C18.7663 9.25381 18.5544 9.16602 18.3334 9.16602ZM8.33337 14.9994H1.66671C1.44569 14.9994 1.23373 15.0871 1.07745 15.2434C0.921171 15.3997 0.833374 15.6117 0.833374 15.8327C0.833374 16.0537 0.921171 16.2657 1.07745 16.4219C1.23373 16.5782 1.44569 16.666 1.66671 16.666H8.33337C8.55439 16.666 8.76635 16.5782 8.92263 16.4219C9.07891 16.2657 9.16671 16.0537 9.16671 15.8327C9.16671 15.6117 9.07891 15.3997 8.92263 15.2434C8.76635 15.0871 8.55439 14.9994 8.33337 14.9994ZM18.3334 14.9994H15.6834C15.4868 14.4433 15.1 13.9747 14.5913 13.6763C14.0826 13.3779 13.4848 13.269 12.9036 13.3687C12.3224 13.4684 11.7951 13.7704 11.415 14.2213C11.0348 14.6722 10.8264 15.2429 10.8264 15.8327C10.8264 16.4224 11.0348 16.9932 11.415 17.4441C11.7951 17.895 12.3224 18.197 12.9036 18.2967C13.4848 18.3964 14.0826 18.2874 14.5913 17.989C15.1 17.6906 15.4868 17.222 15.6834 16.666H18.3334C18.5544 16.666 18.7663 16.5782 18.9226 16.4219C19.0789 16.2657 19.1667 16.0537 19.1667 15.8327C19.1667 15.6117 19.0789 15.3997 18.9226 15.2434C18.7663 15.0871 18.5544 14.9994 18.3334 14.9994Z" fill="#2257AA"/>
</svg>
