<svg width="20" height="21" viewBox="0 0 20 21" fill="none" xmlns="http://www.w3.org/2000/svg">
<path d="M14.1663 4.68799C14.1663 4.19354 14.313 3.71019 14.5877 3.29906C14.8624 2.88794 15.2528 2.56751 15.7096 2.37829C16.1664 2.18907 16.6691 2.13956 17.1541 2.23603C17.639 2.33249 18.0845 2.57059 18.4341 2.92022C18.7837 3.26985 19.0218 3.71531 19.1183 4.20026C19.2148 4.68522 19.1653 5.18788 18.976 5.6447C18.7868 6.10151 18.4664 6.49196 18.0553 6.76666C17.6441 7.04137 17.1608 7.18799 16.6663 7.18799C16.0033 7.18799 15.3674 6.9246 14.8986 6.45576C14.4297 5.98692 14.1663 5.35103 14.1663 4.68799ZM1.66634 5.52132H11.6663C11.8874 5.52132 12.0993 5.43353 12.2556 5.27725C12.4119 5.12096 12.4997 4.909 12.4997 4.68799C12.4997 4.46698 12.4119 4.25501 12.2556 4.09873C12.0993 3.94245 11.8874 3.85466 11.6663 3.85466H1.66634C1.44533 3.85466 1.23337 3.94245 1.07709 4.09873C0.920805 4.25501 0.833008 4.46698 0.833008 4.68799C0.833008 4.909 0.920805 5.12096 1.07709 5.27725C1.23337 5.43353 1.44533 5.52132 1.66634 5.52132ZM6.66634 8.02132C6.15055 8.02277 5.64784 8.18372 5.22712 8.48211C4.8064 8.78049 4.48827 9.2017 4.31634 9.68799H1.66634C1.44533 9.68799 1.23337 9.77579 1.07709 9.93207C0.920805 10.0883 0.833008 10.3003 0.833008 10.5213C0.833008 10.7423 0.920805 10.9543 1.07709 11.1106C1.23337 11.2669 1.44533 11.3547 1.66634 11.3547H4.31634C4.46922 11.7871 4.7381 12.1691 5.09354 12.4589C5.44899 12.7487 5.87732 12.9352 6.33164 12.9978C6.78597 13.0605 7.24878 12.997 7.66943 12.8143C8.09009 12.6316 8.45237 12.3367 8.71663 11.9618C8.98089 11.587 9.13695 11.1467 9.16773 10.6891C9.1985 10.2315 9.10281 9.77424 8.89112 9.36739C8.67943 8.96054 8.3599 8.61976 7.96751 8.38234C7.57511 8.14493 7.12497 8.02004 6.66634 8.02132ZM18.333 9.68799H11.6663C11.4453 9.68799 11.2334 9.77579 11.0771 9.93207C10.9208 10.0883 10.833 10.3003 10.833 10.5213C10.833 10.7423 10.9208 10.9543 11.0771 11.1106C11.2334 11.2669 11.4453 11.3547 11.6663 11.3547H18.333C18.554 11.3547 18.766 11.2669 18.9223 11.1106C19.0785 10.9543 19.1663 10.7423 19.1663 10.5213C19.1663 10.3003 19.0785 10.0883 18.9223 9.93207C18.766 9.77579 18.554 9.68799 18.333 9.68799ZM8.33301 15.5213H1.66634C1.44533 15.5213 1.23337 15.6091 1.07709 15.7654C0.920805 15.9217 0.833008 16.1336 0.833008 16.3547C0.833008 16.5757 0.920805 16.7876 1.07709 16.9439C1.23337 17.1002 1.44533 17.188 1.66634 17.188H8.33301C8.55402 17.188 8.76598 17.1002 8.92226 16.9439C9.07854 16.7876 9.16634 16.5757 9.16634 16.3547C9.16634 16.1336 9.07854 15.9217 8.92226 15.7654C8.76598 15.6091 8.55402 15.5213 8.33301 15.5213ZM18.333 15.5213H15.683C15.4864 14.9653 15.0996 14.4967 14.5909 14.1983C14.0823 13.8999 13.4845 13.7909 12.9032 13.8907C12.322 13.9904 11.7947 14.2924 11.4146 14.7433C11.0345 15.1942 10.826 15.7649 10.826 16.3547C10.826 16.9444 11.0345 17.5152 11.4146 17.966C11.7947 18.4169 12.322 18.7189 12.9032 18.8187C13.4845 18.9184 14.0823 18.8094 14.5909 18.511C15.0996 18.2126 15.4864 17.744 15.683 17.188H18.333C18.554 17.188 18.766 17.1002 18.9223 16.9439C19.0785 16.7876 19.1663 16.5757 19.1663 16.3547C19.1663 16.1336 19.0785 15.9217 18.9223 15.7654C18.766 15.6091 18.554 15.5213 18.333 15.5213Z" fill="white"/>
</svg>
