<svg width="36" height="36" viewBox="0 0 36 36" fill="none" xmlns="http://www.w3.org/2000/svg">
<path d="M12 3H7.5C5.01472 3 3 5.01472 3 7.5V12C3 14.4853 5.01472 16.5 7.5 16.5H12C14.4853 16.5 16.5 14.4853 16.5 12V7.5C16.5 5.01472 14.4853 3 12 3Z" fill="#2257AA"/>
<path d="M28.5 3H24C21.5147 3 19.5 5.01472 19.5 7.5V12C19.5 14.4853 21.5147 16.5 24 16.5H28.5C30.9853 16.5 33 14.4853 33 12V7.5C33 5.01472 30.9853 3 28.5 3Z" fill="#2257AA"/>
<path d="M12 19.5H7.5C5.01472 19.5 3 21.5147 3 24V28.5C3 30.9853 5.01472 33 7.5 33H12C14.4853 33 16.5 30.9853 16.5 28.5V24C16.5 21.5147 14.4853 19.5 12 19.5Z" fill="#2257AA"/>
<path d="M28.5 19.5H24C21.5147 19.5 19.5 21.5147 19.5 24V28.5C19.5 30.9853 21.5147 33 24 33H28.5C30.9853 33 33 30.9853 33 28.5V24C33 21.5147 30.9853 19.5 28.5 19.5Z" fill="#2257AA"/>
</svg>
