<svg width="19" height="16" viewBox="0 0 19 16" fill="none" xmlns="http://www.w3.org/2000/svg">
<path d="M1.10383 1.40649C1.44343 1.05822 1.79351 0.719596 2.1415 0.378906C6.94065 5.12304 11.7461 9.86166 16.5473 14.6037C16.2014 14.943 15.857 15.2824 15.5111 15.6217C14.6062 14.7272 13.7019 13.832 12.7956 12.9389C10.2025 13.9755 7.14958 13.8086 4.69411 12.4851C2.70052 11.4382 1.1199 9.66787 0.289062 7.59822C0.920051 6.02856 1.98148 4.63753 3.32522 3.59477C2.58312 2.86718 1.84872 2.13132 1.10383 1.40649ZM5.52774 9.24649C6.06649 10.4437 7.23413 11.3403 8.54502 11.5499C9.38075 11.6982 10.2556 11.5534 11.0145 11.1851C10.6001 10.7727 10.1794 10.3665 9.76857 9.95063C9.04465 10.101 8.25504 9.93132 7.68554 9.45822C6.98397 8.90373 6.65765 7.95477 6.84492 7.09063C6.4592 6.65201 6.00919 6.25615 5.59762 5.83546C5.06166 6.88856 5.02602 8.17408 5.52774 9.24649Z" fill="#828282"/>
<path d="M5.99414 2.14346C8.73471 1.15173 11.9281 1.49794 14.3787 3.06346C16.09 4.12828 17.4302 5.74622 18.1793 7.59863C17.586 9.07104 16.6175 10.3924 15.3863 11.409C14.5932 10.6283 13.8036 9.84553 13.0105 9.06622C13.3165 8.28897 13.3836 7.41932 13.1691 6.61035C12.8798 5.45794 12.0378 4.45863 10.9449 3.96346C9.95477 3.50139 8.77315 3.46897 7.75714 3.87242C7.16248 3.30346 6.5825 2.71932 5.99414 2.14346Z" fill="#828282"/>
<path d="M9.09717 5.19669C10.1251 5.12565 11.1453 5.77807 11.5044 6.72979C11.6316 7.04703 11.6791 7.39048 11.6672 7.73048C10.8036 6.89324 9.94897 6.04634 9.09717 5.19669Z" fill="#828282"/>
</svg>
