<svg width="48" height="48" viewBox="0 0 48 48" fill="none" xmlns="http://www.w3.org/2000/svg">
<g filter="url(#filter0_d_327_21231)">
<circle cx="24" cy="20" r="20" fill="white"/>
</g>
<g clip-path="url(#clip0_327_21231)">
<path d="M29.893 15.3702H28.3649L27.7883 14.217C27.3316 13.3037 26.4136 12.7363 25.3925 12.7363H22.6078C21.5866 12.7363 20.6686 13.3037 20.212 14.217L19.6353 15.3702H18.1073C16.6303 15.3702 15.4287 16.5718 15.4287 18.0488V24.5834C15.4287 26.0604 16.6303 27.262 18.1073 27.262H29.893C31.37 27.262 32.5716 26.0604 32.5716 24.5834V18.0488C32.5716 16.5718 31.37 15.3702 29.893 15.3702ZM31.2323 24.5834C31.2323 25.3219 30.6315 25.9227 29.893 25.9227H18.1073C17.3688 25.9227 16.768 25.3219 16.768 24.5834V18.0488C16.768 17.3103 17.3688 16.7095 18.1073 16.7095H20.0492C20.3029 16.7095 20.5347 16.5662 20.6482 16.3393L21.4099 14.8159C21.6382 14.3593 22.0972 14.0756 22.6078 14.0756H25.3925C25.9031 14.0756 26.3621 14.3593 26.5904 14.8159L27.3521 16.3393C27.4655 16.5662 27.6974 16.7095 27.951 16.7095H29.893C30.6315 16.7095 31.2323 17.3103 31.2323 18.0488V24.5834ZM24.0001 17.3345C22.1785 17.3345 20.6966 18.8165 20.6966 20.6381C20.6966 22.4597 22.1785 23.9417 24.0001 23.9417C25.8217 23.9417 27.3037 22.4597 27.3037 20.6381C27.3037 18.8165 25.8217 17.3345 24.0001 17.3345ZM24.0001 22.6024C22.917 22.6024 22.0358 21.7212 22.0358 20.6381C22.0358 19.555 22.917 18.6738 24.0001 18.6738C25.0833 18.6738 25.9644 19.555 25.9644 20.6381C25.9644 21.7212 25.0833 22.6024 24.0001 22.6024Z" fill="#2257AA"/>
</g>
<defs>
<filter id="filter0_d_327_21231" x="0" y="0" width="48" height="48" filterUnits="userSpaceOnUse" color-interpolation-filters="sRGB">
<feFlood flood-opacity="0" result="BackgroundImageFix"/>
<feColorMatrix in="SourceAlpha" type="matrix" values="0 0 0 0 0 0 0 0 0 0 0 0 0 0 0 0 0 0 127 0" result="hardAlpha"/>
<feOffset dy="4"/>
<feGaussianBlur stdDeviation="2"/>
<feComposite in2="hardAlpha" operator="out"/>
<feColorMatrix type="matrix" values="0 0 0 0 0 0 0 0 0 0 0 0 0 0 0 0 0 0 0.25 0"/>
<feBlend mode="normal" in2="BackgroundImageFix" result="effect1_dropShadow_327_21231"/>
<feBlend mode="normal" in="SourceGraphic" in2="effect1_dropShadow_327_21231" result="shape"/>
</filter>
<clipPath id="clip0_327_21231">
<rect width="17.1429" height="17.1429" fill="white" transform="translate(15.4287 11.4277)"/>
</clipPath>
</defs>
</svg>
