<svg width="74" height="74" viewBox="0 0 74 74" fill="none" xmlns="http://www.w3.org/2000/svg">
<g clip-path="url(#clip0_327_21239)">
<path d="M65.6344 2.31641H8.36956C3.75363 2.31641 0 6.0688 0 10.6902V63.32C0 67.936 3.75363 71.6844 8.36956 71.6844H65.6342C70.2501 71.6844 73.9997 67.936 73.9997 63.32V10.6902C74 6.0688 70.2503 2.31641 65.6344 2.31641ZM47.8522 14.7698C52.316 14.7698 55.9361 18.3902 55.9361 22.8537C55.9361 27.3173 52.3157 30.9377 47.8522 30.9377C43.3871 30.9377 39.7682 27.3173 39.7682 22.8537C39.7682 18.3902 43.3871 14.7698 47.8522 14.7698ZM63.0096 63.9477H36.9993H12.1477C9.91505 63.9477 8.92072 62.3324 9.92719 60.3395L23.8007 32.8604C24.806 30.8678 26.7218 30.69 28.0785 32.4629L42.0289 50.6937C43.3856 52.4669 45.757 52.6177 47.3265 51.0291L50.7393 47.5732C52.3076 45.9847 54.6183 46.1813 55.8982 48.0097L64.7354 60.6331C66.0129 62.4642 65.2423 63.9477 63.0096 63.9477Z" fill="#A1A6BB"/>
</g>
<defs>
<clipPath id="clip0_327_21239">
<rect width="74" height="74" fill="white"/>
</clipPath>
</defs>
</svg>
