<svg width="20" height="20" viewBox="0 0 20 20" fill="none" xmlns="http://www.w3.org/2000/svg">
<g clip-path="url(#clip0_576_21744)">
<path d="M11.1244 15.5218C12.4323 14.4918 11.7045 12.3828 10.0391 12.3828C9.0698 12.3828 8.28125 13.1714 8.28125 14.1406C8.28125 14.7005 8.54465 15.1996 8.95371 15.5218C7.87422 15.9541 7.10938 17.0102 7.10938 18.2422V19.4141C7.10938 19.7377 7.37172 20 7.69531 20H12.3828C12.7064 20 12.9688 19.7377 12.9688 19.4141V18.2422C12.9688 17.0102 12.2039 15.9541 11.1244 15.5218Z" fill="white"/>
<path d="M18.1557 15.5218C19.4636 14.4918 18.7357 12.3828 17.0703 12.3828C16.1011 12.3828 15.3125 13.1714 15.3125 14.1406C15.3125 14.7005 15.5759 15.1996 15.985 15.5218C14.9055 15.9541 14.1406 17.0102 14.1406 18.2422V19.4141C14.1406 19.7377 14.403 20 14.7266 20H19.4141C19.7377 20 20 19.7377 20 19.4141V18.2422C20 17.0102 19.2352 15.9541 18.1557 15.5218Z" fill="white"/>
<path d="M12.9688 5.89844H14.1406V7.07031H12.9688V5.89844Z" fill="white"/>
<path d="M10.625 5.89844H11.7969V7.07031H10.625V5.89844Z" fill="white"/>
<path d="M11.669 3.55469L11.3726 4.72656H15.7344L15.4424 3.55469H11.669Z" fill="white"/>
<path d="M16.4844 7.07031V5.89855C14.6928 5.89836 15.5583 5.89848 15.3125 5.89844V7.07031H16.4844Z" fill="white"/>
<path d="M2.92969 4.72656C3.9005 4.72656 4.6875 3.93956 4.6875 2.96875C4.6875 1.99794 3.9005 1.21094 2.92969 1.21094C1.95887 1.21094 1.17188 1.99794 1.17188 2.96875C1.17188 3.93956 1.95887 4.72656 2.92969 4.72656Z" fill="white"/>
<path d="M19.4141 0H7.69531C7.37172 0 7.10938 0.262344 7.10938 0.585938V3.55469H7.14844C8.35801 3.55469 9.35641 4.47578 9.47934 5.65336C9.55738 5.28844 9.80559 4.98594 10.1368 4.83348L10.6448 2.82504C10.7106 2.565 10.9446 2.38281 11.2129 2.38281H15.9004C16.1694 2.38281 16.4039 2.56602 16.4689 2.82711L16.9684 4.83164C17.3737 5.01625 17.6562 5.42484 17.6562 5.89844V7.65625C17.6562 7.97984 17.3939 8.24219 17.0703 8.24219V8.82812C17.0703 9.15172 16.808 9.41406 16.4844 9.41406C16.1608 9.41406 15.8984 9.15172 15.8984 8.82812V8.24219H11.2109V8.82812C11.2109 9.15172 10.9486 9.41406 10.625 9.41406C10.3014 9.41406 10.0391 9.15172 10.0391 8.82812V8.24219C9.71547 8.24219 9.45312 7.97984 9.45312 7.65625V6.32195C9.25312 7.41273 8.29613 8.24219 7.14844 8.24219H7.10938V10.5859C7.10938 10.9095 7.37172 11.1719 7.69531 11.1719H19.4141C19.7377 11.1719 20 10.9095 20 10.5859V0.585938C20 0.262344 19.7377 0 19.4141 0Z" fill="white"/>
<path d="M8.35938 5.89844C8.35938 5.25121 7.83473 4.72656 7.1875 4.72656C6.44344 4.72656 2.9073 4.72656 2.34375 4.72656C1.04934 4.72656 0 5.7759 0 7.07031V11.5625H4.6875V7.07031H7.1875C7.83473 7.07031 8.35938 6.54566 8.35938 5.89844Z" fill="white"/>
<path d="M0 19.4141C0 19.7377 0.262344 20 0.585938 20H1.75781V12.7344H0V19.4141Z" fill="white"/>
<path d="M2.92969 20H4.10156C4.42516 20 4.6875 19.7377 4.6875 19.4141V12.7344H2.92969V20Z" fill="white"/>
</g>
<defs>
<clipPath id="clip0_576_21744">
<rect width="20" height="20" fill="white"/>
</clipPath>
</defs>
</svg>
