<svg width="20" height="20" viewBox="0 0 20 20" fill="none" xmlns="http://www.w3.org/2000/svg">
<g clip-path="url(#clip0_576_21818)">
<path d="M16.9035 0H3.09619C2.7726 0 2.51025 0.262343 2.51025 0.585936V17.6881C2.51025 17.8435 2.57201 17.9925 2.68186 18.1024L4.40779 19.8284C4.63662 20.0572 5.00759 20.0572 5.23646 19.8284L6.54806 18.5168L7.85958 19.8284C7.96946 19.9382 8.11849 20 8.27388 20C8.42927 20 8.57833 19.9383 8.68821 19.8284L9.99977 18.5168L11.3114 19.8284C11.4213 19.9382 11.5703 20 11.7257 20C11.8811 20 12.0301 19.9383 12.14 19.8284L13.4516 18.5168L14.7631 19.8284C14.8776 19.9428 15.0275 20 15.1775 20C15.3274 20 15.4774 19.9428 15.5918 19.8284L17.3177 18.1024C17.4276 17.9925 17.4893 17.8435 17.4893 17.6881V0.585936C17.4894 0.262343 17.2271 0 16.9035 0ZM9.41379 4.4012V3.72398C9.41379 3.40038 9.67618 3.13804 9.99973 3.13804C10.3234 3.13804 10.5857 3.40038 10.5857 3.72398V4.39323H11.255C11.5786 4.39323 11.8409 4.65558 11.8409 4.97917C11.8409 5.30276 11.5786 5.56511 11.255 5.56511H9.58141C9.21239 5.56511 8.91216 5.86534 8.91216 6.23436C8.91216 6.60343 9.21239 6.9037 9.58141 6.9037H10.4182C11.4334 6.9037 12.2594 7.72959 12.2594 8.74483C12.2594 9.70354 11.5227 10.4931 10.5857 10.578V11.2553C10.5857 11.5788 10.3234 11.8412 9.99973 11.8412C9.67618 11.8412 9.41379 11.5788 9.41379 11.2553V10.5859H8.74454C8.42098 10.5859 8.1586 10.3236 8.1586 9.99998C8.1586 9.67639 8.42098 9.41404 8.74454 9.41404H10.4182C10.7873 9.41404 11.0875 9.11381 11.0875 8.74479C11.0875 8.37577 10.7873 8.07553 10.4182 8.07553H9.58141C8.56618 8.07553 7.74028 7.24956 7.74028 6.23432C7.74032 5.27565 8.47692 4.48616 9.41379 4.4012ZM13.1378 14.9792H6.86181C6.53822 14.9792 6.27587 14.7168 6.27587 14.3932C6.27587 14.0696 6.53822 13.8073 6.86181 13.8073H13.1378C13.4614 13.8073 13.7238 14.0696 13.7238 14.3932C13.7238 14.7168 13.4614 14.9792 13.1378 14.9792Z" fill="white"/>
</g>
<defs>
<clipPath id="clip0_576_21818">
<rect width="20" height="20" fill="white"/>
</clipPath>
</defs>
</svg>
