<svg width="20" height="20" viewBox="0 0 20 20" fill="none" xmlns="http://www.w3.org/2000/svg">
<g clip-path="url(#clip0_576_21788)">
<path d="M6.23451 10.9837C6.77658 10.9837 7.2176 10.5427 7.2176 10.0007C7.2176 9.45859 6.77658 9.01758 6.23451 9.01758C5.69244 9.01758 5.25146 9.45859 5.25146 10.0007C5.25146 10.5427 5.69244 10.9837 6.23451 10.9837Z" fill="#787878"/>
<path d="M6.2342 12.1543C5.37725 12.1543 4.64936 12.7173 4.40088 13.4929H8.06748C7.81904 12.7173 7.09111 12.1543 6.2342 12.1543Z" fill="#787878"/>
<path d="M18.1588 2.82422H1.84117C0.812383 2.82422 0 3.65977 0 4.66539V15.3346C0 16.3634 0.835547 17.1758 1.84117 17.1758H18.1588C19.1876 17.1758 20 16.3402 20 15.3346V4.66539C20 3.63656 19.1645 2.82422 18.1588 2.82422ZM8.74477 14.6654H3.72395C3.40035 14.6654 3.13801 14.403 3.13801 14.0795C3.13801 12.9601 3.73504 11.9777 4.62734 11.4337C4.28691 11.0525 4.07945 10.5501 4.07945 10C4.07945 8.8118 5.04613 7.84508 6.23438 7.84508C7.42262 7.84508 8.38934 8.8118 8.38934 10C8.38934 10.5502 8.18188 11.0525 7.84141 11.4338C8.73371 11.9777 9.33074 12.9602 9.33074 14.0795C9.3307 14.403 9.06836 14.6654 8.74477 14.6654ZM15.0208 14.6654H11.8828C11.5592 14.6654 11.2969 14.403 11.2969 14.0795C11.2969 13.7559 11.5592 13.4935 11.8828 13.4935H15.0208C15.3444 13.4935 15.6068 13.7559 15.6068 14.0795C15.6068 14.403 15.3444 14.6654 15.0208 14.6654ZM16.2761 12.155H11.8828C11.5592 12.155 11.2969 11.8926 11.2969 11.569C11.2969 11.2454 11.5592 10.9831 11.8828 10.9831H16.2761C16.5996 10.9831 16.862 11.2454 16.862 11.569C16.862 11.8926 16.5996 12.155 16.2761 12.155ZM16.2761 9.64453H11.8828C11.5592 9.64453 11.2969 9.38219 11.2969 9.05859C11.2969 8.735 11.5592 8.47266 11.8828 8.47266H16.2761C16.5996 8.47266 16.862 8.735 16.862 9.05859C16.862 9.38219 16.5996 9.64453 16.2761 9.64453ZM16.2761 6.50648H3.72395C3.40035 6.50648 3.13801 6.24414 3.13801 5.92055C3.13801 5.59695 3.40035 5.33461 3.72395 5.33461H16.2761C16.5996 5.33461 16.862 5.59695 16.862 5.92055C16.862 6.24414 16.5996 6.50648 16.2761 6.50648Z" fill="#787878"/>
</g>
<defs>
<clipPath id="clip0_576_21788">
<rect width="20" height="20" fill="white"/>
</clipPath>
</defs>
</svg>
