<svg width="20" height="20" viewBox="0 0 20 20" fill="none" xmlns="http://www.w3.org/2000/svg">
<g clip-path="url(#clip0_1_38983)">
<path d="M18.4 10.2688C18.452 10.1398 18.4655 9.99859 18.4389 9.86215C18.4123 9.7257 18.3467 9.59991 18.25 9.5L16.25 7.5C16.1182 7.36822 15.9395 7.29419 15.7531 7.29419C15.5668 7.29419 15.388 7.36822 15.2562 7.5C15.1245 7.63178 15.0504 7.81051 15.0504 7.99688C15.0504 8.18324 15.1245 8.36197 15.2562 8.49375L16.0437 9.28125H11.4937C11.3073 9.28125 11.1284 9.35533 10.9966 9.48719C10.8647 9.61905 10.7906 9.7979 10.7906 9.98438C10.7906 10.1709 10.8647 10.3497 10.9966 10.4816C11.1284 10.6134 11.3073 10.6875 11.4937 10.6875H16.05L15.2625 11.475C15.1952 11.5398 15.1413 11.6173 15.104 11.703C15.0666 11.7886 15.0465 11.8808 15.0447 11.9742C15.043 12.0677 15.0597 12.1605 15.0938 12.2475C15.128 12.3345 15.1789 12.4139 15.2437 12.4813C15.3086 12.5486 15.386 12.6024 15.4717 12.6398C15.5574 12.6772 15.6495 12.6973 15.743 12.699C15.8364 12.7008 15.9293 12.6841 16.0163 12.6499C16.1033 12.6158 16.1827 12.5648 16.25 12.5L18.2375 10.5125C18.3082 10.4436 18.3636 10.3606 18.4 10.2688Z" fill="#7A7A7A"/>
<path d="M13.5 12.7688C13.3143 12.7688 13.1363 12.8425 13.005 12.9738C12.8737 13.1051 12.8 13.2831 12.8 13.4688V16.325C12.7984 16.5101 12.7241 16.6873 12.5932 16.8182C12.4622 16.9491 12.2851 17.0234 12.1 17.025H9.2875V2.96875H12.1C12.2851 2.97038 12.4622 3.04466 12.5932 3.17558C12.7241 3.3065 12.7984 3.4836 12.8 3.66875V6.4375C12.8 6.62398 12.8741 6.80282 13.0059 6.93469C13.1378 7.06655 13.3166 7.14063 13.5031 7.14063C13.6896 7.14063 13.8684 7.06655 14.0003 6.93469C14.1322 6.80282 14.2062 6.62398 14.2062 6.4375V3.675C14.2046 3.1169 13.9822 2.58212 13.5875 2.18748C13.1929 1.79284 12.6581 1.5704 12.1 1.56875H9.20625C9.13307 1.29059 9.00353 1.03043 8.82566 0.804402C8.64779 0.578371 8.42539 0.391287 8.17224 0.25475C7.91909 0.118213 7.64059 0.0351347 7.35401 0.0106653C7.06743 -0.0138041 6.77888 0.0208574 6.50625 0.112501L2.9875 1.28125C2.56716 1.42053 2.20141 1.68876 1.94222 2.0478C1.68304 2.40684 1.54361 2.83843 1.54375 3.28125V16.7188C1.54361 17.1616 1.68304 17.5932 1.94222 17.9522C2.20141 18.3112 2.56716 18.5795 2.9875 18.7188L6.5 19.8938C6.71744 19.9675 6.9454 20.0055 7.175 20.0062C7.63803 20.0037 8.08733 19.8487 8.45338 19.5651C8.81944 19.2815 9.08184 18.8852 9.2 18.4375H12.0875C12.6456 18.4359 13.1804 18.2134 13.575 17.8188C13.9697 17.4241 14.1921 16.8894 14.1937 16.3313V13.475C14.1946 13.3831 14.1773 13.2919 14.1429 13.2066C14.1084 13.1214 14.0576 13.0438 13.9931 12.9782C13.9287 12.9126 13.852 12.8604 13.7674 12.8244C13.6828 12.7885 13.5919 12.7696 13.5 12.7688ZM7.875 17.8875C7.87456 17.9988 7.84784 18.1084 7.79702 18.2073C7.7462 18.3063 7.67271 18.3919 7.58254 18.4571C7.49237 18.5223 7.38807 18.5652 7.27815 18.5825C7.16823 18.5997 7.05579 18.5907 6.95 18.5563L3.4375 17.3813C3.29739 17.3342 3.17559 17.2443 3.08925 17.1243C3.00291 17.0044 2.95639 16.8603 2.95625 16.7125V3.28125C2.95769 3.13451 3.00481 2.99187 3.09106 2.87314C3.17731 2.75441 3.29839 2.66549 3.4375 2.61875L6.95 1.44375C7.05579 1.40929 7.16823 1.40031 7.27815 1.41754C7.38807 1.43478 7.49237 1.47774 7.58254 1.54293C7.67271 1.60812 7.7462 1.69369 7.79702 1.79267C7.84784 1.89165 7.87456 2.00124 7.875 2.1125V17.8875Z" fill="#7A7A7A"/>
</g>
<defs>
<clipPath id="clip0_1_38983">
<rect width="20" height="20" fill="white"/>
</clipPath>
</defs>
</svg>
