<svg width="30" height="38" viewBox="0 0 30 38" fill="none" xmlns="http://www.w3.org/2000/svg">
<path d="M8.45277 28.4962L1.88847 32.0768C1.50326 32.2869 1.15707 32.5451 0.834961 32.8265C4.66213 36.0534 9.60258 38.0002 15.0005 38.0002C20.3585 38.0002 25.2674 36.0825 29.0838 32.8996C28.7318 32.6024 28.3499 32.335 27.9265 32.1242L20.8973 28.61C19.9891 28.1559 19.4154 27.2277 19.4154 26.2124V23.4545C19.613 23.2295 19.8388 22.9406 20.0804 22.5994C21.0384 21.2462 21.7632 19.7577 22.2655 18.1961C23.167 17.918 23.8312 17.0853 23.8312 16.0957V13.1519C23.8312 12.5043 23.5431 11.9257 23.0956 11.5205V7.26499C23.0956 7.26499 23.9698 0.642578 15.0013 0.642578C6.03277 0.642578 6.90696 7.26499 6.90696 7.26499V11.5205C6.45866 11.9257 6.17141 12.5043 6.17141 13.1519V16.0957C6.17141 16.8711 6.57904 17.5535 7.18922 17.9479C7.92477 21.1499 9.85081 23.4545 9.85081 23.4545V26.1443C9.84998 27.1239 9.31368 28.0264 8.45277 28.4962Z" fill="#E7ECED"/>
</svg>
