<svg width="30" height="30" viewBox="0 0 30 30" fill="none" xmlns="http://www.w3.org/2000/svg">
<path fill-rule="evenodd" clip-rule="evenodd" d="M28.7921 1.20794C29.7358 2.15172 29.7358 3.68186 28.7921 4.62564L4.62538 28.7922C3.68162 29.7362 2.15146 29.7362 1.2077 28.7922C0.263924 27.8485 0.263948 26.3183 1.2077 25.3746L25.3745 1.20794C26.3182 0.264183 27.8482 0.264183 28.7921 1.20794V1.20794Z" fill="#2B70C9"/>
<path fill-rule="evenodd" clip-rule="evenodd" d="M1.20808 1.20794C2.15184 0.264183 3.682 0.264183 4.62575 1.20794L28.7923 25.3746C29.7363 26.3183 29.7363 27.8485 28.7923 28.7922C27.8486 29.7362 26.3186 29.7362 25.3747 28.7922L1.20808 4.62564C0.264299 3.68186 0.264299 2.15172 1.20808 1.20794V1.20794Z" fill="#1CB0F6"/>
</svg>
