<svg width="19" height="20" viewBox="0 0 19 20" fill="none" xmlns="http://www.w3.org/2000/svg">
<path fill-rule="evenodd" clip-rule="evenodd" d="M15.8723 15.4366C17.1996 13.8686 18 11.8403 18 9.625C18 4.65444 13.9706 0.625 9 0.625C4.02944 0.625 0 4.65444 0 9.625C0 14.5956 4.02944 18.625 9 18.625C11.2153 18.625 13.2436 17.8246 14.8116 16.4973L17.4697 19.1553C17.7626 19.4482 18.2374 19.4482 18.5303 19.1553C18.8232 18.8624 18.8232 18.3876 18.5303 18.0947L15.8723 15.4366ZM16.5 9.625C16.5 13.7671 13.1421 17.125 9 17.125C4.85786 17.125 1.5 13.7671 1.5 9.625C1.5 5.48286 4.85786 2.125 9 2.125C13.1421 2.125 16.5 5.48286 16.5 9.625Z" fill="black"/>
</svg>
