<svg width="20" height="20" viewBox="0 0 20 20" fill="none" xmlns="http://www.w3.org/2000/svg">
<path d="M18.2563 7.39932C17.8916 7.34635 17.5435 7.21178 17.238 7.00565C16.9326 6.79951 16.6775 6.52712 16.4919 6.20875C16.3063 5.89039 16.1949 5.53425 16.166 5.16686C16.1371 4.79947 16.1915 4.43029 16.325 4.08682C16.4099 3.86228 16.4224 3.61679 16.3608 3.38478C16.2991 3.15276 16.1664 2.94586 15.9813 2.79307C15.1638 2.10661 14.2333 1.56735 13.2313 1.19932C13.0031 1.11456 12.754 1.10397 12.5194 1.16906C12.2849 1.23415 12.0769 1.3716 11.925 1.56182C11.6964 1.8541 11.4043 2.0905 11.0708 2.25308C10.7372 2.41566 10.3711 2.50015 10 2.50015C9.62897 2.50015 9.26279 2.41566 8.92926 2.25308C8.59572 2.0905 8.30359 1.8541 8.07501 1.56182C7.92315 1.3716 7.71513 1.23415 7.48059 1.16906C7.24604 1.10397 6.99694 1.11456 6.76876 1.19932C5.84356 1.5391 4.97851 2.02437 4.20626 2.63682C4.0116 2.79092 3.87139 3.0033 3.80616 3.24285C3.74093 3.48241 3.75411 3.73655 3.84376 3.96807C3.98799 4.32063 4.04757 4.70208 4.01775 5.08182C3.98792 5.46157 3.86951 5.82903 3.67201 6.15475C3.47452 6.48047 3.20343 6.75536 2.88051 6.95739C2.55758 7.15941 2.1918 7.28294 1.81251 7.31807C1.56627 7.3444 1.33498 7.4491 1.15271 7.61674C0.970433 7.78439 0.846801 8.00613 0.800014 8.24932C0.683637 8.82538 0.625014 9.41162 0.625014 9.99932C0.624158 10.4913 0.663876 10.9826 0.743764 11.4681C0.783523 11.7191 0.904855 11.9499 1.089 12.1251C1.27315 12.3002 1.50985 12.4097 1.76251 12.4368C2.15014 12.4732 2.5234 12.6019 2.85108 12.8121C3.17875 13.0224 3.4513 13.3081 3.64591 13.6453C3.84052 13.9825 3.95152 14.3614 3.96963 14.7503C3.98775 15.1392 3.91244 15.5267 3.75001 15.8806C3.64372 16.1107 3.61735 16.3698 3.6751 16.6166C3.73285 16.8635 3.8714 17.084 4.06876 17.2431C4.88133 17.9171 5.80287 18.4476 6.79376 18.8118C6.92048 18.8557 7.05343 18.8789 7.18751 18.8806C7.37137 18.8802 7.55245 18.8357 7.71557 18.7509C7.87869 18.666 8.0191 18.5434 8.12501 18.3931C8.34777 18.0685 8.64638 17.8032 8.99491 17.6203C9.34344 17.4373 9.73137 17.3421 10.125 17.3431C10.5064 17.3436 10.8825 17.4331 11.2232 17.6045C11.5639 17.776 11.8598 18.0246 12.0875 18.3306C12.239 18.5341 12.4535 18.6819 12.6977 18.7509C12.9418 18.8198 13.202 18.8061 13.4375 18.7118C14.3436 18.3472 15.1871 17.8432 15.9375 17.2181C16.126 17.0622 16.2603 16.8506 16.3209 16.6136C16.3815 16.3767 16.3655 16.1266 16.275 15.8993C16.128 15.5513 16.0639 15.1739 16.0878 14.7969C16.1117 14.4198 16.2228 14.0535 16.4125 13.7268C16.6023 13.4001 16.8653 13.122 17.1809 12.9144C17.4966 12.7068 17.8561 12.5754 18.2313 12.5306C18.4745 12.4969 18.7007 12.3867 18.8771 12.2159C19.0536 12.0451 19.171 11.8226 19.2125 11.5806C19.3129 11.0593 19.3673 10.5301 19.375 9.99932C19.3751 9.43941 19.3228 8.88072 19.2188 8.33057C19.1766 8.09388 19.0609 7.87651 18.8881 7.70934C18.7153 7.54216 18.4942 7.43369 18.2563 7.39932ZM13.125 9.99932C13.125 10.6174 12.9417 11.2216 12.5984 11.7355C12.255 12.2494 11.7669 12.6499 11.1959 12.8864C10.6249 13.123 9.99655 13.1849 9.39036 13.0643C8.78417 12.9437 8.22734 12.6461 7.79031 12.209C7.35327 11.772 7.05564 11.2152 6.93506 10.609C6.81448 10.0028 6.87637 9.37446 7.11289 8.80344C7.34941 8.23242 7.74995 7.74436 8.26386 7.40098C8.77776 7.0576 9.38195 6.87432 10 6.87432C10.8288 6.87432 11.6237 7.20356 12.2097 7.78961C12.7958 8.37566 13.125 9.17052 13.125 9.99932Z" fill="#787878"/>
</svg>
