<svg width="16" height="16" viewBox="0 0 16 16" fill="none" xmlns="http://www.w3.org/2000/svg">
<path d="M15.8305 5.5985L11.259 1.02711C11.1459 0.913994 11.012 0.857422 10.8572 0.857422C10.7025 0.857422 10.5685 0.913994 10.4555 1.02711C10.3423 1.14028 10.2857 1.27423 10.2857 1.42896V3.71466H8.28573C4.04151 3.71466 1.43748 4.9141 0.473063 7.31291C0.157677 8.11042 0 9.10162 0 10.2861C0 11.2742 0.377994 12.6164 1.13392 14.3129C1.15175 14.3546 1.18289 14.4259 1.22761 14.5271C1.2723 14.6282 1.31243 14.7175 1.34814 14.7949C1.38398 14.8722 1.42269 14.9377 1.46432 14.9912C1.53568 15.0924 1.61905 15.1431 1.71431 15.1431C1.8036 15.1431 1.87355 15.1134 1.92418 15.0539C1.97469 14.9944 1.99999 14.9199 1.99999 14.8309C1.99999 14.7771 1.99255 14.6984 1.97763 14.5941C1.96274 14.4899 1.95527 14.4201 1.95527 14.3844C1.92547 13.9798 1.91058 13.6134 1.91058 13.2863C1.91058 12.6851 1.96274 12.1464 2.06682 11.6702C2.17105 11.194 2.31537 10.7819 2.49995 10.4336C2.68449 10.0852 2.9225 9.78486 3.21425 9.53187C3.50587 9.27887 3.81981 9.07209 4.15612 8.91135C4.49249 8.75058 4.88831 8.62408 5.34368 8.53186C5.79901 8.4396 6.25731 8.37559 6.71868 8.33984C7.18004 8.3041 7.70236 8.28633 8.28573 8.28633H10.2857V10.5721C10.2857 10.7268 10.3422 10.8608 10.4552 10.9739C10.5685 11.0868 10.7023 11.1435 10.857 11.1435C11.0117 11.1435 11.1457 11.0868 11.259 10.9739L15.8304 6.40231C15.9435 6.28919 16 6.15531 16 6.00054C16 5.84581 15.9435 5.71183 15.8305 5.5985Z" fill="white"/>
</svg>
