<svg width="20" height="20" viewBox="0 0 20 20" fill="none" xmlns="http://www.w3.org/2000/svg">
<g clip-path="url(#clip0_576_21760)">
<path d="M18.2324 9.48295V3.36916C18.2324 3.27752 18.2073 3.19365 18.1699 3.11646C18.1925 3.054 18.2324 2.99889 18.2324 2.92971C18.2324 2.66822 18.0591 2.43818 17.8073 2.36607L9.60414 0.0223242C9.49887 -0.00744141 9.38785 -0.00744141 9.28258 0.0223242L1.07945 2.36607C0.827656 2.43818 0.654297 2.66822 0.654297 2.92971C0.654297 3.19119 0.827656 3.42123 1.07945 3.49334L4.16992 4.37631V5.06975C4.16992 5.73635 4.54016 6.3492 5.11293 6.63072C7.73934 7.92162 11.1462 7.92104 13.7738 6.63131C14.3466 6.34979 14.7168 5.73693 14.7168 5.06975V4.37631L17.0606 3.7067V9.48295C16.38 9.72565 15.8887 10.3699 15.8887 11.1328V12.3047C15.8887 12.6286 16.1508 12.8906 16.4746 12.8906H18.8184C19.1423 12.8906 19.4043 12.6286 19.4043 12.3047V11.1328C19.4043 10.3699 18.913 9.72568 18.2324 9.48295Z" fill="#787878"/>
<path d="M14.2313 7.7618C12.7584 8.48562 11.0824 8.86785 9.38471 8.86785C7.68697 8.86785 6.01041 8.48504 4.53697 7.76121C4.39307 7.69047 4.27389 7.58563 4.146 7.49219C4.27115 9.60117 5.40584 11.3907 7.00943 12.3076C7.00943 12.3076 7.83197 12.6962 8.08896 12.7692L8.08998 12.7673C8.50619 12.886 8.93471 12.9695 9.38467 12.9695C9.79666 12.9695 10.3835 12.8872 10.9699 12.6707C11.24 12.5745 11.758 12.3088 11.758 12.3088C13.3626 11.3923 14.4981 9.60215 14.6234 7.49242C14.4951 7.58602 14.3756 7.6909 14.2313 7.7618Z" fill="#787878"/>
<path d="M9.38498 14.1407C8.91264 14.1407 8.45807 14.0679 8.01514 13.9609L9.38498 16.0157L10.7471 13.9629C10.3065 14.0686 9.85463 14.1407 9.38498 14.1407Z" fill="#787878"/>
<path d="M12.7576 13.0898C12.7472 13.0968 12.7356 13.1016 12.7252 13.1086L12.2324 13.8478C12.2324 13.8751 9.98582 17.2352 9.9707 17.2579V20.0002H17.5879C17.9118 20.0002 18.1738 19.7381 18.1738 19.4142C18.1738 16.2145 15.8188 13.5879 12.7576 13.0898ZM14.0723 17.6564H12.9004C12.5765 17.6564 12.3145 17.3943 12.3145 17.0705C12.3145 16.7466 12.5765 16.4845 12.9004 16.4845H14.0723C14.3961 16.4845 14.6582 16.7466 14.6582 17.0705C14.6582 17.3943 14.3961 17.6564 14.0723 17.6564Z" fill="#787878"/>
<path d="M6.03363 13.1012C6.0241 13.0948 6.01348 13.0904 6.00395 13.084C2.94602 13.5854 0.595703 16.2159 0.595703 19.4136C0.595703 19.7375 0.857773 19.9996 1.18164 19.9996H8.79883V17.2573C6.1434 13.2673 6.68527 14.0819 6.03363 13.1012Z" fill="#787878"/>
</g>
<defs>
<clipPath id="clip0_576_21760">
<rect width="20" height="20" fill="white"/>
</clipPath>
</defs>
</svg>
