<svg width="20" height="20" viewBox="0 0 20 20" fill="none" xmlns="http://www.w3.org/2000/svg">
<path d="M9.19688 14.7312L9.625 13.2375C9.67171 13.0716 9.77439 12.9269 9.91562 12.8281C16.6219 6.12516 16.25 6.44791 16.5625 6.28125V2.5C16.5618 2.25158 16.4628 2.01355 16.2871 1.83789C16.1115 1.66223 15.8734 1.56322 15.625 1.5625H4.375C4.12658 1.56322 3.88855 1.66223 3.71289 1.83789C3.53723 2.01355 3.43822 2.25158 3.4375 2.5V17.5C3.43823 17.7484 3.53723 17.9865 3.71289 18.1621C3.88855 18.3378 4.12658 18.4368 4.375 18.4375H15.625C15.8734 18.4368 16.1115 18.3378 16.2871 18.1621C16.4628 17.9865 16.5618 17.7484 16.5625 17.5V12.9719L16.4531 13.0813C16.2745 13.2513 16.0373 13.3461 15.7906 13.3461C15.544 13.3461 15.3068 13.2513 15.1281 13.0813C15.0519 13.0051 14.9896 12.9163 14.9438 12.8188L12.425 15.3375C12.3225 15.4826 12.1719 15.5867 12 15.6313L10.5219 16.0563L10.3562 16.225C10.2692 16.3124 10.1659 16.3818 10.0521 16.4293C9.93823 16.4768 9.81616 16.5013 9.69283 16.5016C9.56951 16.5019 9.44733 16.4779 9.33328 16.431C9.21923 16.3841 9.11554 16.3151 9.02812 16.2281C8.85159 16.0524 8.75209 15.8138 8.7515 15.5647C8.75121 15.4414 8.77521 15.3192 8.82214 15.2052C8.86907 15.0911 8.938 14.9874 9.025 14.9L9.19688 14.7312ZM5.5375 4.0625H13.6625C13.7448 4.06332 13.8235 4.09661 13.8815 4.15513C13.9394 4.21364 13.9719 4.29266 13.9719 4.375C13.9719 4.45734 13.9394 4.53636 13.8815 4.59487C13.8235 4.65339 13.7448 4.68668 13.6625 4.6875H5.5375C5.45516 4.68668 5.37647 4.65339 5.31854 4.59487C5.26061 4.53636 5.22811 4.45734 5.22811 4.375C5.22811 4.29266 5.26061 4.21364 5.31854 4.15513C5.37647 4.09661 5.45516 4.06332 5.5375 4.0625ZM5.5375 5.625H13.6625C13.7448 5.62582 13.8235 5.65911 13.8815 5.71763C13.9394 5.77614 13.9719 5.85516 13.9719 5.9375C13.9719 6.01984 13.9394 6.09886 13.8815 6.15737C13.8235 6.21589 13.7448 6.24918 13.6625 6.25H5.5375C5.45516 6.24918 5.37647 6.21589 5.31854 6.15737C5.26061 6.09886 5.22811 6.01984 5.22811 5.9375C5.22811 5.85516 5.26061 5.77614 5.31854 5.71763C5.37647 5.65911 5.45516 5.62582 5.5375 5.625ZM5.5375 7.1875H13.6625C13.7448 7.18832 13.8235 7.22161 13.8815 7.28013C13.9394 7.33864 13.9719 7.41766 13.9719 7.5C13.9719 7.58234 13.9394 7.66136 13.8815 7.71987C13.8235 7.77839 13.7448 7.81168 13.6625 7.8125H5.5375C5.45516 7.81168 5.37647 7.77839 5.31854 7.71987C5.26061 7.66136 5.22811 7.58234 5.22811 7.5C5.22811 7.41766 5.26061 7.33864 5.31854 7.28013C5.37647 7.22161 5.45516 7.18832 5.5375 7.1875ZM5.5375 9.375C5.45516 9.37418 5.37647 9.34089 5.31854 9.28237C5.26061 9.22386 5.22811 9.14484 5.22811 9.0625C5.22811 8.98016 5.26061 8.90114 5.31854 8.84263C5.37647 8.78411 5.45516 8.75082 5.5375 8.75H8.975C9.05734 8.75082 9.13603 8.78411 9.19396 8.84263C9.25189 8.90114 9.28439 8.98016 9.28439 9.0625C9.28439 9.14484 9.25189 9.22386 9.19396 9.28237C9.13603 9.34089 9.05734 9.37418 8.975 9.375H5.5375Z" fill="white"/>
<path d="M10.1749 13.584L11.6687 15.0777L10.1937 15.4996L9.91241 15.784C9.85342 15.8421 9.77384 15.8745 9.69103 15.8742C9.60821 15.8739 9.52888 15.8409 9.47032 15.7823C9.41177 15.7238 9.37873 15.6444 9.37842 15.5616C9.37811 15.4788 9.41055 15.3992 9.46866 15.3402L9.75304 15.059L10.1749 13.584Z" fill="white"/>
<path d="M16.7748 10.1035L16.5623 10.316L12.1748 14.7035L10.5498 13.0785L15.1498 8.47852C15.7206 9.04928 15.3089 8.63758 16.7748 10.1035Z" fill="white"/>
<path d="M19.1439 9.50999L16.0126 12.6412C15.9537 12.6991 15.8742 12.7313 15.7916 12.7307C15.709 12.7302 15.63 12.697 15.5718 12.6384C15.5136 12.5798 15.4809 12.5005 15.481 12.4179C15.481 12.3353 15.5137 12.256 15.572 12.1975L18.047 9.72249L17.6001 9.27874L17.2158 9.66311C16.8364 9.28374 15.9545 8.40183 15.5908 8.03811L16.6126 7.01624C16.8281 6.80075 17.1204 6.67969 17.4251 6.67969C17.7299 6.67969 18.0221 6.80075 18.2376 7.01624C18.4531 7.23172 18.5742 7.52399 18.5742 7.82874C18.5742 8.13348 18.4531 8.42575 18.2376 8.64124L18.0439 8.83499L18.4876 9.28186L18.7002 9.06624C18.7592 9.00836 18.8387 8.97612 18.9214 8.97653C19.0041 8.97694 19.0832 9.00997 19.1417 9.06844C19.2002 9.12691 19.2332 9.20608 19.2336 9.28876C19.234 9.37144 19.2018 9.45094 19.1439 9.50999Z" fill="white"/>
</svg>
