<svg width="20" height="20" viewBox="0 0 20 20" fill="none" xmlns="http://www.w3.org/2000/svg">
<g clip-path="url(#clip0_3083_30794)">
<path d="M18.7498 0.833984H1.24984C1.02882 0.833984 0.816862 0.921782 0.660582 1.07806C0.504301 1.23434 0.416504 1.4463 0.416504 1.66732V11.6673H19.5832V1.66732C19.5832 1.4463 19.4954 1.23434 19.3391 1.07806C19.1828 0.921782 18.9709 0.833984 18.7498 0.833984Z" fill="#787878"/>
<path d="M0.416504 14.1667C0.416504 14.3877 0.504301 14.5996 0.660582 14.7559C0.816862 14.9122 1.02882 15 1.24984 15H18.7498C18.9709 15 19.1828 14.9122 19.3391 14.7559C19.4954 14.5996 19.5832 14.3877 19.5832 14.1667V12.5H0.416504V14.1667ZM9.99984 13.3333C10.1103 13.3333 10.2163 13.3772 10.2945 13.4554C10.3726 13.5335 10.4165 13.6395 10.4165 13.75C10.4165 13.8605 10.3726 13.9665 10.2945 14.0446C10.2163 14.1228 10.1103 14.1667 9.99984 14.1667C9.88933 14.1667 9.78335 14.1228 9.70521 14.0446C9.62707 13.9665 9.58317 13.8605 9.58317 13.75C9.58317 13.6395 9.62707 13.5335 9.70521 13.4554C9.78335 13.3772 9.88933 13.3333 9.99984 13.3333V13.3333Z" fill="#787878"/>
<path d="M13.3333 18.334H12.5V15.834H7.5V18.334H6.66667C6.55616 18.334 6.45018 18.3779 6.37204 18.456C6.2939 18.5342 6.25 18.6401 6.25 18.7507C6.25 18.8612 6.2939 18.9671 6.37204 19.0453C6.45018 19.1234 6.55616 19.1673 6.66667 19.1673H13.3333C13.4438 19.1673 13.5498 19.1234 13.628 19.0453C13.7061 18.9671 13.75 18.8612 13.75 18.7507C13.75 18.6401 13.7061 18.5342 13.628 18.456C13.5498 18.3779 13.4438 18.334 13.3333 18.334Z" fill="#787878"/>
</g>
<defs>
<clipPath id="clip0_3083_30794">
<rect width="20" height="20" fill="white"/>
</clipPath>
</defs>
</svg>
