<svg width="20" height="20" viewBox="0 0 20 20" fill="none" xmlns="http://www.w3.org/2000/svg">
<g clip-path="url(#clip0_576_21731)">
<path d="M0.585938 13.1797C0.262344 13.1797 0 13.442 0 13.7656V19.4141C0 19.7376 0.262344 20 0.585938 20H2.59375V13.1797H0.585938Z" fill="#FFFF"/>
<path d="M19.4141 13.1797H17.4062V20H19.4141C19.7377 20 20 19.7376 20 19.4141V13.7656C20 13.442 19.7377 13.1797 19.4141 13.1797Z" fill="#FFFF"/>
<path d="M17.146 6.95617L10.5859 3.97422V1.79945H12.5103C12.8339 1.79945 13.0963 1.53711 13.0963 1.21352V0.585938C13.0963 0.262344 12.8339 0 12.5103 0H9.99993C9.67634 0 9.41399 0.262344 9.41399 0.585938V3.97422L2.85388 6.95617C2.55927 7.09008 2.42899 7.43742 2.56294 7.73203C2.69684 8.02664 3.04427 8.15684 3.3388 8.02297L3.76559 7.82895V19.4141C3.76559 19.7376 4.02794 20 4.35153 20H7.53122V15.6484C7.53122 15.3249 7.79356 15.0625 8.11716 15.0625H11.8827C12.2063 15.0625 12.4686 15.3249 12.4686 15.6484V20H15.6483C15.9719 20 16.2343 19.7376 16.2343 19.4141V7.82898L16.6611 8.02301C16.7397 8.05875 16.8221 8.0757 16.9032 8.0757C17.1259 8.0757 17.3388 7.94801 17.4369 7.73207C17.5709 7.43742 17.4406 7.09008 17.146 6.95617ZM9.99993 12.5134C8.63864 12.5134 7.53122 11.4059 7.53122 10.0446C7.53122 8.68336 8.63868 7.57594 9.99993 7.57594C11.3612 7.57594 12.4686 8.68336 12.4686 10.0446C12.4686 11.4059 11.3612 12.5134 9.99993 12.5134Z" fill="#FFFF"/>
</g>
<defs>
<clipPath id="clip0_576_21731">
<rect width="20" height="20" fill="white"/>
</clipPath>
</defs>
</svg>
