<svg width="211" height="152" viewBox="0 0 211 152" fill="none" xmlns="http://www.w3.org/2000/svg">
<g clip-path="url(#clip0_3491_138395)">
<path d="M211 76.0127H181.422L161.129 41.2499L142.635 72.9227L127.543 46.6958C127.543 46.6958 133.673 34.0931 147.624 10.7068C148.323 9.52743 149.079 8.38379 149.892 7.28019C152.672 3.53349 155.335 1.54953 157.807 0.751712C158.678 0.544905 159.569 0.441424 160.463 0.44341C161.415 0.440533 162.364 0.559163 163.286 0.796428C166.492 1.87196 169.103 4.58784 170.851 6.9154C171.761 8.11563 172.571 9.38839 173.274 10.7209L211 76.0127Z" fill="#2257AA"/>
<path d="M124.318 105.469C121.274 112.393 118.202 117.001 115.196 119.868C113.175 121.793 111.197 122.941 109.278 123.482C108.364 123.712 107.425 123.827 106.483 123.826C105.517 123.829 104.555 123.711 103.618 123.475C103.599 123.474 103.58 123.469 103.562 123.461C102.31 123.089 101.113 122.55 100.005 121.859C100.001 121.857 99.9955 121.857 99.9909 121.859C92.6824 117.328 87.6626 106.855 87.6626 106.855L49.2639 39.9679L29.9587 74.9543H0C0 74.9543 19.2017 41.2199 34.9902 12.3525C42.8916 -2.08828 50.3836 -1.51874 55.7374 2.31738C55.7515 2.3315 55.7586 2.33856 55.775 2.33856C56.3964 2.79608 56.9924 3.28711 57.5604 3.80947C57.5968 3.83357 57.6286 3.86383 57.6545 3.8989C61.4182 7.42908 63.7422 12.0748 63.7422 12.0748L105.317 85.6202L108.946 78.6069L124.318 105.469Z" fill="#2257AA"/>
<path d="M86.7539 46.5308C89.7978 39.6069 92.8699 34.9988 95.8784 32.1323C97.8967 30.2072 99.8773 29.0587 101.797 28.5174C102.711 28.2879 103.649 28.1725 104.591 28.1738C105.556 28.1734 106.517 28.2936 107.452 28.5316C107.472 28.5331 107.492 28.5379 107.51 28.5457C108.762 28.918 109.957 29.4571 111.065 30.1484C111.067 30.1495 111.07 30.1501 111.073 30.1501C111.076 30.1501 111.079 30.1495 111.081 30.1484C118.387 34.6788 123.407 45.1516 123.407 45.1516L161.808 112.032L181.422 76.0242H210.999C210.999 76.0242 191.868 110.78 176.08 139.64C168.181 154.081 160.689 153.512 155.332 149.675C155.318 149.661 155.311 149.654 155.297 149.654C154.675 149.198 154.079 148.707 153.512 148.183C153.475 148.159 153.442 148.129 153.415 148.094C149.652 144.564 147.33 139.918 147.33 139.918L105.753 66.3727L102.126 73.386L86.7539 46.5308Z" fill="#EFA434"/>
<path d="M0 74.9551H29.9587L49.2474 111.017L67.7411 79.3466L82.8357 105.571C82.8357 105.571 76.7033 118.176 62.7519 141.56C62.0545 142.742 61.2976 143.888 60.4843 144.994C57.7063 148.74 55.0435 150.724 52.5736 151.522C51.7035 151.729 50.8121 151.833 49.9178 151.831C48.9658 151.833 48.0172 151.715 47.0951 151.478C43.8913 150.402 41.2779 147.686 39.5302 145.359C38.6211 144.158 37.8108 142.885 37.1073 141.553L0 74.9551Z" fill="#EFA434"/>
</g>
<defs>
<clipPath id="clip0_3491_138395">
<rect width="211" height="152" fill="white"/>
</clipPath>
</defs>
</svg>
