<svg width="123" height="100" viewBox="0 0 123 100" fill="none" xmlns="http://www.w3.org/2000/svg">
<path d="M122.745 38.662C122.733 52.483 118.057 65.8956 109.475 76.7292C100.893 87.5628 88.9061 95.1835 75.4546 98.3583C62.0031 101.533 47.8738 100.076 35.3533 94.2229C22.8328 88.3699 12.6535 78.4633 6.46276 66.1062C6.40637 66.0059 6.36239 65.8953 6.3184 65.7938C5.35935 63.8658 4.50543 61.8873 3.76041 59.8669C3.70514 59.7 3.63855 59.5286 3.58328 59.3673C3.42764 58.9342 3.28332 58.4999 3.13782 58.0657C2.94834 57.5108 2.77124 56.9548 2.60432 56.3863C2.44867 55.898 2.31562 55.3961 2.17125 54.8964L2.03812 54.3968C1.93887 54.0077 1.8385 53.6186 1.73812 53.2182C1.64901 52.8403 1.56105 52.4625 1.4821 52.0847C1.393 51.7395 1.32644 51.3955 1.25652 51.0606C0.956505 49.5943 0.700468 48.1135 0.510987 46.6134C0.478279 46.3461 0.444429 46.0675 0.411721 45.8013C0.134105 43.4317 -0.00334659 41.0478 6.18581e-05 38.662C6.18581e-05 38.4172 0.0102346 38.1736 0.0226411 37.9277H12.0648C12.0536 38.1736 12.0423 38.4172 12.0423 38.662C12.0423 39.6297 12.075 40.5974 12.1314 41.564C12.154 41.9756 12.1754 42.3862 12.2205 42.7978C12.2645 43.399 12.3332 43.9889 12.3975 44.5889C12.5543 45.9559 12.7765 47.2958 13.054 48.6142C13.1431 49.08 13.2435 49.5368 13.354 49.9925C13.3765 50.1053 13.4092 50.2034 13.4307 50.3139C16.2689 62.0523 23.3147 72.3416 33.2328 79.2318C43.1509 86.1221 55.2521 89.1345 67.2429 87.6981C79.2338 86.2618 90.2811 80.4765 98.2912 71.4387C106.301 62.4009 110.718 50.7386 110.703 38.662C110.703 38.4172 110.681 38.1736 110.681 37.9277H122.723C122.724 38.1736 122.745 38.4172 122.745 38.662Z" fill="#2257AA"/>
<path d="M69.7294 77.3135H53.0279L35.6296 37.8767L21.899 68.2185L16.3826 80.3881C12.416 76.1224 9.08019 71.311 6.47656 66.1003L13.4456 50.3103L35.6318 0.00195312L69.7294 77.3135Z" fill="#1B4D9B"/>
<path d="M116.28 66.1006C113.667 71.3201 110.323 76.14 106.348 80.4143L100.847 68.2334L87.1236 37.877L63.7126 90.7738H47.0078L87.1236 0L109.312 50.3106L116.28 66.1006Z" fill="#EFA434"/>
<g style="mix-blend-mode:multiply">
<path d="M35.6328 37.8775L53.0289 77.3144L61.0368 58.0448L35.6328 0.00390625V37.8775Z" fill="#F8E5C8"/>
</g>
<path style="mix-blend-mode:multiply" d="M13.3698 49.9823L13.3597 49.9936L6.32068 65.7938C5.36609 63.8638 4.51228 61.8855 3.76268 59.8669C3.70741 59.7 3.64089 59.5286 3.58562 59.3673C3.42998 58.9342 3.28559 58.4999 3.1401 58.0657C2.95062 57.5108 2.77359 56.9548 2.60666 56.3863C2.45102 55.898 2.31789 55.3961 2.17352 54.8964L2.04046 54.3968C1.94121 54.0077 1.84084 53.6186 1.74046 53.2182C1.65136 52.8403 1.56339 52.4625 1.48444 52.0847C1.39534 51.7395 1.32879 51.3955 1.25886 51.0606C0.958846 49.5943 0.70281 48.1135 0.513329 46.6134C0.480621 46.3461 0.446771 46.0675 0.414062 45.8013L6.47405 37.9277H12.0559C12.0457 38.1736 12.0457 38.4172 12.0457 38.662C12.0457 39.6297 12.0784 40.5974 12.1348 41.564C12.1574 41.9756 12.1788 42.3862 12.2239 42.7978C12.2679 43.399 12.3367 43.9889 12.401 44.5889C12.5679 45.9423 12.7912 47.2958 13.0574 48.6142C13.1623 49.0699 13.2593 49.5255 13.3698 49.9823Z" fill="url(#paint0_linear_104_28248)"/>
<path style="mix-blend-mode:multiply" d="M92.3398 77.0285L94.1445 90.5459C98.6322 87.7083 102.735 84.3029 106.35 80.4143L100.847 68.2334C98.3858 71.5054 95.5282 74.4596 92.3398 77.0285Z" fill="url(#paint1_linear_104_28248)"/>
<defs>
<linearGradient id="paint0_linear_104_28248" x1="13.7326" y1="57.5733" x2="3.90516" y2="54.9012" gradientUnits="userSpaceOnUse">
<stop stop-color="#0740A5"/>
<stop offset="0.999" stop-color="white"/>
</linearGradient>
<linearGradient id="paint1_linear_104_28248" x1="106.953" y1="71.3125" x2="90.379" y2="77.384" gradientUnits="userSpaceOnUse">
<stop stop-color="#0740A5"/>
<stop offset="0.999" stop-color="white"/>
</linearGradient>
</defs>
</svg>
