<svg width="20" height="20" viewBox="0 0 20 20" fill="none" xmlns="http://www.w3.org/2000/svg">
<path d="M18.9885 9.00331H3.42241L8.70863 3.71709C8.80402 3.62496 8.8801 3.51475 8.93245 3.39291C8.98479 3.27106 9.01234 3.14001 9.01349 3.0074C9.01464 2.87479 8.98937 2.74328 8.93916 2.62054C8.88894 2.4978 8.81478 2.38629 8.72101 2.29252C8.62724 2.19875 8.51573 2.12459 8.39299 2.07437C8.27025 2.02415 8.13874 1.99889 8.00613 2.00004C7.87352 2.00119 7.74247 2.02874 7.62062 2.08108C7.49877 2.13342 7.38857 2.20951 7.29644 2.3049L0.305404 9.29593C0.118173 9.48322 0.0129929 9.7372 0.0129929 10.002C0.0129929 10.2669 0.118173 10.5208 0.305404 10.7081L7.29644 17.6992C7.4848 17.8811 7.73708 17.9818 7.99894 17.9795C8.2608 17.9772 8.51129 17.8722 8.69646 17.687C8.88164 17.5018 8.98667 17.2513 8.98895 16.9895C8.99122 16.7276 8.89056 16.4753 8.70863 16.287L3.42241 11.0007H18.9885C19.2533 11.0007 19.5074 10.8955 19.6947 10.7082C19.882 10.5209 19.9872 10.2669 19.9872 10.002C19.9872 9.73715 19.882 9.48312 19.6947 9.29583C19.5074 9.10853 19.2533 9.00331 18.9885 9.00331Z" fill="#2257AA"/>
</svg>
