<svg width="11" height="11" viewBox="0 0 11 11" fill="none" xmlns="http://www.w3.org/2000/svg">
<g clip-path="url(#clip0_3392_55726)">
<path d="M9.35953 0.8125H8.86256V0H8.03428V0.8125H2.56766V0H1.73938V0.8125H1.24241C0.557347 0.8125 0 1.35923 0 2.03125V9.18125C0 9.85327 0.557347 10.4 1.24241 10.4H9.35953C10.0446 10.4 10.6019 9.85327 10.6019 9.18125V2.03125C10.6019 1.35923 10.0446 0.8125 9.35953 0.8125ZM9.77366 9.18125C9.77366 9.40526 9.58788 9.5875 9.35953 9.5875H1.24241C1.01406 9.5875 0.828277 9.40526 0.828277 9.18125V3.81875H9.77366V9.18125ZM9.77366 3.00625H0.828277V2.03125C0.828277 1.80724 1.01406 1.625 1.24241 1.625H1.73938V2.4375H2.56766V1.625H8.03428V2.4375H8.86256V1.625H9.35953C9.58788 1.625 9.77366 1.80724 9.77366 2.03125V3.00625Z" fill="#828282"/>
<path d="M2.4025 4.67188H1.57422V5.48438H2.4025V4.67188Z" fill="#828282"/>
<path d="M4.05875 4.67188H3.23047V5.48438H4.05875V4.67188Z" fill="#828282"/>
<path d="M5.715 4.67188H4.88672V5.48438H5.715V4.67188Z" fill="#828282"/>
<path d="M7.37125 4.67188H6.54297V5.48438H7.37125V4.67188Z" fill="#828282"/>
<path d="M9.0275 4.67188H8.19922V5.48438H9.0275V4.67188Z" fill="#828282"/>
<path d="M2.4025 6.29688H1.57422V7.10937H2.4025V6.29688Z" fill="#828282"/>
<path d="M4.05875 6.29688H3.23047V7.10937H4.05875V6.29688Z" fill="#828282"/>
<path d="M5.715 6.29688H4.88672V7.10937H5.715V6.29688Z" fill="#828282"/>
<path d="M7.37125 6.29688H6.54297V7.10937H7.37125V6.29688Z" fill="#828282"/>
<path d="M2.4025 7.92188H1.57422V8.73438H2.4025V7.92188Z" fill="#828282"/>
<path d="M4.05875 7.92188H3.23047V8.73438H4.05875V7.92188Z" fill="#828282"/>
<path d="M5.715 7.92188H4.88672V8.73438H5.715V7.92188Z" fill="#828282"/>
<path d="M7.37125 7.92188H6.54297V8.73438H7.37125V7.92188Z" fill="#828282"/>
<path d="M9.0275 6.29688H8.19922V7.10937H9.0275V6.29688Z" fill="#828282"/>
</g>
<defs>
<clipPath id="clip0_3392_55726">
<rect width="10.6019" height="10.4" fill="white"/>
</clipPath>
</defs>
</svg>
