<svg width="20" height="20" viewBox="0 0 20 20" fill="none" xmlns="http://www.w3.org/2000/svg">
<path d="M6.50111 8.74935H12.6678C13.3344 8.74935 13.7511 7.99935 13.3344 7.49935L10.2511 2.41602C9.91777 1.91602 9.16777 1.91602 8.83444 2.41602L5.75111 7.49935C5.41777 8.08268 5.83444 8.74935 6.50111 8.74935Z" fill="#2257AA"/>
<path d="M14.167 17.916C16.2381 17.916 17.917 16.2371 17.917 14.166C17.917 12.0949 16.2381 10.416 14.167 10.416C12.0959 10.416 10.417 12.0949 10.417 14.166C10.417 16.2371 12.0959 17.916 14.167 17.916Z" fill="#2257AA"/>
<path d="M7.91732 10.832H2.91732C2.50065 10.832 2.08398 11.2487 2.08398 11.6654V16.6654C2.08398 17.082 2.50065 17.4987 2.91732 17.4987H7.91732C8.33398 17.4987 8.75065 17.082 8.75065 16.6654V11.6654C8.75065 11.2487 8.33398 10.832 7.91732 10.832Z" fill="#2257AA"/>
</svg>
