<svg width="20" height="18" viewBox="0 0 20 18" fill="none" xmlns="http://www.w3.org/2000/svg">
<path d="M18.159 0H9.37222C8.35538 0 7.53125 0.82428 7.53125 1.84097V6.16913C7.99573 6.39999 8.49759 6.64963 8.96603 6.88248L9.68274 5.44846C10.1167 4.5813 11.1746 4.22897 12.0414 4.66217C12.9101 5.09689 13.2621 6.15189 12.8273 7.02072L11.5497 9.57657C11.5835 9.91486 11.5535 10.2559 11.4581 10.5859H12.3016L10.0769 16.7035C9.94489 17.0663 10.2 17.4898 10.6277 17.4898C10.8668 17.4898 11.0917 17.3422 11.1781 17.1039L13.5484 10.5859H13.959L16.3534 17.1059C16.4406 17.343 16.6649 17.4898 16.9038 17.4898C17.3034 17.4898 17.5964 17.0906 17.4534 16.702L15.2073 10.5859H18.159C19.1757 10.5859 20 9.76166 20 8.74496V1.84097C20 0.82428 19.1757 0 18.159 0V0ZM16.9035 8.07571H14.2746C13.9511 8.07571 13.6886 7.81326 13.6886 7.48978C13.6886 7.16599 13.9511 6.90384 14.2746 6.90384H16.9035C17.2273 6.90384 17.4894 7.16599 17.4894 7.48978C17.4894 7.81326 17.2273 8.07571 16.9035 8.07571ZM16.9035 5.87891H14.2746C13.9511 5.87891 13.6886 5.61676 13.6886 5.29297C13.6886 4.96948 13.9511 4.70703 14.2746 4.70703H16.9035C17.2273 4.70703 17.4894 4.96948 17.4894 5.29297C17.4894 5.61676 17.2273 5.87891 16.9035 5.87891ZM16.9035 3.6824H10.6277C10.3039 3.6824 10.0418 3.41995 10.0418 3.09647C10.0418 2.77298 10.3039 2.51053 10.6277 2.51053H16.9035C17.2273 2.51053 17.4894 2.77298 17.4894 3.09647C17.4894 3.41995 17.2273 3.6824 16.9035 3.6824Z" fill="white"/>
<path d="M10.3094 10.3346C10.4153 10.0244 10.4146 9.70032 10.3252 9.4046L11.7793 6.49658C11.924 6.20712 11.8068 5.8551 11.5173 5.71045C11.228 5.56564 10.876 5.68298 10.7312 5.97244L9.49097 8.45261C8.74969 8.0835 7.62344 7.5235 6.71616 7.0723C5.87204 6.65253 5.26962 6.27609 4.24179 6.27609H3.72406C4.52438 6.27609 5.23865 5.90775 5.70618 5.33127C6.06293 4.89258 6.27625 4.3335 6.27625 3.72421C6.27625 2.31445 5.13367 1.17188 3.72375 1.17188C2.31445 1.17188 1.17188 2.31445 1.17188 3.72421C1.17188 4.40125 1.43555 5.01648 1.86569 5.47302C2.33078 5.96756 2.99133 6.27609 3.7236 6.27625C2.74185 6.27625 1.78207 6.67404 1.09161 7.36633C0.387726 8.06839 0 9.00375 0 10.0002V11.8829C0 12.6935 0.526276 13.3832 1.25519 13.6285V16.9037C1.25519 17.2273 1.51749 17.4896 1.84113 17.4896H5.60669C5.93033 17.4896 6.19263 17.2273 6.19263 16.9037V10.3203C6.7482 10.598 7.47803 10.9628 8.06854 11.2582C8.48251 11.4651 8.96622 11.4838 9.39758 11.3083C9.82773 11.1313 10.1593 10.779 10.3072 10.3415C10.3079 10.3392 10.3087 10.3369 10.3094 10.3346Z" fill="white"/>
</svg>
