<svg width="20" height="20" viewBox="0 0 20 20" fill="none" xmlns="http://www.w3.org/2000/svg">
<g clip-path="url(#clip0_3508_50530)">
<path d="M18.3 6.1H16.5L11.6 1.5C11.6 0.7 10.9 0 10 0C9.1 0 8.4 0.7 8.3 1.6L3.5 6.1H1.7C0.7 6.1 0 6.9 0 7.8V18.3C0 19.3 0.7 20 1.7 20H18.4C19.3 20 20.1 19.3 20.1 18.3V7.8C20 6.9 19.2 6.1 18.3 6.1ZM10 1.1C10.3 1.1 10.6 1.3 10.6 1.7C10.6 2.1 10.3 2.2 10 2.2C9.7 2.2 9.4 2 9.4 1.7C9.4 1.4 9.7 1.1 10 1.1ZM8.7 2.8C9.1 3.1 9.5 3.3 10 3.3C10.5 3.3 11 3.1 11.3 2.7L14.9 6.1H5.1L8.7 2.8ZM18.9 18.3C18.9 18.6 18.7 18.9 18.3 18.9H1.7C1.4 18.9 1.1 18.7 1.1 18.3V7.8C1.1 7.5 1.3 7.2 1.7 7.2H18.4C18.7 7.2 19 7.4 19 7.8V18.3H18.9Z" fill="white"/>
<path d="M10.1031 10.2002L9.70312 11.1002H10.4031L10.1031 10.2002Z" fill="white"/>
<path d="M7.70193 16.2998C8.20193 16.2998 8.60193 15.8998 8.60193 15.2998C8.60193 14.6998 8.10193 14.2998 7.70193 14.2998C7.20193 14.2998 6.80193 14.6998 6.80193 15.2998C6.70193 15.8998 7.20193 16.2998 7.70193 16.2998Z" fill="white"/>
<path d="M11.2984 14.3995C10.7984 14.3995 10.3984 14.7995 10.3984 15.3995C10.3984 15.9995 10.8984 16.3995 11.2984 16.3995C11.7984 16.3995 12.1984 15.9995 12.1984 15.3995C12.1984 14.7995 11.6984 14.2995 11.2984 14.3995Z" fill="white"/>
<path d="M4.30313 14.4004H3.70312V15.3004H4.20312C4.60312 15.3004 4.80313 15.2004 4.80313 14.8004C4.80313 14.5004 4.60313 14.4004 4.30313 14.4004Z" fill="white"/>
<path d="M2.20312 17.8004H17.8031V8.40039H2.20312V17.8004ZM4.90313 16.9004L4.20312 15.9004H3.70312V16.9004H3.10312V13.9004H4.30313C5.20312 13.9004 5.60312 14.1004 5.60312 14.9004C5.60312 15.4004 5.40313 15.7004 5.00312 15.8004L5.80313 16.9004H4.90313ZM11.3031 16.9004C10.4031 16.9004 9.70312 16.2004 9.70312 15.3004C9.70312 14.4004 10.4031 13.8004 11.3031 13.7004C12.2031 13.7004 12.9031 14.4004 12.9031 15.3004C12.9031 16.2004 12.2031 16.9004 11.3031 16.9004ZM15.8031 11.1004C15.2031 10.9004 14.8031 10.8004 14.8031 10.1004C14.8031 9.50039 15.3031 9.20039 15.9031 9.20039C16.3031 9.20039 16.7031 9.30039 17.1031 9.60039L16.8031 10.1004C16.5031 9.90039 16.3031 9.80039 16.0031 9.80039C15.8031 9.80039 15.6031 9.90039 15.6031 10.1004C15.6031 10.3004 15.9031 10.4004 16.3031 10.5004C16.9031 10.6004 17.2031 11.0004 17.2031 11.5004C17.2031 12.0004 16.7031 12.5004 16.1031 12.4004C15.6031 12.4004 15.2031 12.2004 14.8031 11.9004L15.2031 11.4004C15.5031 11.7004 15.8031 11.8004 16.1031 11.8004C16.3031 11.8004 16.5031 11.7004 16.5031 11.5004C16.4031 11.3004 16.1031 11.2004 15.8031 11.1004ZM15.2031 15.5004L16.0031 13.8004H16.9031V16.8004H16.2031V15.0004L15.4031 16.7004H15.0031L14.2031 15.0004V16.9004H13.5031V13.9004H14.4031L15.2031 15.5004ZM13.0031 11.1004C12.4031 10.9004 12.0031 10.8004 12.0031 10.1004C12.0031 9.50039 12.5031 9.20039 13.1031 9.20039C13.5031 9.20039 13.9031 9.30039 14.3031 9.60039L14.0031 10.1004C13.7031 9.90039 13.5031 9.80039 13.2031 9.80039C13.0031 9.80039 12.8031 9.90039 12.8031 10.1004C12.8031 10.3004 13.1031 10.4004 13.5031 10.5004C14.1031 10.6004 14.4031 10.9004 14.4031 11.5004C14.4031 12.0004 13.9031 12.5004 13.3031 12.4004C12.8031 12.4004 12.4031 12.2004 12.0031 11.9004L12.4031 11.4004C12.7031 11.7004 13.0031 11.8004 13.3031 11.8004C13.5031 11.8004 13.7031 11.7004 13.7031 11.5004C13.6031 11.3004 13.3031 11.2004 13.0031 11.1004ZM9.70312 9.30039H10.4031L11.7031 12.4004H11.0031L10.7031 11.7004H9.40312L9.10313 12.4004H8.40312L9.70312 9.30039ZM6.30313 9.30039H7.00313V11.8004H8.30313V12.4004H6.30313V9.30039ZM7.70312 13.8004C8.60313 13.8004 9.30313 14.5004 9.30313 15.4004C9.30313 16.3004 8.60313 16.9004 7.70312 17.0004C6.80312 17.0004 6.10312 16.3004 6.10312 15.4004C6.00312 14.4004 6.70312 13.8004 7.70312 13.8004ZM4.50312 9.20039C5.00312 9.20039 5.40313 9.40039 5.80313 9.80039L5.40313 10.3004C5.10313 10.0004 4.90313 9.90039 4.50312 9.90039C4.00312 9.90039 3.50312 10.3004 3.60312 10.8004C3.60312 11.3004 3.90312 11.7004 4.50312 11.7004C4.80312 11.7004 5.10313 11.6004 5.30313 11.3004L5.70312 11.8004C5.40312 12.2004 4.90313 12.4004 4.50312 12.4004C3.60312 12.4004 2.90313 11.7004 2.90313 10.8004C2.90313 9.80039 3.70312 9.20039 4.50312 9.20039Z" fill="white"/>
</g>
<defs>
<clipPath id="clip0_3508_50530">
<rect width="20" height="20" fill="white"/>
</clipPath>
</defs>
</svg>
