<svg width="20" height="20" viewBox="0 0 20 20" fill="none" xmlns="http://www.w3.org/2000/svg">
<g clip-path="url(#clip0_2231_32132)">
<path d="M18.3 6.1H16.5L11.6 1.5C11.6 0.7 10.9 0 10 0C9.1 0 8.4 0.7 8.3 1.6L3.5 6.1H1.7C0.7 6.1 0 6.9 0 7.8V18.3C0 19.3 0.7 20 1.7 20H18.4C19.3 20 20.1 19.3 20.1 18.3V7.8C20 6.9 19.2 6.1 18.3 6.1ZM10 1.1C10.3 1.1 10.6 1.3 10.6 1.7C10.6 2.1 10.3 2.2 10 2.2C9.7 2.2 9.4 2 9.4 1.7C9.4 1.4 9.7 1.1 10 1.1ZM8.7 2.8C9.1 3.1 9.5 3.3 10 3.3C10.5 3.3 11 3.1 11.3 2.7L14.9 6.1H5.1L8.7 2.8ZM18.9 18.3C18.9 18.6 18.7 18.9 18.3 18.9H1.7C1.4 18.9 1.1 18.7 1.1 18.3V7.8C1.1 7.5 1.3 7.2 1.7 7.2H18.4C18.7 7.2 19 7.4 19 7.8V18.3H18.9Z" fill="#2257AA"/>
<path d="M10.1002 10.1992L9.7002 11.0992H10.4002L10.1002 10.1992Z" fill="#2257AA"/>
<path d="M7.69998 16.3008C8.19998 16.3008 8.59998 15.9008 8.59998 15.3008C8.59998 14.7008 8.09998 14.3008 7.69998 14.3008C7.19998 14.3008 6.79998 14.7008 6.79998 15.3008C6.69998 15.9008 7.19998 16.3008 7.69998 16.3008Z" fill="#2257AA"/>
<path d="M11.2999 14.3995C10.7999 14.3995 10.3999 14.7995 10.3999 15.3995C10.3999 15.9995 10.8999 16.3995 11.2999 16.3995C11.7999 16.3995 12.1999 15.9995 12.1999 15.3995C12.1999 14.7995 11.6999 14.2995 11.2999 14.3995Z" fill="#2257AA"/>
<path d="M4.3002 14.4004H3.7002V15.3004H4.2002C4.6002 15.3004 4.8002 15.2004 4.8002 14.8004C4.8002 14.5004 4.6002 14.4004 4.3002 14.4004Z" fill="#2257AA"/>
<path d="M2.2002 17.8004H17.8002V8.40039H2.2002V17.8004ZM4.9002 16.9004L4.2002 15.9004H3.7002V16.9004H3.1002V13.9004H4.3002C5.2002 13.9004 5.6002 14.1004 5.6002 14.9004C5.6002 15.4004 5.4002 15.7004 5.0002 15.8004L5.8002 16.9004H4.9002ZM11.3002 16.9004C10.4002 16.9004 9.7002 16.2004 9.7002 15.3004C9.7002 14.4004 10.4002 13.8004 11.3002 13.7004C12.2002 13.7004 12.9002 14.4004 12.9002 15.3004C12.9002 16.2004 12.2002 16.9004 11.3002 16.9004ZM15.8002 11.1004C15.2002 10.9004 14.8002 10.8004 14.8002 10.1004C14.8002 9.50039 15.3002 9.20039 15.9002 9.20039C16.3002 9.20039 16.7002 9.30039 17.1002 9.60039L16.8002 10.1004C16.5002 9.90039 16.3002 9.80039 16.0002 9.80039C15.8002 9.80039 15.6002 9.90039 15.6002 10.1004C15.6002 10.3004 15.9002 10.4004 16.3002 10.5004C16.9002 10.6004 17.2002 11.0004 17.2002 11.5004C17.2002 12.0004 16.7002 12.5004 16.1002 12.4004C15.6002 12.4004 15.2002 12.2004 14.8002 11.9004L15.2002 11.4004C15.5002 11.7004 15.8002 11.8004 16.1002 11.8004C16.3002 11.8004 16.5002 11.7004 16.5002 11.5004C16.4002 11.3004 16.1002 11.2004 15.8002 11.1004ZM15.2002 15.5004L16.0002 13.8004H16.9002V16.8004H16.2002V15.0004L15.4002 16.7004H15.0002L14.2002 15.0004V16.9004H13.5002V13.9004H14.4002L15.2002 15.5004ZM13.0002 11.1004C12.4002 10.9004 12.0002 10.8004 12.0002 10.1004C12.0002 9.50039 12.5002 9.20039 13.1002 9.20039C13.5002 9.20039 13.9002 9.30039 14.3002 9.60039L14.0002 10.1004C13.7002 9.90039 13.5002 9.80039 13.2002 9.80039C13.0002 9.80039 12.8002 9.90039 12.8002 10.1004C12.8002 10.3004 13.1002 10.4004 13.5002 10.5004C14.1002 10.6004 14.4002 10.9004 14.4002 11.5004C14.4002 12.0004 13.9002 12.5004 13.3002 12.4004C12.8002 12.4004 12.4002 12.2004 12.0002 11.9004L12.4002 11.4004C12.7002 11.7004 13.0002 11.8004 13.3002 11.8004C13.5002 11.8004 13.7002 11.7004 13.7002 11.5004C13.6002 11.3004 13.3002 11.2004 13.0002 11.1004ZM9.7002 9.30039H10.4002L11.7002 12.4004H11.0002L10.7002 11.7004H9.4002L9.1002 12.4004H8.4002L9.7002 9.30039ZM6.3002 9.30039H7.0002V11.8004H8.3002V12.4004H6.3002V9.30039ZM7.7002 13.8004C8.6002 13.8004 9.3002 14.5004 9.3002 15.4004C9.3002 16.3004 8.6002 16.9004 7.7002 17.0004C6.8002 17.0004 6.1002 16.3004 6.1002 15.4004C6.0002 14.4004 6.7002 13.8004 7.7002 13.8004ZM4.5002 9.20039C5.0002 9.20039 5.4002 9.40039 5.8002 9.80039L5.4002 10.3004C5.1002 10.0004 4.9002 9.90039 4.5002 9.90039C4.0002 9.90039 3.5002 10.3004 3.6002 10.8004C3.6002 11.3004 3.9002 11.7004 4.5002 11.7004C4.8002 11.7004 5.1002 11.6004 5.3002 11.3004L5.7002 11.8004C5.4002 12.2004 4.9002 12.4004 4.5002 12.4004C3.6002 12.4004 2.9002 11.7004 2.9002 10.8004C2.9002 9.80039 3.7002 9.20039 4.5002 9.20039Z" fill="#2257AA"/>
</g>
<defs>
<clipPath id="clip0_2231_32132">
<rect width="20" height="20" fill="white"/>
</clipPath>
</defs>
</svg>
