<svg width="29" height="28" viewBox="0 0 29 28" fill="none" xmlns="http://www.w3.org/2000/svg">
<path d="M7.53636 3.44306C8.48842 3.44306 9.26022 2.67231 9.26022 1.72153C9.26022 0.770756 8.48842 0 7.53636 0C6.5843 0 5.8125 0.770756 5.8125 1.72153C5.8125 2.67231 6.5843 3.44306 7.53636 3.44306Z" fill="#2257AA"/>
<path d="M5.44579 15.5625C4.43809 15.5625 3.62109 16.3783 3.62109 17.3847C3.62109 18.3865 4.43328 19.207 5.44579 19.207C6.44637 19.207 7.27054 18.3975 7.27054 17.3847C7.27054 16.3783 6.45355 15.5625 5.44579 15.5625Z" fill="#2257AA"/>
<path d="M26.2023 0.902344H12.9309C12.6002 0.902344 12.332 1.1701 12.332 1.50045V6.16079L12.9963 5.74894C13.1653 5.64409 13.3458 5.57336 13.5298 5.5345V2.09855H25.6033V10.7246H13.5299V9.32893L12.332 10.0717V11.3227C12.332 11.6531 12.6002 11.9208 12.9309 11.9208H26.2023C26.533 11.9208 26.8012 11.6531 26.8012 11.3227V1.50045C26.8012 1.1701 26.533 0.902344 26.2023 0.902344Z" fill="#2257AA"/>
<path d="M17.4951 4.22015C17.3376 4.02058 17.0479 3.98646 16.8481 4.14371L14.7852 5.7681C14.9821 5.89667 15.1549 6.0689 15.2872 6.28167C15.3247 6.34189 15.3573 6.40383 15.3862 6.46663L17.4186 4.86628C17.6185 4.70898 17.6527 4.41966 17.4951 4.22015Z" fill="#2257AA"/>
<path d="M14.58 6.72226C14.3377 6.33256 13.825 6.21278 13.4346 6.45472L11.7501 7.49917C11.7431 6.1041 11.7468 6.84447 11.7423 5.94605C11.7369 4.86763 10.8539 3.99023 9.774 3.99023H8.95571C8.25662 5.80087 8.48182 5.12876 7.88842 6.66566L8.13797 5.58045C8.15524 5.49916 8.14272 5.41441 8.10261 5.34164L7.76448 4.72747L8.06455 4.18252C8.1093 4.10123 8.0503 4.00161 7.9574 4.00161H7.13307C7.04022 4.00161 6.98112 4.10123 7.02592 4.18252L7.32659 4.7286L6.98781 5.3439C6.94851 5.41533 6.93566 5.49835 6.95153 5.57824L7.16773 6.66566C7.05118 6.36383 6.24553 4.27724 6.1347 3.99023H5.29984C4.21997 3.99023 3.33696 4.86758 3.33151 5.94605L3.30079 12.0484C3.29852 12.5071 3.66899 12.8809 4.12836 12.8832C4.12982 12.8832 4.13117 12.8832 4.13263 12.8832C4.59 12.8832 4.96198 12.514 4.96425 12.0567L4.99496 5.9544C4.99496 5.95343 4.99496 5.95246 4.99496 5.95155C4.99626 5.86098 5.07048 5.78842 5.16117 5.78912C5.25186 5.78977 5.32495 5.86341 5.32495 5.95397L5.32532 14.5997C6.08677 14.5673 6.79229 14.8416 7.32157 15.3233V11.9504H7.75249V15.8195C8.05603 16.2652 8.23367 16.8029 8.23367 17.3814C8.23367 17.9085 8.0862 18.4018 7.8305 18.8224C8.09316 18.8237 8.34827 18.8585 8.59156 18.9227C8.91955 18.6386 9.31409 18.4294 9.74874 18.3224C9.74874 3.26383 9.73066 12.5744 9.73066 5.9551C9.73066 5.8592 9.80833 5.78147 9.90437 5.78131C10.0004 5.78109 10.0784 5.8585 10.0788 5.9544C10.0817 6.53698 10.0909 8.35813 10.0941 8.99214C10.0956 9.29289 10.2598 9.56938 10.5234 9.71487C10.7865 9.8601 11.1083 9.85255 11.3646 9.69363L14.3121 7.86601C14.7023 7.62413 14.8223 7.11196 14.58 6.72226Z" fill="#2257AA"/>
<path d="M24.145 19.2206C25.1528 19.2206 25.9697 18.4048 25.9697 17.3984C25.9697 16.392 25.1528 15.5762 24.145 15.5762C23.1373 15.5762 22.3203 16.392 22.3203 17.3984C22.3203 18.4048 23.1373 19.2206 24.145 19.2206Z" fill="#2257AA"/>
<path d="M28.5851 21.8749C28.5793 20.7334 27.6447 19.8047 26.5016 19.8047C26.0084 19.8047 22.3676 19.8047 21.9251 19.8047C22.1214 20.1857 22.233 20.617 22.233 21.0742C22.233 21.5596 22.1032 22.0668 21.8281 22.518C22.8486 22.5591 23.7427 23.1061 24.2653 23.914H26.4557V21.8962C26.4557 21.7969 26.5346 21.7155 26.6339 21.7121C26.7333 21.7087 26.8176 21.7846 26.8243 21.8837C26.8243 21.8837 26.8243 21.8837 26.8243 21.8838L26.8345 23.914H28.5954L28.5851 21.8749Z" fill="#2257AA"/>
<path d="M16.6592 21.0727C16.6592 20.6075 16.7746 20.169 16.9773 19.7832C15.7893 19.7832 14.3942 19.7832 12.9144 19.7832C13.1018 20.1573 13.2079 20.5787 13.2079 21.0246C13.2079 21.5487 13.0605 22.0449 12.8047 22.4656C13.6445 22.4696 14.4193 22.8181 14.9792 23.3965C15.5219 22.867 16.2617 22.5386 17.0756 22.5342C16.793 22.0786 16.6592 21.567 16.6592 21.0727Z" fill="#2257AA"/>
<path d="M15.2701 15.5586C14.2624 15.5586 13.4453 16.3743 13.4453 17.3808C13.4453 18.385 14.2608 19.2031 15.2701 19.2031C16.2697 19.2031 17.0948 18.3963 17.0948 17.3808C17.0948 16.3755 16.2794 15.5586 15.2701 15.5586Z" fill="#2257AA"/>
<path d="M7.62833 21.0229C7.62833 20.578 7.73392 20.1575 7.92042 19.7841C7.84177 19.7802 8.17261 19.7814 3.08999 19.7814C1.95273 19.7814 1.01223 20.7053 1.00646 21.8517L0.996094 23.9107C1.80078 23.9107 1.96267 23.9107 2.75699 23.9107L2.7673 21.8606C2.76784 21.759 2.85048 21.6772 2.95207 21.6775C3.05366 21.6778 3.13582 21.7601 3.13582 21.8615V23.9107H5.60418C6.13615 23.0615 7.05085 22.5282 8.04641 22.4873C7.77618 22.0527 7.62833 21.5512 7.62833 21.0229Z" fill="#2257AA"/>
<path d="M23.7847 25.5403C23.779 24.3986 22.8443 23.4699 21.7012 23.4699C21.58 23.4699 17.2225 23.4699 17.0855 23.4699C15.9424 23.4699 14.9478 24.3986 14.942 25.5402L14.9272 25.4921C14.9215 24.3551 13.9911 23.4219 12.8437 23.4219C11.5188 23.4219 9.61597 23.4219 8.22803 23.4219C7.08495 23.4219 6.09036 24.3505 6.08458 25.4921L6.07422 27.5992H7.83511L7.84542 25.501C7.84585 25.4135 7.91705 25.343 8.00455 25.3432C8.09206 25.3435 8.16282 25.4144 8.16282 25.5018V27.5992C9.19498 27.5992 11.8596 27.5992 12.8263 27.5992V25.5018C12.8263 25.4082 12.9021 25.3323 12.9958 25.332C13.0895 25.3318 13.1658 25.4073 13.1663 25.5009L13.1766 27.5992C13.5366 27.5992 16.3203 27.5992 16.6926 27.5992L16.7029 25.549C16.7029 25.549 16.7029 25.549 16.7029 25.5489C16.7034 25.4615 16.7746 25.3911 16.8621 25.3913C16.9496 25.3915 17.0203 25.4624 17.0203 25.5498V27.5992C18.0524 27.5992 20.717 27.5992 21.6838 27.5992V25.5498C21.6838 25.4562 21.7596 25.3803 21.8533 25.3801C21.947 25.3798 22.0233 25.4554 22.0238 25.549L22.0341 27.5991H23.795L23.7847 25.5403Z" fill="#2257AA"/>
<path d="M10.4749 22.8609C11.4945 22.8609 12.3209 22.0355 12.3209 21.0174C12.3209 19.9992 11.4945 19.1738 10.4749 19.1738C9.4554 19.1738 8.62891 19.9992 8.62891 21.0174C8.62891 22.0355 9.4554 22.8609 10.4749 22.8609Z" fill="#2257AA"/>
<path d="M19.4398 22.9117C20.4593 22.9117 21.2858 22.0863 21.2858 21.0681C21.2858 20.05 20.4593 19.2246 19.4398 19.2246C18.4202 19.2246 17.5938 20.05 17.5938 21.0681C17.5938 22.0863 18.4202 22.9117 19.4398 22.9117Z" fill="#2257AA"/>
</svg>
