<svg width="20" height="20" viewBox="0 0 20 20" fill="none" xmlns="http://www.w3.org/2000/svg">
<g clip-path="url(#clip0_118_21748)">
<path d="M9.99996 0C4.49376 0 0 4.4938 0 10C0 15.524 4.49376 20 9.99996 20C15.5239 20 19.9999 15.5063 19.9999 10C20.0176 4.4938 15.5239 0 9.99996 0ZM9.99996 18.5969C5.27529 18.5969 1.42096 14.7425 1.42096 10.0178C1.42096 5.27532 5.27529 1.42096 9.99996 1.42096C14.7247 1.42096 18.5789 5.27532 18.5789 10C18.5967 14.7425 14.7424 18.5969 9.99996 18.5969Z" fill="#7A7A7A"/>
<path d="M4.96706 8.76953C5.16706 8.65286 5.40039 8.5862 5.66706 8.5862C5.91706 8.5862 6.11706 8.6362 6.31706 8.75286C6.50039 8.85286 6.65039 9.01953 6.75039 9.2362H7.78372C7.63372 8.7862 7.36706 8.4362 7.00039 8.16953C6.63372 7.90286 6.16706 7.76953 5.66706 7.76953C5.23372 7.76953 4.85039 7.86953 4.51706 8.05286C4.16706 8.25286 3.90039 8.51953 3.70039 8.86953C3.50039 9.21953 3.40039 9.61953 3.40039 10.0529C3.40039 10.4862 3.50039 10.8862 3.70039 11.2362C3.90039 11.5862 4.16706 11.8529 4.51706 12.0529C4.86706 12.2529 5.25039 12.3362 5.66706 12.3362C6.16706 12.3362 6.61706 12.2029 6.98372 11.9529C7.35039 11.7029 7.61706 11.3362 7.76706 10.8862H6.73372C6.63372 11.1029 6.48372 11.2529 6.30039 11.3695C6.11706 11.4862 5.90039 11.5362 5.65039 11.5362C5.38372 11.5362 5.15039 11.4695 4.95039 11.3529C4.75039 11.2362 4.58372 11.0529 4.48372 10.8362C4.36706 10.6195 4.31706 10.3529 4.31706 10.0529C4.31706 9.75286 4.36706 9.4862 4.48372 9.26953C4.61706 9.05286 4.76706 8.8862 4.96706 8.76953Z" fill="#7A7A7A"/>
<path d="M10.3836 11.3859L9.15026 7.83594H8.18359L9.83359 12.3026H10.9169L12.5503 7.83594H11.6003L10.3836 11.3859Z" fill="#7A7A7A"/>
<path d="M15.3663 10.4859C15.6996 10.4026 15.9496 10.2359 16.1329 10.0026C16.2996 9.76927 16.3829 9.5026 16.3829 9.2026C16.3829 8.9526 16.3163 8.71927 16.1996 8.5026C16.0829 8.28594 15.8996 8.13594 15.6496 8.0026C15.3996 7.86927 15.1163 7.83594 14.7663 7.83594H13.0996V12.3026H13.9996V10.5693H14.4163L15.3996 12.3193H16.4329L15.3663 10.4859ZM14.7329 9.88594H13.9996V8.56927H14.7496C14.9996 8.56927 15.1663 8.61927 15.2996 8.73594C15.4163 8.8526 15.4829 9.0026 15.4829 9.21927C15.4829 9.43594 15.4163 9.58594 15.2996 9.7026C15.1663 9.83594 14.9829 9.88594 14.7329 9.88594Z" fill="#7A7A7A"/>
</g>
<defs>
<clipPath id="clip0_118_21748">
<rect width="20" height="20" fill="white"/>
</clipPath>
</defs>
</svg>
