<svg width="20" height="21" viewBox="0 0 20 21" fill="none" xmlns="http://www.w3.org/2000/svg">
<g clip-path="url(#clip0_3804_595)">
<path d="M10 0.5C8.02219 0.5 6.08879 1.08649 4.4443 2.1853C2.79981 3.28412 1.51809 4.8459 0.761209 6.67316C0.00433286 8.50043 -0.193701 10.5111 0.192152 12.4509C0.578004 14.3907 1.53041 16.1725 2.92894 17.5711C4.32746 18.9696 6.10929 19.922 8.0491 20.3078C9.98891 20.6937 11.9996 20.4957 13.8268 19.7388C15.6541 18.9819 17.2159 17.7002 18.3147 16.0557C19.4135 14.4112 20 12.4778 20 10.5C20 7.84783 18.9464 5.3043 17.0711 3.42893C15.1957 1.55357 12.6522 0.5 10 0.5ZM13.2804 16.9417H6.71959C6.49857 16.9417 6.28661 16.8539 6.13033 16.6976C5.97405 16.5413 5.88625 16.3293 5.88625 16.1083C5.88625 15.8873 5.97405 15.6754 6.13033 15.5191C6.28661 15.3628 6.49857 15.275 6.71959 15.275H13.2804C13.5014 15.275 13.7134 15.3628 13.8697 15.5191C14.026 15.6754 14.1138 15.8873 14.1138 16.1083C14.1138 16.3293 14.026 16.5413 13.8697 16.6976C13.7134 16.8539 13.5014 16.9417 13.2804 16.9417ZM13.8696 10.6733L10.5867 13.9583C10.4304 14.1146 10.2185 14.2023 9.9975 14.2023C9.77653 14.2023 9.56461 14.1146 9.40834 13.9583L6.13042 10.6808C5.97383 10.5246 5.88573 10.3125 5.8855 10.0913C5.88526 9.87008 5.97291 9.65784 6.12917 9.50125C6.28543 9.34466 6.49749 9.25656 6.7187 9.25632C6.93992 9.25609 7.15217 9.34374 7.30875 9.5L9.16667 11.3579V3.98542C9.16667 3.7644 9.25447 3.55244 9.41075 3.39616C9.56703 3.23988 9.77899 3.15208 10 3.15208C10.221 3.15208 10.433 3.23988 10.5893 3.39616C10.7455 3.55244 10.8333 3.7644 10.8333 3.98542V11.3529L12.6913 9.495C12.8484 9.3432 13.0589 9.2592 13.2774 9.2611C13.4959 9.263 13.7049 9.35064 13.8594 9.50515C14.0139 9.65966 14.1016 9.86867 14.1035 10.0872C14.1054 10.3057 14.0214 10.5162 13.8696 10.6733Z" fill="#F64242"/>
</g>
<defs>
<clipPath id="clip0_3804_595">
<rect width="20" height="20" fill="white" transform="translate(0 0.5)"/>
</clipPath>
</defs>
</svg>
