<svg width="20" height="20" viewBox="0 0 20 20" fill="none" xmlns="http://www.w3.org/2000/svg">
<g clip-path="url(#clip0_2231_32127)">
<path d="M9.4514 0.0149227C11.0786 -0.0740683 12.7279 0.235656 14.2052 0.925485C16.3421 1.91036 18.1063 3.67708 19.0851 5.817C19.9559 7.6917 20.2112 9.84114 19.8247 11.8705C19.5019 13.5918 18.7114 15.2221 17.562 16.543C16.505 17.7684 15.1452 18.7295 13.638 19.3188C11.7451 20.0583 9.62549 20.2009 7.65097 19.7213C5.51662 19.2155 3.57147 17.9719 2.20128 16.2613C1.13431 14.9361 0.412502 13.3348 0.136914 11.6554C-0.140845 9.99361 0.00472594 8.26146 0.567151 6.67314C1.04231 5.3211 1.8151 4.07577 2.81337 3.04771C4.53865 1.24773 6.96026 0.138894 9.4514 0.0149227ZM7.53175 2.22525C6.01554 2.70516 4.65182 3.64597 3.6557 4.88483C2.71402 6.04939 2.10322 7.47701 1.91359 8.96295C2.54469 8.98498 3.16801 8.85929 3.78746 8.75605C5.10279 8.51631 6.41857 8.26534 7.75075 8.1349C8.99827 8.0066 10.2571 7.9768 11.5085 8.0701C13.0475 8.17377 14.5668 8.45152 16.0812 8.73272C16.7422 8.84461 17.4052 8.98282 18.0787 8.96685C17.8774 7.23512 17.0691 5.58763 15.8601 4.33624C14.8311 3.26627 13.505 2.484 12.0683 2.10863C10.5858 1.71856 8.99179 1.75787 7.53175 2.22525ZM9.79525 9.17117C8.94427 9.24287 8.18618 9.89599 7.97711 10.7219C7.81167 11.3408 7.94988 12.0333 8.34989 12.5353C8.76285 13.0743 9.4527 13.3897 10.1313 13.3387C10.651 13.3116 11.1538 13.0735 11.5119 12.6972C11.8661 12.3297 12.079 11.829 12.0912 11.3184C12.1175 10.6705 11.816 10.0209 11.3067 9.61997C10.8881 9.27829 10.3322 9.11501 9.79525 9.17117ZM1.86261 10.4048C1.95204 12.4411 2.8488 14.4268 4.31619 15.841C4.90798 15.2406 5.13865 14.3339 4.97623 13.5149C4.89933 13.1041 4.66349 12.7521 4.48724 12.3802C4.28465 12.0122 4.13951 11.6044 3.85441 11.2878C3.35463 10.7314 2.61121 10.3992 1.86261 10.4048ZM15.8964 11.6342C15.6868 12.0346 15.486 12.4398 15.2782 12.8416C14.7435 13.7849 14.9266 15.0718 15.6851 15.842C17.1499 14.4251 18.0484 12.4415 18.1386 10.4048C17.2523 10.4005 16.3507 10.8622 15.8964 11.6342ZM7.84578 14.8622C7.50237 14.9084 7.16673 15.0799 6.96803 15.3702C6.72094 15.7218 6.70884 16.1914 6.84535 16.5884C6.95939 16.9918 7.09373 17.4125 7.39438 17.7187C8.97581 18.2778 10.737 18.2985 12.3399 17.8113C12.4523 17.7693 12.5935 17.7619 12.667 17.6553C12.8307 17.4462 12.9633 17.2112 13.0414 16.9568C13.1284 16.6656 13.2445 16.375 13.2419 16.0666C13.2459 15.708 13.0864 15.3439 12.7983 15.1253C12.546 14.9262 12.2199 14.8432 11.9019 14.8445C10.7503 14.8441 9.5987 14.8445 8.44709 14.8445C8.24665 14.8458 8.04492 14.8341 7.84578 14.8622Z" fill="#2257AA"/>
<path d="M9.86226 10.0999C10.1832 10.0521 10.5249 10.1769 10.7367 10.4238C10.9507 10.66 11.0321 11.0054 10.9533 11.313C10.8659 11.6625 10.5734 11.9494 10.2221 12.029C9.91076 12.1009 9.56498 12.0116 9.3336 11.7895C9.05224 11.5363 8.94487 11.1098 9.07334 10.7537C9.18736 10.4108 9.50463 10.1487 9.86226 10.0999Z" fill="#2257AA"/>
</g>
<defs>
<clipPath id="clip0_2231_32127">
<rect width="20" height="20" fill="white"/>
</clipPath>
</defs>
</svg>
