<svg width="20" height="20" viewBox="0 0 20 20" fill="none" xmlns="http://www.w3.org/2000/svg">
<rect width="20" height="20" fill="#E5E5E5"/>
<g clip-path="url(#clip0_125_9183)">
<path d="M19.0896 9.09182C18.8485 9.09182 18.6174 9.18758 18.4469 9.35803C18.2765 9.52848 18.1807 9.75965 18.1807 10.0007V15.454C18.1807 16.1772 17.8934 16.8707 17.3821 17.3821C16.8707 17.8934 16.1772 18.1807 15.454 18.1807H4.54737C3.82422 18.1807 3.13068 17.8934 2.61933 17.3821C2.10798 16.8707 1.82071 16.1772 1.82071 15.454V4.54737C1.82071 3.82422 2.10798 3.13068 2.61933 2.61933C3.13068 2.10798 3.82422 1.82071 4.54737 1.82071H10.0007C10.2418 1.82071 10.4729 1.72495 10.6434 1.5545C10.8138 1.38405 10.9096 1.15287 10.9096 0.911819C10.9096 0.670766 10.8138 0.439587 10.6434 0.269137C10.4729 0.0986873 10.2418 0.00292969 10.0007 0.00292969H4.54737C3.95059 0.00292969 3.35965 0.120475 2.80829 0.348855C2.25693 0.577235 1.75596 0.911976 1.33397 1.33397C0.481718 2.18622 0.00292969 3.34211 0.00292969 4.54737V15.454C0.00292969 16.0508 0.120475 16.6418 0.348855 17.1931C0.577235 17.7445 0.911976 18.2455 1.33397 18.6674C2.18622 19.5197 3.34211 19.9985 4.54737 19.9985H15.454C16.0508 19.9985 16.6418 19.8809 17.1931 19.6526C17.7445 19.4242 18.2455 19.0894 18.6674 18.6674C19.0894 18.2455 19.4242 17.7445 19.6526 17.1931C19.8809 16.6418 19.9985 16.0508 19.9985 15.454V10.0007C19.9985 9.75965 19.9027 9.52848 19.7323 9.35803C19.5618 9.18758 19.3306 9.09182 19.0896 9.09182Z" fill="#7A7A7A"/>
<path d="M6.25589 8.60122C6.00153 8.85525 5.79992 9.15707 5.66266 9.48932C5.52539 9.82156 5.45518 10.1777 5.45606 10.5371V11.8187C5.45606 12.5418 5.74334 13.2354 6.25469 13.7467C6.76603 14.2581 7.45957 14.5453 8.18273 14.5453H9.46426C9.82374 14.5462 10.1799 14.476 10.5121 14.3388C10.8443 14.2015 11.1462 13.9999 11.4002 13.7455L19.1985 5.94726C19.4527 5.69394 19.6544 5.39294 19.792 5.06151C19.9296 4.73008 20.0004 4.37474 20.0004 4.01587C20.0004 3.657 19.9296 3.30167 19.792 2.97023C19.6544 2.6388 19.4527 2.3378 19.1985 2.08448L17.9169 0.802949C17.6636 0.548751 17.3626 0.347059 17.0312 0.209438C16.6997 0.071818 16.3444 0.000976563 15.9855 0.000976562C15.6267 0.000976562 15.2713 0.071818 14.9399 0.209438C14.6085 0.347059 14.3075 0.548751 14.0541 0.802949L6.25589 8.60122ZM16.6263 2.08448L17.9169 3.3751C18.0862 3.5454 18.1812 3.77576 18.1812 4.01587C18.1812 4.25599 18.0862 4.48635 17.9169 4.65664L17.1353 5.45646L14.545 2.86613L15.3266 2.08448C15.4112 1.99791 15.5123 1.92913 15.6239 1.88217C15.7355 1.83521 15.8554 1.81102 15.9765 1.81102C16.0975 1.81102 16.2174 1.83521 16.329 1.88217C16.4406 1.92913 16.5417 1.99791 16.6263 2.08448V2.08448ZM7.27384 10.5371C7.27315 10.4175 7.29608 10.299 7.34131 10.1882C7.38654 10.0775 7.45318 9.97676 7.53742 9.89184L13.2725 4.15675L15.8447 6.7289L10.1096 12.464C10.0246 12.5482 9.92393 12.6149 9.81319 12.6601C9.70245 12.7053 9.58388 12.7283 9.46426 12.7276H8.18273C7.94168 12.7276 7.7105 12.6318 7.54005 12.4614C7.3696 12.2909 7.27384 12.0597 7.27384 11.8187V10.5371Z" fill="#7A7A7A"/>
</g>
<rect x="-278.5" y="-207.5" width="372" height="377" rx="4.5" stroke="#9747FF" stroke-dasharray="10 5"/>
<defs>
<clipPath id="clip0_125_9183">
<rect width="20" height="20" fill="white"/>
</clipPath>
</defs>
</svg>
