<svg width="20" height="20" viewBox="0 0 20 20" fill="none" xmlns="http://www.w3.org/2000/svg">
<path fill-rule="evenodd" clip-rule="evenodd" d="M7.31366 16.1899L14.6357 6.7212C15.0336 6.21059 15.1751 5.62025 15.0424 5.01916C14.9275 4.47271 14.5914 3.95314 14.0874 3.55899L12.8582 2.58255C11.7882 1.73153 10.4618 1.82111 9.70127 2.79755L8.87887 3.86446C8.77276 3.99793 8.79929 4.19501 8.93193 4.30251C8.93193 4.30251 11.01 5.96872 11.0542 6.00455C11.1957 6.13892 11.3018 6.31808 11.3284 6.53308C11.3726 6.95411 11.0808 7.34827 10.6475 7.40201C10.4441 7.42889 10.2495 7.36618 10.108 7.24973L7.92383 5.51185C7.81771 5.43213 7.65854 5.44915 7.57011 5.55664L2.37928 12.2752C2.04325 12.6963 1.92829 13.2427 2.04325 13.7712L2.70647 16.6468C2.74184 16.7991 2.87449 16.9066 3.03366 16.9066L5.95185 16.8707C6.48242 16.8618 6.97763 16.6199 7.31366 16.1899ZM11.4004 15.293H16.1589C16.6231 15.293 17.0007 15.6755 17.0007 16.1458C17.0007 16.617 16.6231 16.9986 16.1589 16.9986H11.4004C10.9362 16.9986 10.5586 16.617 10.5586 16.1458C10.5586 15.6755 10.9362 15.293 11.4004 15.293Z" fill="#5B93FF"/>
</svg>
