<svg width="48" height="48" viewBox="0 0 48 48" fill="none" xmlns="http://www.w3.org/2000/svg">
<rect x="0.5" y="0.5" width="47" height="47" rx="9.5" fill="white" stroke="#2257AA"/>
<g clip-path="url(#clip0_327_38060)">
<path d="M23.3391 8.64727C25.9799 8.50284 28.6566 9.0055 31.0542 10.1251C34.5223 11.7234 37.3855 14.5907 38.9741 18.0637C40.3873 21.1062 40.8016 24.5946 40.1743 27.8881C39.6505 30.6818 38.3675 33.3275 36.5021 35.4713C34.7866 37.4602 32.5797 39.02 30.1337 39.9763C27.0616 41.1764 23.6216 41.4078 20.4171 40.6296C16.9532 39.8087 13.7963 37.7904 11.5725 35.0142C9.84092 32.8634 8.66947 30.2646 8.2222 27.5391C7.77142 24.8421 8.00767 22.0309 8.92045 19.4532C9.69161 17.2589 10.9458 15.2378 12.5659 13.5693C15.366 10.648 19.2961 8.84846 23.3391 8.64727ZM20.2236 12.2345C17.7629 13.0134 15.5496 14.5402 13.933 16.5508C12.4047 18.4408 11.4134 20.7578 11.1056 23.1694C12.1299 23.2051 13.1415 23.0011 14.1468 22.8336C16.2815 22.4445 18.417 22.0372 20.579 21.8255C22.6037 21.6173 24.6466 21.5689 26.6776 21.7204C29.1753 21.8886 31.641 22.3394 34.0988 22.7957C35.1716 22.9773 36.2476 23.2016 37.3406 23.1757C37.0139 20.3652 35.7022 17.6914 33.74 15.6605C32.07 13.924 29.9178 12.6544 27.5862 12.0452C25.1801 11.4122 22.5931 11.476 20.2236 12.2345ZM23.8971 23.5073C22.516 23.6237 21.2857 24.6836 20.9464 26.024C20.6779 27.0286 20.9022 28.1524 21.5514 28.9671C22.2216 29.8419 23.3412 30.3538 24.4425 30.271C25.2859 30.2269 26.1019 29.8406 26.6831 29.2299C27.258 28.6334 27.6036 27.8209 27.6233 26.9922C27.6661 25.9407 27.1767 24.8863 26.3502 24.2357C25.6707 23.6812 24.7686 23.4162 23.8971 23.5073ZM11.0229 25.5095C11.168 28.8143 12.6234 32.0368 15.0049 34.3321C15.9654 33.3576 16.3397 31.8861 16.0761 30.557C15.9513 29.8902 15.5686 29.3189 15.2825 28.7154C14.9537 28.1182 14.7182 27.4563 14.2555 26.9424C13.4444 26.0395 12.2378 25.5004 11.0229 25.5095ZM33.7989 27.5046C33.4588 28.1545 33.1329 28.8122 32.7956 29.4642C31.9277 30.9952 32.2251 33.0836 33.4559 34.3336C35.8332 32.0342 37.2915 28.8148 37.4379 25.5095C35.9995 25.5025 34.5363 26.2518 33.7989 27.5046ZM20.7332 32.7435C20.1759 32.8185 19.6312 33.0969 19.3087 33.568C18.9077 34.1386 18.8881 34.9008 19.1096 35.545C19.2947 36.1998 19.5127 36.8824 20.0006 37.3795C22.5672 38.2868 25.4255 38.3205 28.027 37.5297C28.2094 37.4615 28.4385 37.4496 28.5578 37.2765C28.8235 36.9372 29.0386 36.5558 29.1655 36.143C29.3065 35.6703 29.495 35.1986 29.4908 34.6981C29.4972 34.1162 29.2384 33.5252 28.7708 33.1706C28.3614 32.8473 27.8321 32.7127 27.3161 32.7148C25.4471 32.7142 23.5781 32.7148 21.7091 32.7148C21.3838 32.7168 21.0564 32.6979 20.7332 32.7435Z" fill="#2257AA"/>
<path d="M24.0059 25.0146C24.5267 24.9371 25.0813 25.1396 25.425 25.5403C25.7724 25.9236 25.9045 26.4842 25.7766 26.9834C25.6347 27.5506 25.16 28.0163 24.5899 28.1454C24.0846 28.2621 23.5234 28.1172 23.1479 27.7567C22.6913 27.3458 22.517 26.6536 22.7255 26.0757C22.9106 25.5192 23.4255 25.0938 24.0059 25.0146Z" fill="#2257AA"/>
</g>
<circle cx="35.2115" cy="13.4918" r="6.49176" fill="white"/>
<g clip-path="url(#clip1_327_38060)">
<path d="M35.2037 7.00098C31.6243 7.00098 28.7119 9.91332 28.7119 13.4927C28.7119 17.0722 31.6243 19.9845 35.2037 19.9845C38.7831 19.9845 41.6954 17.0722 41.6954 13.4927C41.6954 9.91332 38.7831 7.00098 35.2037 7.00098ZM38.8319 11.7844L34.683 15.9007C34.439 16.1448 34.0485 16.161 33.7882 15.917L31.5917 13.9158C31.3314 13.6717 31.3151 13.265 31.5429 13.0046C31.787 12.7443 32.1937 12.728 32.454 12.9721L34.1949 14.5666L37.9045 10.857C38.1648 10.5967 38.5716 10.5967 38.8319 10.857C39.0922 11.1173 39.0922 11.5241 38.8319 11.7844Z" fill="#2DBB55"/>
</g>
<defs>
<clipPath id="clip0_327_38060">
<rect width="32.4588" height="32.4588" fill="white" transform="translate(8 8.62305)"/>
</clipPath>
<clipPath id="clip1_327_38060">
<rect width="12.9835" height="12.9835" fill="white" transform="translate(28.7197 7)"/>
</clipPath>
</defs>
</svg>
