<svg width="48" height="48" viewBox="0 0 48 48" fill="none" xmlns="http://www.w3.org/2000/svg">
<rect x="0.5" y="0.5" width="47" height="47" rx="9.5" fill="white" stroke="#D1D0E2"/>
<path d="M15.6918 12.6723C16.8115 12.6723 17.7191 11.7659 17.7191 10.6477C17.7191 9.52951 16.8115 8.62305 15.6918 8.62305C14.5722 8.62305 13.6646 9.52951 13.6646 10.6477C13.6646 11.7659 14.5722 12.6723 15.6918 12.6723Z" fill="#787878"/>
<path d="M13.2333 26.9255C12.0482 26.9255 11.0874 27.885 11.0874 29.0686C11.0874 30.2468 12.0426 31.2117 13.2333 31.2117C14.41 31.2117 15.3792 30.2598 15.3792 29.0686C15.3792 27.885 14.4184 26.9255 13.2333 26.9255Z" fill="#787878"/>
<path d="M37.6437 9.68481H22.0364C21.6473 9.68481 21.332 9.99972 21.332 10.3882V15.8691L22.1132 15.3848C22.3119 15.2615 22.5242 15.1783 22.7406 15.1326V11.0916H36.9393V21.2365H22.7407V19.5951L21.332 20.4686V21.94C21.332 22.3285 21.6473 22.6434 22.0364 22.6434H37.6437C38.0327 22.6434 38.348 22.3285 38.348 21.94V10.3882C38.348 9.99972 38.0327 9.68481 37.6437 9.68481Z" fill="#787878"/>
<path d="M27.4038 13.5869C27.2185 13.3522 26.8778 13.312 26.6429 13.497L24.2168 15.4074C24.4484 15.5586 24.6516 15.7611 24.8072 16.0114C24.8514 16.0822 24.8896 16.155 24.9237 16.2289L27.3138 14.3468C27.5488 14.1618 27.5891 13.8215 27.4038 13.5869Z" fill="#787878"/>
<path d="M23.9765 16.5289C23.6915 16.0706 23.0886 15.9297 22.6295 16.2142L20.6485 17.4426C20.6402 15.8019 20.6446 16.6726 20.6394 15.616C20.6329 14.3477 19.5946 13.3158 18.3246 13.3158H17.3622C16.5401 15.4452 16.8049 14.6548 16.1071 16.4623L16.4005 15.186C16.4209 15.0904 16.4061 14.9907 16.359 14.9051L15.9613 14.1828L16.3142 13.5419C16.3668 13.4463 16.2974 13.3292 16.1882 13.3292H15.2188C15.1096 13.3292 15.0401 13.4463 15.0928 13.5419L15.4463 14.1842L15.0479 14.9078C15.0017 14.9918 14.9866 15.0895 15.0053 15.1834L15.2595 16.4623C15.1225 16.1073 14.175 13.6533 14.0447 13.3158H13.0629C11.7929 13.3158 10.7545 14.3476 10.748 15.616L10.7119 22.7928C10.7093 23.3323 11.1449 23.7718 11.6852 23.7746C11.6869 23.7746 11.6885 23.7746 11.6902 23.7746C12.2281 23.7746 12.6655 23.3404 12.6682 22.8026L12.7043 15.6258C12.7043 15.6247 12.7043 15.6235 12.7043 15.6224C12.7058 15.5159 12.7931 15.4306 12.8998 15.4314C13.0064 15.4322 13.0924 15.5188 13.0924 15.6253L13.0928 25.7933C13.9883 25.7553 14.818 26.0779 15.4404 26.6443V22.6776H15.9472V27.2279C16.3042 27.7521 16.5131 28.3845 16.5131 29.0648C16.5131 29.6847 16.3397 30.2649 16.0389 30.7596C16.3479 30.761 16.6479 30.802 16.934 30.8776C17.3197 30.5434 17.7837 30.2974 18.2948 30.1715C18.2948 12.4615 18.2736 23.4115 18.2736 15.6266C18.2736 15.5138 18.3649 15.4224 18.4779 15.4222C18.5908 15.422 18.6825 15.513 18.683 15.6258C18.6865 16.311 18.6973 18.4528 18.701 19.1984C18.7028 19.5521 18.8959 19.8773 19.2059 20.0484C19.5153 20.2192 19.8937 20.2103 20.1951 20.0234L23.6615 17.874C24.1203 17.5895 24.2614 16.9872 23.9765 16.5289Z" fill="#787878"/>
<path d="M35.224 31.229C36.4091 31.229 37.3699 30.2695 37.3699 29.0859C37.3699 27.9023 36.4091 26.9428 35.224 26.9428C34.0389 26.9428 33.0781 27.9023 33.0781 29.0859C33.0781 30.2695 34.0389 31.229 35.224 31.229Z" fill="#787878"/>
<path d="M40.4459 34.3495C40.4391 33.0069 39.3399 31.9147 37.9956 31.9147C37.4156 31.9147 33.1339 31.9147 32.6135 31.9147C32.8444 32.3628 32.9756 32.87 32.9756 33.4077C32.9756 33.9786 32.823 34.5751 32.4995 35.1057C33.6996 35.1541 34.7511 35.7974 35.3657 36.7475H37.9417V34.3745C37.9417 34.2577 38.0344 34.162 38.1512 34.158C38.2681 34.154 38.3672 34.2433 38.3751 34.3597C38.3751 34.3597 38.3751 34.3598 38.3751 34.3599L38.3871 36.7475H40.458L40.4459 34.3495Z" fill="#787878"/>
<path d="M26.4182 33.4074C26.4182 32.8603 26.5539 32.3446 26.7923 31.8909C25.3952 31.8909 23.7546 31.8909 22.0142 31.8909C22.2347 32.3308 22.3594 32.8264 22.3594 33.3509C22.3594 33.9672 22.1861 34.5508 21.8853 35.0456C22.8729 35.0503 23.7841 35.4601 24.4425 36.1403C25.0807 35.5176 25.9508 35.1314 26.9079 35.1263C26.5756 34.5904 26.4182 33.9887 26.4182 33.4074Z" fill="#787878"/>
<path d="M24.7871 26.9222C23.602 26.9222 22.6411 27.8816 22.6411 29.0653C22.6411 30.2463 23.6001 31.2084 24.7871 31.2084C25.9626 31.2084 26.9329 30.2596 26.9329 29.0653C26.9329 27.8829 25.974 26.9222 24.7871 26.9222Z" fill="#787878"/>
<path d="M15.7996 33.3479C15.7996 32.8248 15.9238 32.3302 16.1431 31.891C16.0507 31.8865 16.4397 31.8879 10.4625 31.8879C9.12503 31.8879 8.01898 32.9745 8.01219 34.3227L8 36.7443C8.94633 36.7443 9.13671 36.7443 10.0708 36.7443L10.083 34.3332C10.0836 34.2137 10.1808 34.1175 10.3003 34.1178C10.4197 34.1182 10.5164 34.2149 10.5164 34.3342V36.7443H13.4192C14.0448 35.7455 15.1205 35.1184 16.2913 35.0702C15.9735 34.5591 15.7996 33.9692 15.7996 33.3479Z" fill="#787878"/>
<path d="M34.7995 38.6615C34.7929 37.3188 33.6937 36.2266 32.3493 36.2266C32.2067 36.2266 27.0823 36.2266 26.9212 36.2266C25.5769 36.2266 24.4072 37.3188 24.4004 38.6614L24.383 38.6049C24.3763 37.2677 23.2821 36.1701 21.9328 36.1701C20.3747 36.1701 18.1369 36.1701 16.5046 36.1701C15.1603 36.1701 13.9907 37.2623 13.9839 38.6049L13.9717 41.0829H16.0425L16.0546 38.6153C16.0552 38.5124 16.1389 38.4295 16.2418 38.4298C16.3447 38.43 16.4279 38.5135 16.4279 38.6162V41.083C17.6418 41.083 20.7754 41.083 21.9123 41.083V38.6162C21.9123 38.5062 22.0014 38.4169 22.1116 38.4166C22.2218 38.4163 22.3116 38.5052 22.3121 38.6152L22.3243 41.0829C22.7476 41.0829 26.0213 41.0829 26.4591 41.0829L26.4712 38.6718C26.4712 38.6718 26.4712 38.6717 26.4712 38.6716C26.4718 38.5689 26.5555 38.486 26.6584 38.4863C26.7613 38.4865 26.8445 38.57 26.8445 38.6727V41.0829C28.0583 41.0829 31.1919 41.0829 32.3288 41.0829V38.6727C32.3288 38.5627 32.418 38.4734 32.5282 38.4731C32.6383 38.4728 32.7281 38.5616 32.7287 38.6717L32.7408 41.0828H34.8116L34.7995 38.6615Z" fill="#787878"/>
<path d="M19.148 35.5108C20.347 35.5108 21.319 34.54 21.319 33.3426C21.319 32.1452 20.347 31.1745 19.148 31.1745C17.949 31.1745 16.9771 32.1452 16.9771 33.3426C16.9771 34.54 17.949 35.5108 19.148 35.5108Z" fill="#787878"/>
<path d="M29.6924 35.5694C30.8914 35.5694 31.8634 34.5987 31.8634 33.4013C31.8634 32.2039 30.8914 31.2332 29.6924 31.2332C28.4935 31.2332 27.5215 32.2039 27.5215 33.4013C27.5215 34.5987 28.4935 35.5694 29.6924 35.5694Z" fill="#787878"/>
</svg>
