<svg width="20" height="20" viewBox="0 0 20 20" fill="none" xmlns="http://www.w3.org/2000/svg">
<g clip-path="url(#clip0_2231_32129)">
<path fill-rule="evenodd" clip-rule="evenodd" d="M16.6 15.9996H17.9V16.3996H16.6V15.9996ZM16.6 15.1996H18.4V15.5996H16.6V15.1996ZM16.6 14.3996H18.4V14.7996H16.6V14.3996ZM15.8 13.6996V17.6996C15.8 17.9996 16.1 18.2996 16.4 18.2996H18.7C19 18.2996 19.3 17.9996 19.3 17.6996V13.6996C19.3 13.3996 19 13.0996 18.7 13.0996H16.4C16 13.0996 15.8 13.3996 15.8 13.6996ZM11.8 13.6996V17.6996C11.8 17.9996 12.1 18.2996 12.4 18.2996H14.7C15 18.2996 15.3 17.9996 15.3 17.6996V13.6996C15.3 13.3996 15 13.0996 14.7 13.0996H12.4C12.1 13.0996 11.8 13.3996 11.8 13.6996ZM11.6 12.2996H19.4C19.7 12.2996 20 12.5996 20 12.8996V18.3996C20 18.6996 19.7 18.9996 19.4 18.9996H16.9C16.7 18.9996 16.5 19.0996 16.4 19.2996C16.3 19.3996 16.2 19.3996 16.1 19.3996H14.8C14.7 19.3996 14.6 19.2996 14.5 19.2996C14.4 19.1996 14.2 18.9996 14 18.9996H11.5C11.2 18.9996 10.9 18.6996 10.9 18.3996V12.8996C11 12.5996 11.3 12.2996 11.6 12.2996ZM11.3 9.39961C12.4 9.39961 13.5 9.59961 14.5 9.89961C15.8 10.1996 17 10.7996 18.1 11.5996H10.8C10.5 11.5996 10.2 11.8996 10.2 12.1996V16.6996C10.2 16.9996 9.9 17.2996 9.6 17.2996H5.4C5 17.2996 4.7 16.7996 4.9 16.3996C5.1 15.9996 5.2 15.3996 5.1 14.8996C4.9 14.0996 4.2 13.4996 3.4 13.3996V13.2996C3.4 12.6996 3.7 12.0996 4.2 11.6996C5.4 10.8996 6.7 10.1996 8 9.79961C9.1 9.59961 10.2 9.39961 11.3 9.39961ZM0.2 6.99961C0.3 6.99961 0.5 6.99961 0.5 7.19961L2.6 13.4996C2.7 13.6996 2.9 13.8996 3.1 13.8996C3.8 13.8996 4.5 14.3996 4.6 15.0996C4.8 15.9996 4.3 16.7996 3.4 16.9996H3.3C2.4 17.1996 1.9 17.3996 1.5 15.7996C1.2 14.6996 1.4 14.3996 1.8 14.0996C2 13.9996 2.1 13.6996 2 13.3996L0 7.29961C0 7.19961 0 6.99961 0.2 6.99961ZM11.3 0.599609C13.5 0.599609 15.2 2.39961 15.2 4.49961C15.2 6.59961 13.4 8.39961 11.3 8.39961C9.2 8.39961 7.3 6.59961 7.3 4.49961C7.3 2.39961 9.1 0.599609 11.3 0.599609Z" fill="#2257AA"/>
</g>
<defs>
<clipPath id="clip0_2231_32129">
<rect width="20" height="20" fill="white"/>
</clipPath>
</defs>
</svg>
