<svg width="13" height="13" viewBox="0 0 13 13" fill="none" xmlns="http://www.w3.org/2000/svg">
<path d="M9.20704 3.8116L11.841 4.19048C12.0094 4.2144 12.1678 4.28509 12.2981 4.39451C12.4284 4.50392 12.5254 4.64769 12.5781 4.80948C12.6308 4.97126 12.637 5.14458 12.5961 5.30974C12.5553 5.47491 12.4689 5.6253 12.3468 5.74383L10.4457 7.60109C10.3402 7.70411 10.2614 7.83121 10.216 7.97145C10.1706 8.11169 10.1599 8.26086 10.185 8.40612L10.6375 11.0252C10.6662 11.1924 10.6477 11.3643 10.5839 11.5215C10.5202 11.6787 10.4137 11.8149 10.2766 11.9148C10.1395 12.0147 9.97714 12.0743 9.80796 12.0868C9.63877 12.0993 9.46946 12.0642 9.31915 11.9856L6.96482 10.7517C6.83432 10.6831 6.68912 10.6473 6.5417 10.6473C6.39429 10.6473 6.24908 10.6831 6.11858 10.7517L3.76426 11.9903C3.61414 12.0694 3.44489 12.105 3.27563 12.0929C3.10637 12.0809 2.94385 12.0218 2.80643 11.9222C2.66902 11.8227 2.56218 11.6867 2.498 11.5296C2.43382 11.3725 2.41485 11.2006 2.44324 11.0333L2.88966 8.41288C2.91431 8.26755 2.90328 8.11841 2.85751 7.97829C2.81175 7.83817 2.73262 7.71127 2.62694 7.60852L0.721728 5.75531C0.599724 5.637 0.5133 5.48688 0.47225 5.32197C0.4312 5.15705 0.437166 4.98393 0.489472 4.82224C0.541777 4.66054 0.638331 4.51673 0.76819 4.4071C0.898049 4.29747 1.05602 4.22641 1.2242 4.20196L3.85408 3.81633C3.99999 3.79497 4.13852 3.73844 4.2577 3.65161C4.37689 3.56477 4.47317 3.45025 4.53823 3.31791L5.71201 0.933189C5.78701 0.780906 5.90315 0.652665 6.04728 0.562988C6.19141 0.473311 6.35777 0.425781 6.52752 0.425781C6.69727 0.425781 6.86363 0.473311 7.00776 0.562988C7.15189 0.652665 7.26803 0.780906 7.34303 0.933189L8.52154 3.31453C8.58694 3.44676 8.68351 3.56109 8.80293 3.64768C8.92235 3.73428 9.06104 3.79053 9.20704 3.8116Z" fill="#D1D0E2"/>
</svg>
