<svg width="48" height="48" viewBox="0 0 48 48" fill="none" xmlns="http://www.w3.org/2000/svg">
<rect x="0.5" y="0.5" width="47" height="47" rx="9.5" fill="white" stroke="#2257AA"/>
<g clip-path="url(#clip0_3022_30795)">
<path fill-rule="evenodd" clip-rule="evenodd" d="M34.9408 33.9664H37.0506V34.6156H34.9408V33.9664ZM34.9408 32.6681H37.8621V33.3173H34.9408V32.6681ZM34.9408 31.3697H37.8621V32.0189H34.9408V31.3697ZM33.6425 30.2337V36.7254C33.6425 37.2123 34.1293 37.6992 34.6162 37.6992H38.349C38.8359 37.6992 39.3228 37.2123 39.3228 36.7254V30.2337C39.3228 29.7468 38.8359 29.2599 38.349 29.2599H34.6162C33.9671 29.2599 33.6425 29.7468 33.6425 30.2337ZM27.1507 30.2337V36.7254C27.1507 37.2123 27.6376 37.6992 28.1245 37.6992H31.8572C32.3441 37.6992 32.831 37.2123 32.831 36.7254V30.2337C32.831 29.7468 32.3441 29.2599 31.8572 29.2599H28.1245C27.6376 29.2599 27.1507 29.7468 27.1507 30.2337ZM26.8261 27.9616H39.4851C39.9719 27.9616 40.4588 28.4484 40.4588 28.9353V37.8615C40.4588 38.3484 39.9719 38.8353 39.4851 38.8353H35.4277C35.1031 38.8353 34.7785 38.9975 34.6162 39.3221C34.4539 39.4844 34.2916 39.4844 34.1293 39.4844H32.0195C31.8572 39.4844 31.6949 39.3221 31.5326 39.3221C31.3703 39.1598 31.0458 38.8353 30.7212 38.8353H26.6638C26.1769 38.8353 25.6901 38.3484 25.6901 37.8615V28.9353C25.8523 28.4484 26.3392 27.9616 26.8261 27.9616ZM26.3392 23.255C28.1245 23.255 29.9097 23.5796 31.5326 24.0665C33.6425 24.5534 35.59 25.5271 37.3752 26.8255H25.5278C25.0409 26.8255 24.554 27.3124 24.554 27.7993V35.1025C24.554 35.5894 24.0671 36.0763 23.5802 36.0763H16.7639C16.1147 36.0763 15.6278 35.2648 15.9524 34.6156C16.277 33.9664 16.4393 32.9927 16.277 32.1812C15.9524 30.8828 14.8164 29.9091 13.518 29.7468V29.5845C13.518 28.6107 14.0049 27.637 14.8164 26.9878C16.7639 25.6894 18.8737 24.5534 20.9835 23.9042C22.7688 23.5796 24.554 23.255 26.3392 23.255ZM8.32459 19.36C8.48688 19.36 8.81147 19.36 8.81147 19.6846L12.2196 29.9091C12.3819 30.2337 12.7065 30.5583 13.0311 30.5583C14.1672 30.5583 15.3032 31.3697 15.4655 32.5058C15.7901 33.9664 14.9786 35.2648 13.518 35.5894H13.3557C11.8951 35.914 11.0836 36.2386 10.4344 33.6418C9.94753 31.8566 10.2721 31.3697 10.9213 30.8828C11.2459 30.7206 11.4082 30.2337 11.2459 29.7468L8 19.8468C8 19.6846 8 19.36 8.32459 19.36ZM26.3392 8.97314C29.9097 8.97314 32.6687 11.8944 32.6687 15.3026C32.6687 18.7108 29.7474 21.6321 26.3392 21.6321C22.9311 21.6321 19.8475 18.7108 19.8475 15.3026C19.8475 11.8944 22.7688 8.97314 26.3392 8.97314Z" fill="#2257AA"/>
</g>
<circle cx="36.4918" cy="13.4918" r="6.49176" fill="white"/>
<g clip-path="url(#clip1_3022_30795)">
<path d="M36.484 7.00098C32.9045 7.00098 29.9922 9.91332 29.9922 13.4927C29.9922 17.0722 32.9045 19.9845 36.484 19.9845C40.0634 19.9845 42.9757 17.0722 42.9757 13.4927C42.9757 9.91332 40.0634 7.00098 36.484 7.00098ZM40.1122 11.7844L35.9633 15.9007C35.7193 16.1448 35.3288 16.161 35.0685 15.917L32.872 13.9158C32.6117 13.6717 32.5954 13.265 32.8232 13.0046C33.0672 12.7443 33.474 12.728 33.7343 12.9721L35.4752 14.5666L39.1848 10.857C39.4451 10.5967 39.8519 10.5967 40.1122 10.857C40.3725 11.1173 40.3725 11.5241 40.1122 11.7844Z" fill="#2DBB55"/>
</g>
<defs>
<clipPath id="clip0_3022_30795">
<rect width="32.4588" height="32.4588" fill="white" transform="translate(8 8)"/>
</clipPath>
<clipPath id="clip1_3022_30795">
<rect width="12.9835" height="12.9835" fill="white" transform="translate(30 7)"/>
</clipPath>
</defs>
</svg>
