<svg width="41" height="40" viewBox="0 0 41 40" fill="none" xmlns="http://www.w3.org/2000/svg">
<path d="M27.1706 3.75C27.1706 3.75 18.5372 3.75 12.1706 3.75C10.0706 3.75 8.05724 4.58333 6.57224 6.06833C5.08724 7.55333 4.25391 9.56667 4.25391 11.6667V28.3333C4.25391 30.4333 5.08724 32.4467 6.57224 33.9317C8.05724 35.4167 10.0706 36.25 12.1706 36.25H28.8372C30.9372 36.25 32.9506 35.4167 34.4356 33.9317C35.9206 32.4467 36.7539 30.4333 36.7539 28.3333C36.7539 23.09 36.7539 16.6667 36.7539 16.6667C36.7539 15.9767 36.1939 15.4167 35.5039 15.4167C34.8139 15.4167 34.2539 15.9767 34.2539 16.6667V28.3333C34.2539 29.77 33.6839 31.1483 32.6672 32.1633C31.6522 33.18 30.2739 33.75 28.8372 33.75H12.1706C10.7339 33.75 9.35557 33.18 8.34057 32.1633C7.32391 31.1483 6.75391 29.77 6.75391 28.3333C6.75391 23.3717 6.75391 16.6283 6.75391 11.6667C6.75391 10.23 7.32391 8.85167 8.34057 7.83667C9.35557 6.82 10.7339 6.25 12.1706 6.25H27.1706C27.8606 6.25 28.4206 5.69 28.4206 5C28.4206 4.31 27.8606 3.75 27.1706 3.75Z" fill="#2257AA"/>
<path d="M36.2846 25.6899C36.2846 25.6899 32.8779 22.9665 30.4213 21.0015C28.5179 19.4765 25.7529 19.7115 24.1329 21.5349C20.3763 25.7599 12.9013 34.1699 12.9013 34.1699C12.4429 34.6849 12.4896 35.4765 13.0063 35.9349C13.5213 36.3932 14.3129 36.3465 14.7713 35.8299C14.7713 35.8299 22.2446 27.4215 26.0013 23.1949C26.7379 22.3665 27.9946 22.2599 28.8596 22.9532L34.7213 27.6432C35.2613 28.0732 36.0479 27.9865 36.4796 27.4482C36.9096 26.9082 36.8229 26.1215 36.2846 25.6899Z" fill="#2257AA"/>
<path d="M22.1784 24.0744C22.1784 24.0744 17.7501 20.0494 15.0501 17.5944C13.4234 16.116 10.9751 15.9994 9.21675 17.3194C7.27509 18.7744 4.75342 20.666 4.75342 20.666C4.20175 21.0794 4.09009 21.8644 4.50342 22.416C4.91675 22.9677 5.70175 23.0794 6.25342 22.666C6.25342 22.666 8.77509 20.7744 10.7168 19.3194C11.5151 18.7194 12.6284 18.771 13.3684 19.4444L20.4951 25.9244C21.0068 26.3877 21.7984 26.351 22.2618 25.841C22.7251 25.3294 22.6884 24.5377 22.1784 24.0744Z" fill="#2257AA"/>
<path d="M31.7539 5V12.5C31.7539 13.19 32.3139 13.75 33.0039 13.75C33.6939 13.75 34.2539 13.19 34.2539 12.5V5C34.2539 4.31 33.6939 3.75 33.0039 3.75C32.3139 3.75 31.7539 4.31 31.7539 5Z" fill="#2257AA"/>
<path d="M16.3359 13.334C17.7166 13.334 18.8359 12.2147 18.8359 10.834C18.8359 9.45327 17.7166 8.33398 16.3359 8.33398C14.9552 8.33398 13.8359 9.45327 13.8359 10.834C13.8359 12.2147 14.9552 13.334 16.3359 13.334Z" fill="#2257AA"/>
<path d="M36.3868 6.61625L33.8868 4.11625C33.3985 3.62792 32.6085 3.62792 32.1202 4.11625L29.6202 6.61625C29.1318 7.10292 29.1318 7.89625 29.6202 8.38292C30.1068 8.87125 30.9002 8.87125 31.3868 8.38292L33.0035 6.76792L34.6202 8.38292C35.1068 8.87125 35.9002 8.87125 36.3868 8.38292C36.8752 7.89625 36.8752 7.10292 36.3868 6.61625Z" fill="#2257AA"/>
</svg>
