<svg width="20" height="20" viewBox="0 0 20 20" fill="none" xmlns="http://www.w3.org/2000/svg">
<path d="M4.73938 2.49504C5.42927 2.49504 5.98853 1.93651 5.98853 1.24752C5.98853 0.558534 5.42927 0 4.73938 0C4.0495 0 3.49023 0.558534 3.49023 1.24752C3.49023 1.93651 4.0495 2.49504 4.73938 2.49504Z" fill="#2257AA"/>
<path d="M3.22456 11.2773C2.49436 11.2773 1.90234 11.8685 1.90234 12.5978C1.90234 13.3238 2.49087 13.9183 3.22456 13.9183C3.9496 13.9183 4.54682 13.3318 4.54682 12.5978C4.54682 11.8685 3.95481 11.2773 3.22456 11.2773Z" fill="#2257AA"/>
<path d="M18.2655 0.654297H8.64883C8.40913 0.654297 8.21484 0.84833 8.21484 1.08772V4.46487L8.69616 4.16642C8.81863 4.09044 8.94943 4.03918 9.08278 4.01102V1.52114H17.8315V7.77206H9.08281V6.76068L8.21484 7.29891V8.20552C8.21484 8.4449 8.40913 8.63894 8.64883 8.63894H18.2655C18.5052 8.63894 18.6995 8.4449 18.6995 8.20552V1.08772C18.6995 0.84833 18.5052 0.654297 18.2655 0.654297Z" fill="#2257AA"/>
<path d="M11.9559 3.05862C11.8417 2.914 11.6318 2.88927 11.4871 3.00323L9.99219 4.18035C10.1349 4.27352 10.2601 4.39833 10.356 4.55252C10.3832 4.59615 10.4068 4.64104 10.4277 4.68655L11.9005 3.52684C12.0453 3.41285 12.0701 3.2032 11.9559 3.05862Z" fill="#2257AA"/>
<path d="M9.84406 4.87041C9.66847 4.58801 9.29696 4.50121 9.01411 4.67653L7.79348 5.4334C7.78839 4.42246 7.79109 4.95897 7.78785 4.30792C7.7839 3.52644 7.14409 2.89062 6.36154 2.89062H5.76859C5.26201 4.20272 5.4252 3.71566 4.9952 4.82939L5.17603 4.04298C5.18855 3.98408 5.17948 3.92267 5.15041 3.86993L4.9054 3.42487L5.12284 3.02997C5.15526 2.97106 5.11251 2.89887 5.04519 2.89887H4.44786C4.38058 2.89887 4.33775 2.97106 4.37022 3.02997L4.58809 3.42569L4.3426 3.87157C4.31413 3.92333 4.30482 3.98349 4.31632 4.04138L4.47297 4.82939C4.38852 4.61067 3.80473 3.0986 3.72442 2.89062H3.11947C2.33696 2.89062 1.69711 3.5264 1.69316 4.30792L1.67091 8.73001C1.66926 9.06244 1.93771 9.33328 2.27058 9.33496C2.27164 9.33496 2.27262 9.33496 2.27367 9.33496C2.6051 9.33496 2.87464 9.06744 2.87629 8.73606L2.89854 4.31397C2.89854 4.31327 2.89854 4.31257 2.89854 4.3119C2.89948 4.24628 2.95326 4.1937 3.01898 4.1942C3.08469 4.19467 3.13765 4.24803 3.13765 4.31366L3.13793 10.5788C3.68969 10.5554 4.20093 10.7542 4.58445 11.1032V8.65903H4.89671V11.4628C5.11666 11.7858 5.24539 12.1754 5.24539 12.5946C5.24539 12.9766 5.13852 13.3341 4.95323 13.6389C5.14357 13.6398 5.32843 13.665 5.50472 13.7116C5.74239 13.5057 6.02828 13.3541 6.34324 13.2766C6.34324 2.36423 6.33013 9.11123 6.33013 4.31448C6.33013 4.24499 6.38642 4.18866 6.45601 4.18854C6.52559 4.18838 6.58211 4.24448 6.58243 4.31397C6.58454 4.73614 6.59119 6.05585 6.5935 6.51529C6.59459 6.73323 6.71358 6.93359 6.90458 7.03903C7.09523 7.14427 7.3284 7.1388 7.51412 7.02363L9.64997 5.69924C9.9327 5.52395 10.0197 5.1528 9.84406 4.87041Z" fill="#2257AA"/>
<path d="M16.7744 13.93C17.5046 13.93 18.0966 13.3388 18.0966 12.6096C18.0966 11.8803 17.5046 11.2891 16.7744 11.2891C16.0441 11.2891 15.4521 11.8803 15.4521 12.6096C15.4521 13.3388 16.0441 13.93 16.7744 13.93Z" fill="#2257AA"/>
<path d="M19.992 15.8518C19.9878 15.0246 19.3105 14.3516 18.4822 14.3516C18.1248 14.3516 15.4866 14.3516 15.166 14.3516C15.3082 14.6277 15.3891 14.9402 15.3891 15.2715C15.3891 15.6233 15.295 15.9908 15.0957 16.3177C15.8351 16.3476 16.483 16.7439 16.8617 17.3294H18.449V15.8672C18.449 15.7953 18.5061 15.7363 18.5781 15.7338C18.6501 15.7314 18.7112 15.7864 18.716 15.8581C18.716 15.8581 18.716 15.8582 18.716 15.8582L18.7235 17.3294H19.9994L19.992 15.8518Z" fill="#2257AA"/>
<path d="M11.3487 15.2704C11.3487 14.9333 11.4323 14.6155 11.5792 14.3359C10.7184 14.3359 9.70749 14.3359 8.63515 14.3359C8.77095 14.607 8.84782 14.9124 8.84782 15.2356C8.84782 15.6153 8.74103 15.9749 8.55566 16.2798C9.16422 16.2827 9.72568 16.5352 10.1313 16.9543C10.5246 16.5706 11.0607 16.3326 11.6504 16.3295C11.4457 15.9993 11.3487 15.6286 11.3487 15.2704Z" fill="#2257AA"/>
<path d="M10.3437 11.2754C9.61353 11.2754 9.02148 11.8665 9.02148 12.5959C9.02148 13.3236 9.6124 13.9164 10.3437 13.9164C11.0681 13.9164 11.666 13.3318 11.666 12.5959C11.666 11.8673 11.0751 11.2754 10.3437 11.2754Z" fill="#2257AA"/>
<path d="M4.80587 15.2337C4.80587 14.9114 4.88238 14.6066 5.01752 14.336C4.96053 14.3332 5.20027 14.3341 1.51729 14.3341C0.693203 14.3341 0.0116955 15.0036 0.00751015 15.8343L0 17.3265C0.583093 17.3265 0.7004 17.3265 1.27598 17.3265L1.28345 15.8408C1.28384 15.7672 1.34373 15.7079 1.41735 15.7081C1.49096 15.7083 1.55049 15.7679 1.55049 15.8415V17.3265H3.33912C3.7246 16.711 4.38741 16.3246 5.10882 16.2949C4.91301 15.98 4.80587 15.6166 4.80587 15.2337Z" fill="#2257AA"/>
<path d="M16.5131 18.5078C16.509 17.6805 15.8317 17.0075 15.0034 17.0075C14.9155 17.0075 11.758 17.0075 11.6587 17.0075C10.8304 17.0075 10.1097 17.6804 10.1055 18.5077L10.0948 18.4729C10.0907 17.6489 9.41646 16.9727 8.58503 16.9727C7.62498 16.9727 6.24612 16.9727 5.24039 16.9727C4.41208 16.9727 3.69138 17.6456 3.6872 18.4729L3.67969 19.9998H4.95567L4.96314 18.4793C4.96345 18.4159 5.01505 18.3648 5.07845 18.365C5.14186 18.3651 5.19314 18.4166 5.19314 18.4799V19.9998C5.94106 19.9998 7.87188 19.9998 8.57239 19.9998V18.4799C8.57239 18.4121 8.62735 18.3571 8.69526 18.3569C8.76312 18.3567 8.81843 18.4114 8.81878 18.4793L8.82625 19.9998C9.08711 19.9998 11.1043 19.9998 11.374 19.9998L11.3815 18.5141C11.3815 18.5141 11.3815 18.5141 11.3815 18.514C11.3818 18.4507 11.4334 18.3996 11.4968 18.3998C11.5602 18.4 11.6115 18.4514 11.6115 18.5147V19.9998C12.3594 19.9998 14.2902 19.9998 14.9907 19.9998V18.5147C14.9907 18.4469 15.0457 18.3919 15.1136 18.3917C15.1814 18.3915 15.2368 18.4462 15.2371 18.5141L15.2446 19.9997H16.5206L16.5131 18.5078Z" fill="#2257AA"/>
<path d="M6.86892 16.5664C7.60769 16.5664 8.20659 15.9683 8.20659 15.2305C8.20659 14.4926 7.60769 13.8945 6.86892 13.8945C6.13014 13.8945 5.53125 14.4926 5.53125 15.2305C5.53125 15.9683 6.13014 16.5664 6.86892 16.5664Z" fill="#2257AA"/>
<path d="M13.366 16.6035C14.1048 16.6035 14.7037 16.0054 14.7037 15.2676C14.7037 14.5298 14.1048 13.9316 13.366 13.9316C12.6272 13.9316 12.0283 14.5298 12.0283 15.2676C12.0283 16.0054 12.6272 16.6035 13.366 16.6035Z" fill="#2257AA"/>
</svg>
