<svg width="16" height="20" viewBox="0 0 16 20" fill="none" xmlns="http://www.w3.org/2000/svg">
<path d="M14.904 0H1.09668C0.773085 0 0.510742 0.262343 0.510742 0.585936V17.6881C0.510742 17.8435 0.5725 17.9925 0.682344 18.1024L2.40828 19.8284C2.63711 20.0572 3.00808 20.0572 3.23695 19.8284L4.54855 18.5168L5.86007 19.8284C5.96995 19.9382 6.11897 20 6.27436 20C6.42975 20 6.57882 19.9383 6.6887 19.8284L8.00026 18.5168L9.31186 19.8284C9.42174 19.9382 9.5708 20 9.72615 20C9.88155 20 10.0306 19.9383 10.1405 19.8284L11.452 18.5168L12.7636 19.8284C12.8781 19.9428 13.0279 20 13.1779 20C13.3279 20 13.4779 19.9428 13.5922 19.8284L15.3182 18.1024C15.4281 17.9925 15.4898 17.8435 15.4898 17.6881V0.585936C15.4899 0.262343 15.2275 0 14.904 0ZM7.41428 4.4012V3.72398C7.41428 3.40038 7.67667 3.13804 8.00022 3.13804C8.32385 3.13804 8.58616 3.40038 8.58616 3.72398V4.39323H9.25549C9.57905 4.39323 9.84143 4.65558 9.84143 4.97917C9.84143 5.30276 9.57905 5.56511 9.25549 5.56511H7.5819C7.21288 5.56511 6.91264 5.86534 6.91264 6.23436C6.91264 6.60343 7.21288 6.9037 7.5819 6.9037H8.41874C9.43393 6.9037 10.2599 7.72959 10.2599 8.74483C10.2599 9.70354 9.52319 10.4931 8.58616 10.578V11.2553C8.58616 11.5788 8.32385 11.8412 8.00022 11.8412C7.67667 11.8412 7.41428 11.5788 7.41428 11.2553V10.5859H6.74503C6.42147 10.5859 6.15909 10.3236 6.15909 9.99998C6.15909 9.67639 6.42147 9.41404 6.74503 9.41404H8.41874C8.78776 9.41404 9.08803 9.11381 9.08803 8.74479C9.08803 8.37577 8.7878 8.07553 8.41874 8.07553H7.5819C6.56667 8.07553 5.74077 7.24956 5.74077 6.23432C5.74081 5.27565 6.47741 4.48616 7.41428 4.4012ZM11.1383 14.9792H4.8623C4.5387 14.9792 4.27636 14.7168 4.27636 14.3932C4.27636 14.0696 4.5387 13.8073 4.8623 13.8073H11.1383C11.4619 13.8073 11.7243 14.0696 11.7243 14.3932C11.7243 14.7168 11.4619 14.9792 11.1383 14.9792Z" fill="#2257AA"/>
</svg>
