<svg width="20" height="20" viewBox="0 0 20 20" fill="none" xmlns="http://www.w3.org/2000/svg">
<path d="M15.5917 6.00822C15.5142 5.93011 15.4221 5.86811 15.3205 5.82581C15.219 5.7835 15.11 5.76172 15 5.76172C14.89 5.76172 14.7811 5.7835 14.6795 5.82581C14.578 5.86811 14.4858 5.93011 14.4084 6.00822L8.20003 12.2249L5.5917 9.60822C5.51127 9.53052 5.41632 9.46942 5.31227 9.42842C5.20823 9.38742 5.09712 9.36731 4.98531 9.36924C4.87349 9.37118 4.76315 9.39512 4.66058 9.43969C4.55802 9.48427 4.46524 9.54862 4.38754 9.62905C4.30984 9.70949 4.24875 9.80444 4.20774 9.90848C4.16674 10.0125 4.14663 10.1236 4.14856 10.2354C4.1505 10.3473 4.17444 10.4576 4.21902 10.5602C4.26359 10.6627 4.32794 10.7555 4.40837 10.8332L7.60837 14.0332C7.68584 14.1113 7.778 14.1733 7.87955 14.2156C7.9811 14.2579 8.09002 14.2797 8.20003 14.2797C8.31004 14.2797 8.41896 14.2579 8.52051 14.2156C8.62206 14.1733 8.71423 14.1113 8.7917 14.0332L15.5917 7.23322C15.6763 7.15518 15.7438 7.06047 15.79 6.95506C15.8361 6.84964 15.86 6.7358 15.86 6.62072C15.86 6.50563 15.8361 6.39179 15.79 6.28638C15.7438 6.18096 15.6763 6.08625 15.5917 6.00822Z" fill="#1D9E74"/>
</svg>
