<svg width="20" height="20" viewBox="0 0 20 20" fill="none" xmlns="http://www.w3.org/2000/svg">
<g clip-path="url(#clip0_2231_32131)">
<path d="M3.82154 0.000397643C3.73249 -0.00269804 3.64373 0.0123069 3.56055 0.0445179C3.47738 0.0767288 3.4015 0.125486 3.33743 0.187881C3.27336 0.250276 3.22243 0.325031 3.18765 0.407688C3.15288 0.490345 3.13499 0.579211 3.13504 0.668985V15.8621C3.12997 16.0641 3.19442 16.2618 3.31745 16.4214C3.44048 16.5811 3.61454 16.693 3.8101 16.7381C5.85552 17.0921 7.74862 18.0558 9.24488 19.5047V2.89377C7.88804 1.29304 5.98634 0.261057 3.91308 0.000397643H3.82154Z" fill="#2257AA"/>
<path d="M16.865 15.8845V0.668402C16.8682 0.574615 16.8503 0.481315 16.8127 0.395479C16.775 0.309643 16.7186 0.233493 16.6476 0.172725C16.5761 0.105848 16.4908 0.0556791 16.3979 0.0257922C16.3049 -0.00409476 16.2066 -0.0129646 16.1099 -0.000185569C14.0335 0.260957 12.1284 1.29259 10.7666 2.89319V19.5041C12.2598 18.0615 14.1497 17.1055 16.1899 16.7606C16.3855 16.7155 16.5596 16.6036 16.6826 16.4439C16.8056 16.2842 16.8701 16.0866 16.865 15.8845Z" fill="#2257AA"/>
<path d="M1.73897 15.8841V2.9043C1.39572 2.9043 1.04102 3.00804 0.697775 3.07721C0.499003 3.11974 0.320935 3.23019 0.19374 3.38986C0.0665435 3.54952 -0.00195971 3.74857 -0.000165051 3.95329V18.8467C-0.00580436 18.8849 -0.00580436 18.9237 -0.000165051 18.9619C0.0139717 19.0763 0.0503609 19.1867 0.106918 19.2869C0.163476 19.387 0.23909 19.475 0.329431 19.5456C0.419772 19.6163 0.523063 19.6683 0.63339 19.6987C0.743717 19.7291 0.858911 19.7373 0.972375 19.7227C3.122 19.4251 5.30703 19.5149 7.42546 19.9879C6.37062 19.2151 5.15284 18.6983 3.86711 18.4778C3.26926 18.3604 2.73035 18.0377 2.34226 17.5647C1.95418 17.0917 1.74096 16.4978 1.73897 15.8841Z" fill="#2257AA"/>
<path d="M19.3136 3.07721L18.2609 2.9043V15.8841C18.2584 16.4994 18.0436 17.0947 17.6532 17.5679C17.2629 18.0411 16.7213 18.3628 16.1213 18.4778C14.8356 18.6983 13.6178 19.2151 12.563 19.9879C14.6814 19.5149 16.8664 19.4251 19.0161 19.7227H19.1534C19.268 19.7243 19.3818 19.7027 19.488 19.6592C19.5942 19.6157 19.6906 19.5513 19.7717 19.4696C19.8527 19.3879 19.9167 19.2907 19.9599 19.1837C20.003 19.0768 20.0245 18.9621 20.0229 18.8467V3.97634C20.0345 3.76496 19.9686 3.55666 19.8379 3.39094C19.7071 3.22522 19.5206 3.11358 19.3136 3.07721Z" fill="#2257AA"/>
</g>
<defs>
<clipPath id="clip0_2231_32131">
<rect width="20" height="20" fill="white"/>
</clipPath>
</defs>
</svg>
