<svg width="30" height="30" viewBox="0 0 30 30" fill="none" xmlns="http://www.w3.org/2000/svg">
<g clip-path="url(#clip0_2785_29570)">
<path d="M29.025 12.4714C28.7915 12.1395 28.6007 11.7796 28.4571 11.4C28.4002 10.9769 28.4002 10.5481 28.4571 10.125C28.5629 9.22264 28.3988 8.30918 27.9857 7.5C27.4782 6.7469 26.7585 6.16144 25.9179 5.81786C25.5329 5.64483 25.1726 5.42145 24.8464 5.15357C24.5786 4.82741 24.3552 4.46711 24.1821 4.08214C23.8365 3.23986 23.2517 2.51726 22.5 2.00357C21.6858 1.61934 20.7782 1.47799 19.8857 1.59643C19.4602 1.63592 19.0314 1.6179 18.6107 1.54286C18.2311 1.39931 17.8712 1.20852 17.5393 0.975C16.808 0.405882 15.9243 0.0665609 15 0C14.0795 0.0686372 13.1997 0.407849 12.4714 0.975C12.1395 1.20852 11.7796 1.39931 11.4 1.54286C10.9793 1.61764 10.5505 1.63566 10.125 1.59643C9.22904 1.47588 8.31735 1.61728 7.5 2.00357C6.7483 2.51726 6.16351 3.23986 5.81786 4.08214C5.64483 4.46711 5.42145 4.82741 5.15357 5.15357C4.82741 5.42145 4.46711 5.64483 4.08214 5.81786C3.2415 6.16144 2.5218 6.7469 2.01429 7.5C1.62162 8.31159 1.4763 9.22073 1.59643 10.1143C1.63566 10.5398 1.61764 10.9686 1.54286 11.3893C1.39931 11.7689 1.20852 12.1288 0.975 12.4607C0.405882 13.192 0.0665609 14.0757 0 15C0.0686372 15.9205 0.407849 16.8003 0.975 17.5286C1.20852 17.8605 1.39931 18.2204 1.54286 18.6C1.61764 19.0207 1.63566 19.4495 1.59643 19.875C1.47415 20.7721 1.61952 21.6852 2.01429 22.5C2.5218 23.2531 3.2415 23.8386 4.08214 24.1821C4.46711 24.3552 4.82741 24.5786 5.15357 24.8464C5.42145 25.1726 5.64483 25.5329 5.81786 25.9179C6.16351 26.7601 6.7483 27.4827 7.5 27.9964C8.31416 28.3807 9.22184 28.522 10.1143 28.4036C10.5374 28.3464 10.9662 28.3464 11.3893 28.4036C11.7689 28.5471 12.1288 28.7379 12.4607 28.9714C13.1857 29.5598 14.07 29.918 15 30C15.9205 29.9314 16.8003 29.5922 17.5286 29.025C17.8605 28.7915 18.2204 28.6007 18.6 28.4571C19.0231 28.4002 19.4519 28.4002 19.875 28.4571C20.7762 28.5611 21.6881 28.401 22.5 27.9964C23.2517 27.4827 23.8365 26.7601 24.1821 25.9179C24.3552 25.5329 24.5786 25.1726 24.8464 24.8464C25.1726 24.5786 25.5329 24.3552 25.9179 24.1821C26.7585 23.8386 27.4782 23.2531 27.9857 22.5C28.3784 21.6884 28.5237 20.7793 28.4036 19.8857C28.3466 19.4626 28.3466 19.0338 28.4036 18.6107C28.5471 18.2311 28.7379 17.8712 28.9714 17.5393C29.5598 16.8143 29.918 15.93 30 15C29.9314 14.0795 29.5922 13.1997 29.025 12.4714ZM15 24.6429C13.0928 24.6429 11.2285 24.0773 9.64271 23.0177C8.05696 21.9582 6.82101 20.4522 6.09116 18.6902C5.36132 16.9282 5.17036 14.9893 5.54243 13.1188C5.9145 11.2482 6.83289 9.53005 8.18147 8.18147C9.53005 6.83289 11.2482 5.9145 13.1188 5.54243C14.9893 5.17036 16.9282 5.36132 18.6902 6.09116C20.4522 6.82101 21.9582 8.05696 23.0177 9.64271C24.0773 11.2285 24.6429 13.0928 24.6429 15C24.6429 17.5574 23.6269 20.0101 21.8185 21.8185C20.0101 23.6269 17.5574 24.6429 15 24.6429Z" fill="white"/>
<path d="M20.2287 12.2672L17.2823 11.8386L15.9644 9.17082C15.8767 8.98967 15.7397 8.8369 15.5692 8.73C15.3986 8.62311 15.2014 8.56641 15.0001 8.56641C14.7989 8.56641 14.6017 8.62311 14.4311 8.73C14.2606 8.8369 14.1236 8.98967 14.0359 9.17082L12.718 11.8386L9.77157 12.2672C9.57534 12.2975 9.39139 12.3817 9.24023 12.5104C9.08908 12.6392 8.97667 12.8074 8.91555 12.9963C8.85443 13.1852 8.84701 13.3874 8.89411 13.5803C8.94121 13.7732 9.04098 13.9492 9.18229 14.0886L11.3251 16.1672L10.8216 19.1029C10.7833 19.3038 10.8034 19.5114 10.8793 19.7013C10.9552 19.8911 11.0839 20.0553 11.2501 20.1744C11.4054 20.2818 11.5862 20.3462 11.7743 20.3613C11.9625 20.3763 12.1513 20.3414 12.3216 20.2601L15.0001 18.8458L17.6359 20.2386C17.7884 20.3168 17.9574 20.3572 18.1287 20.3565C18.3557 20.3573 18.577 20.286 18.7609 20.1529C18.9271 20.0339 19.0558 19.8697 19.1317 19.6798C19.2077 19.49 19.2277 19.2824 19.1894 19.0815L18.6859 16.1458L20.8287 14.0672C20.97 13.9277 21.0698 13.7517 21.1169 13.5588C21.164 13.366 21.1566 13.1638 21.0955 12.9749C21.0343 12.786 20.9219 12.6178 20.7708 12.489C20.6196 12.3603 20.4357 12.2761 20.2394 12.2458L20.2287 12.2672Z" fill="white"/>
</g>
<defs>
<clipPath id="clip0_2785_29570">
<rect width="30" height="30" fill="white"/>
</clipPath>
</defs>
</svg>
