<svg width="20" height="20" viewBox="0 0 20 20" fill="none" xmlns="http://www.w3.org/2000/svg">
<g clip-path="url(#clip0_3544_37627)">
<path d="M12.5 10.8333C12.279 10.8333 12.067 10.9211 11.9107 11.0774C11.7545 11.2337 11.6667 11.4457 11.6667 11.6667V15C11.6667 15.4592 11.2933 15.8333 10.8333 15.8333H8.33333V3.33333C8.33333 2.62167 7.88 1.98583 7.19833 1.74917L6.95167 1.66667H10.8333C11.2933 1.66667 11.6667 2.04083 11.6667 2.5V5C11.6667 5.22101 11.7545 5.43297 11.9107 5.58926C12.067 5.74554 12.279 5.83333 12.5 5.83333C12.721 5.83333 12.933 5.74554 13.0893 5.58926C13.2455 5.43297 13.3333 5.22101 13.3333 5V2.5C13.3333 1.12167 12.2117 0 10.8333 0H1.875C1.84333 0 1.81667 0.0141667 1.78583 0.0183333C1.74583 0.015 1.7075 0 1.66667 0C0.7475 0 0 0.7475 0 1.66667V16.6667C0 17.3783 0.453333 18.0142 1.135 18.2508L6.15 19.9225C6.32 19.975 6.48917 20 6.66667 20C7.58583 20 8.33333 19.2525 8.33333 18.3333V17.5H10.8333C12.2117 17.5 13.3333 16.3783 13.3333 15V11.6667C13.3333 11.4457 13.2455 11.2337 13.0893 11.0774C12.933 10.9211 12.721 10.8333 12.5 10.8333Z" fill="#787878"/>
<path d="M19.7584 7.74334L16.4251 4.41001C16.3086 4.2935 16.1601 4.21416 15.9985 4.18202C15.8368 4.14988 15.6693 4.16638 15.5171 4.22944C15.3648 4.2925 15.2347 4.39928 15.1431 4.53629C15.0515 4.6733 15.0026 4.83438 15.0026 4.99917V7.49917H11.6693C11.4483 7.49917 11.2363 7.58697 11.08 7.74325C10.9237 7.89953 10.8359 8.11149 10.8359 8.3325C10.8359 8.55352 10.9237 8.76548 11.08 8.92176C11.2363 9.07804 11.4483 9.16584 11.6693 9.16584H15.0026V11.6658C15.0034 11.8303 15.0528 11.9908 15.1445 12.1273C15.2362 12.2638 15.3662 12.3702 15.5181 12.4331C15.67 12.496 15.8371 12.5127 15.9985 12.481C16.1598 12.4493 16.3083 12.3707 16.4251 12.255L19.7584 8.92167C19.8359 8.84435 19.8973 8.75251 19.9393 8.65142C19.9812 8.55032 20.0028 8.44195 20.0028 8.3325C20.0028 8.22306 19.9812 8.11469 19.9393 8.01359C19.8973 7.9125 19.8359 7.82066 19.7584 7.74334Z" fill="#787878"/>
</g>
<defs>
<clipPath id="clip0_3544_37627">
<rect width="20" height="20" fill="white"/>
</clipPath>
</defs>
</svg>
