<svg width="20" height="20" viewBox="0 0 20 20" fill="none" xmlns="http://www.w3.org/2000/svg">
<path d="M17.8132 14.0942C16.5532 13.0292 15.8307 11.4725 15.8307 9.82333V7.5C15.8307 4.5675 13.6524 2.14 10.8307 1.73333V0.833333C10.8307 0.3725 10.4574 0 9.9974 0C9.5374 0 9.16406 0.3725 9.16406 0.833333V1.73333C6.34156 2.14 4.16406 4.5675 4.16406 7.5V9.82333C4.16406 11.4725 3.44156 13.0292 2.17406 14.1008C1.8499 14.3783 1.66406 14.7817 1.66406 15.2083C1.66406 16.0125 2.31823 16.6667 3.1224 16.6667H16.8724C17.6766 16.6667 18.3307 16.0125 18.3307 15.2083C18.3307 14.7817 18.1449 14.3783 17.8132 14.0942Z" fill="#787878"/>
<path d="M9.99917 20C11.5083 20 12.7708 18.9242 13.0608 17.5H6.9375C7.2275 18.9242 8.49 20 9.99917 20Z" fill="#787878"/>
</svg>
