<svg width="20" height="20" viewBox="0 0 20 20" fill="none" xmlns="http://www.w3.org/2000/svg">
<g clip-path="url(#clip0_4088_91949)">
<path d="M19.0906 9.09182C18.8495 9.09182 18.6183 9.18758 18.4479 9.35803C18.2774 9.52847 18.1817 9.75965 18.1817 10.0007V15.454C18.1817 16.1772 17.8944 16.8707 17.3831 17.3821C16.8717 17.8934 16.1782 18.1807 15.455 18.1807H4.54835C3.82519 18.1807 3.13166 17.8934 2.62031 17.3821C2.10896 16.8707 1.82168 16.1772 1.82168 15.454V4.54737C1.82168 3.82422 2.10896 3.13068 2.62031 2.61933C3.13166 2.10798 3.82519 1.82071 4.54835 1.82071H10.0017C10.2427 1.82071 10.4739 1.72495 10.6444 1.5545C10.8148 1.38405 10.9106 1.15287 10.9106 0.911819C10.9106 0.670766 10.8148 0.439587 10.6444 0.269137C10.4739 0.0986873 10.2427 0.00292969 10.0017 0.00292969H4.54835C3.95157 0.00292969 3.36062 0.120475 2.80927 0.348855C2.25791 0.577235 1.75693 0.911976 1.33494 1.33397C0.482695 2.18622 0.00390625 3.34211 0.00390625 4.54737V15.454C0.00390625 16.0508 0.121452 16.6418 0.349831 17.1931C0.578211 17.7445 0.912952 18.2455 1.33494 18.6674C2.18719 19.5197 3.34309 19.9985 4.54835 19.9985H15.455C16.0518 19.9985 16.6427 19.8809 17.1941 19.6526C17.7455 19.4242 18.2464 19.0894 18.6684 18.6674C19.0904 18.2455 19.4252 17.7445 19.6535 17.1931C19.8819 16.6418 19.9995 16.0508 19.9995 15.454V10.0007C19.9995 9.75965 19.9037 9.52847 19.7333 9.35803C19.5628 9.18758 19.3316 9.09182 19.0906 9.09182Z" fill="#7A7A7A"/>
<path d="M6.25686 8.60122C6.00251 8.85525 5.8009 9.15707 5.66364 9.48932C5.52637 9.82156 5.45616 10.1777 5.45704 10.5371V11.8187C5.45704 12.5418 5.74431 13.2354 6.25566 13.7467C6.76701 14.2581 7.46055 14.5453 8.18371 14.5453H9.46524C9.82472 14.5462 10.1808 14.476 10.5131 14.3388C10.8453 14.2015 11.1471 13.9999 11.4012 13.7455L19.1994 5.94726C19.4536 5.69394 19.6553 5.39294 19.7929 5.06151C19.9306 4.73008 20.0014 4.37474 20.0014 4.01587C20.0014 3.657 19.9306 3.30167 19.7929 2.97023C19.6553 2.6388 19.4536 2.3378 19.1994 2.08448L17.9179 0.802949C17.6646 0.548751 17.3636 0.347059 17.0322 0.209438C16.7007 0.071818 16.3454 0.000976563 15.9865 0.000976562C15.6276 0.000976562 15.2723 0.071818 14.9409 0.209438C14.6094 0.347059 14.3084 0.548751 14.0551 0.802949L6.25686 8.60122ZM16.6273 2.08448L17.9179 3.3751C18.0872 3.5454 18.1822 3.77576 18.1822 4.01587C18.1822 4.25599 18.0872 4.48635 17.9179 4.65664L17.1363 5.45646L14.5459 2.86613L15.3276 2.08448C15.4122 1.99791 15.5133 1.92913 15.6249 1.88217C15.7365 1.83521 15.8564 1.81102 15.9774 1.81102C16.0985 1.81102 16.2184 1.83521 16.33 1.88217C16.4415 1.92913 16.5426 1.99791 16.6273 2.08448ZM7.27482 10.5371C7.27413 10.4175 7.29705 10.299 7.34228 10.1882C7.38751 10.0775 7.45416 9.97676 7.53839 9.89184L13.2735 4.15675L15.8456 6.7289L10.1105 12.464C10.0256 12.5482 9.9249 12.6149 9.81417 12.6601C9.70343 12.7053 9.58485 12.7283 9.46524 12.7276H8.18371C7.94265 12.7276 7.71147 12.6318 7.54102 12.4614C7.37057 12.2909 7.27482 12.0597 7.27482 11.8187V10.5371Z" fill="#7A7A7A"/>
</g>
<defs>
<clipPath id="clip0_4088_91949">
<rect width="20" height="20" fill="white"/>
</clipPath>
</defs>
</svg>
