<svg width="20" height="20" viewBox="0 0 20 20" fill="none" xmlns="http://www.w3.org/2000/svg">
<g clip-path="url(#clip0_2231_32140)">
<path d="M18.2422 1.64062H17.6172V3.86719C17.6172 4.19078 17.3548 4.45312 17.0312 4.45312C16.7077 4.45312 16.4453 4.19078 16.4453 3.86719V1.64062H12.9297V3.86719C12.9297 4.19078 12.6673 4.45312 12.3438 4.45312C12.0202 4.45312 11.7578 4.19078 11.7578 3.86719V1.64062H8.24219V3.86719C8.24219 4.19078 7.97984 4.45312 7.65625 4.45312C7.33266 4.45312 7.07031 4.19078 7.07031 3.86719V1.64062H3.55469V3.86719C3.55469 4.19078 3.29234 4.45312 2.96875 4.45312C2.64516 4.45312 2.38281 4.19078 2.38281 3.86719V1.64062H1.75781C0.788555 1.64062 0 2.42918 0 3.39844V6.32812H20V3.39844C20 2.42918 19.2114 1.64062 18.2422 1.64062Z" fill="#2257AA"/>
<path d="M8.24219 0.585938C8.24219 0.262344 7.97984 0 7.65625 0C7.33266 0 7.07031 0.262344 7.07031 0.585938V1.64062H8.24219V0.585938Z" fill="#2257AA"/>
<path d="M17.6172 0.585938C17.6172 0.262344 17.3548 0 17.0312 0C16.7077 0 16.4453 0.262344 16.4453 0.585938V1.64062H17.6172V0.585938Z" fill="#2257AA"/>
<path d="M12.9297 0.585938C12.9297 0.262344 12.6673 0 12.3438 0C12.0202 0 11.7578 0.262344 11.7578 0.585938V1.64062H12.9297V0.585938Z" fill="#2257AA"/>
<path d="M3.55469 0.585938C3.55469 0.262344 3.29234 0 2.96875 0C2.64516 0 2.38281 0.262344 2.38281 0.585938V1.64062H3.55469V0.585938Z" fill="#2257AA"/>
<path d="M0 7.5V18.2422C0 19.2114 0.788555 20 1.75781 20H18.2422C19.2114 20 20 19.2114 20 18.2422V7.5H0ZM16.2737 14.1643L13.93 16.5081C13.7011 16.7369 13.3302 16.7369 13.1013 16.5081C12.8725 16.2793 12.8725 15.9083 13.1013 15.6795L14.4448 14.3359H4.14062C3.81703 14.3359 3.55469 14.0736 3.55469 13.75C3.55469 13.4264 3.81703 13.1641 4.14062 13.1641H14.4448L13.1013 11.8206C12.8725 11.5918 12.8725 11.2208 13.1013 10.992C13.3302 10.7631 13.7011 10.7631 13.93 10.992L16.2737 13.3357C16.5025 13.5645 16.5025 13.9355 16.2737 14.1643Z" fill="#2257AA"/>
</g>
<defs>
<clipPath id="clip0_2231_32140">
<rect width="20" height="20" fill="white"/>
</clipPath>
</defs>
</svg>
