<svg width="12" height="11" viewBox="0 0 12 11" fill="none" xmlns="http://www.w3.org/2000/svg">
<path d="M7.88928 6.11971L6.41108 5.03218V2.81686C6.41108 2.59411 6.22753 2.41406 6.00046 2.41406C5.77339 2.41406 5.58984 2.59411 5.58984 2.81686V5.2336C5.58984 5.36047 5.65062 5.48011 5.75409 5.55584L7.39652 6.76421C7.47043 6.81859 7.55667 6.84477 7.64248 6.84477C7.76771 6.84477 7.8909 6.78958 7.97139 6.68324C8.10774 6.50559 8.07078 6.25304 7.88928 6.11971Z" fill="#828282"/>
<path d="M6.00019 0C3.07706 0 0.699219 2.33255 0.699219 5.2C0.699219 8.06745 3.07706 10.4 6.00019 10.4C8.92332 10.4 11.3012 8.06745 11.3012 5.2C11.3012 2.33255 8.92332 0 6.00019 0ZM6.00019 9.59443C3.53037 9.59443 1.52043 7.62277 1.52043 5.2C1.52043 2.77723 3.53037 0.805573 6.00019 0.805573C8.47042 0.805573 10.4799 2.77723 10.4799 5.2C10.4799 7.62277 8.47001 9.59443 6.00019 9.59443Z" fill="#828282"/>
</svg>
