<svg width="20" height="20" viewBox="0 0 20 20" fill="none" xmlns="http://www.w3.org/2000/svg">
<g clip-path="url(#clip0_2231_32134)">
<path d="M0.585938 13.1797C0.262344 13.1797 0 13.442 0 13.7656V19.4141C0 19.7376 0.262344 20 0.585938 20H2.59375V13.1797H0.585938Z" fill="white"/>
<path d="M19.4141 13.1797H17.4062V20H19.4141C19.7377 20 20 19.7376 20 19.4141V13.7656C20 13.442 19.7377 13.1797 19.4141 13.1797Z" fill="white"/>
<path d="M17.1465 6.95617L10.5864 3.97422V1.79945H12.5108C12.8344 1.79945 13.0967 1.53711 13.0967 1.21352V0.585938C13.0967 0.262344 12.8344 0 12.5108 0H10.0004C9.67682 0 9.41448 0.262344 9.41448 0.585938V3.97422L2.85436 6.95617C2.55975 7.09008 2.42948 7.43742 2.56343 7.73203C2.69733 8.02664 3.04475 8.15684 3.33929 8.02297L3.76608 7.82895V19.4141C3.76608 19.7376 4.02843 20 4.35202 20H7.53171V15.6484C7.53171 15.3249 7.79405 15.0625 8.11764 15.0625H11.8832C12.2068 15.0625 12.4691 15.3249 12.4691 15.6484V20H15.6488C15.9724 20 16.2348 19.7376 16.2348 19.4141V7.82898L16.6616 8.02301C16.7402 8.05875 16.8226 8.0757 16.9037 8.0757C17.1264 8.0757 17.3392 7.94801 17.4374 7.73207C17.5714 7.43742 17.4411 7.09008 17.1465 6.95617ZM10.0004 12.5134C8.63913 12.5134 7.53171 11.4059 7.53171 10.0446C7.53171 8.68336 8.63917 7.57594 10.0004 7.57594C11.3617 7.57594 12.4691 8.68336 12.4691 10.0446C12.4691 11.4059 11.3617 12.5134 10.0004 12.5134Z" fill="white"/>
</g>
<defs>
<clipPath id="clip0_2231_32134">
<rect width="20" height="20" fill="white"/>
</clipPath>
</defs>
</svg>
