<svg width="13" height="13" viewBox="0 0 13 13" fill="none" xmlns="http://www.w3.org/2000/svg">
<path d="M8.76172 4.3116L11.3957 4.69048C11.5641 4.7144 11.7225 4.78509 11.8528 4.89451C11.9831 5.00392 12.0801 5.14769 12.1328 5.30948C12.1855 5.47126 12.1917 5.64458 12.1508 5.80974C12.11 5.97491 12.0236 6.1253 11.9015 6.24383L10.0003 8.10109C9.89492 8.20411 9.81611 8.33121 9.7707 8.47145C9.72529 8.61169 9.71464 8.76086 9.73966 8.90612L10.1922 11.5252C10.2209 11.6924 10.2024 11.8643 10.1386 12.0215C10.0749 12.1787 9.96839 12.3149 9.83127 12.4148C9.69415 12.5147 9.53183 12.5743 9.36264 12.5868C9.19346 12.5993 9.02415 12.5642 8.87384 12.4856L6.51951 11.2517C6.38901 11.1831 6.2438 11.1473 6.09639 11.1473C5.94898 11.1473 5.80377 11.1831 5.67327 11.2517L3.31894 12.4903C3.16883 12.5694 2.99958 12.605 2.83032 12.5929C2.66106 12.5809 2.49854 12.5218 2.36112 12.4222C2.2237 12.3227 2.11687 12.1867 2.05269 12.0296C1.98851 11.8725 1.96954 11.7006 1.99793 11.5333L2.44434 8.91288C2.46899 8.76755 2.45796 8.61841 2.4122 8.47829C2.36643 8.33817 2.28731 8.21127 2.18162 8.10852L0.276416 6.25531C0.154412 6.137 0.0679872 5.98688 0.0269373 5.82197C-0.0141127 5.65705 -0.00814665 5.48394 0.044159 5.32224C0.0964647 5.16054 0.193018 5.01673 0.322878 4.9071C0.452737 4.79747 0.610708 4.72641 0.778888 4.70196L3.40877 4.31633C3.55468 4.29497 3.6932 4.23844 3.81239 4.15161C3.93158 4.06477 4.02786 3.95025 4.09291 3.81791L5.2667 1.43319C5.3417 1.28091 5.45784 1.15266 5.60197 1.06299C5.7461 0.973311 5.91246 0.925781 6.08221 0.925781C6.25196 0.925781 6.41832 0.973311 6.56244 1.06299C6.70657 1.15266 6.82271 1.28091 6.89771 1.43319L8.07623 3.81453C8.14163 3.94676 8.2382 4.06109 8.35762 4.14768C8.47704 4.23428 8.61572 4.29054 8.76172 4.3116Z" fill="#E39A0F"/>
</svg>
